<?xml version="1.0" encoding="UTF-8" standalone="no"?>
<svg width="156px" height="39px" viewBox="0 0 156 39"
 xmlns="http://www.w3.org/2000/svg" xmlns:xlink="http://www.w3.org/1999/xlink" version="1.2" baseProfile="tiny">
<title>ab-c-bbm7</title>
<desc>Generated by MuseScore 2.0.3</desc>
<polyline class="" fill="none" stroke="#000000" stroke-width="0.40" stroke-linejoin="bevel" points="0.850387,9.20692 153.921,9.20692"/>
<polyline class="" fill="none" stroke="#000000" stroke-width="0.40" stroke-linejoin="bevel" points="0.850387,14.2072 153.921,14.2072"/>
<polyline class="" fill="none" stroke="#000000" stroke-width="0.40" stroke-linejoin="bevel" points="0.850387,19.2076 153.921,19.2076"/>
<polyline class="" fill="none" stroke="#000000" stroke-width="0.40" stroke-linejoin="bevel" points="0.850387,24.2079 153.921,24.2079"/>
<polyline class="" fill="none" stroke="#000000" stroke-width="0.40" stroke-linejoin="bevel" points="0.850387,29.2082 153.921,29.2082"/>
<polyline class="" fill="none" stroke="#000000" stroke-width="0.80" stroke-linejoin="bevel" points="153.521,9.20692 153.521,29.2082"/>
<path class="" d="M62.8931,19.4616 C62.4243,19.4616 62.0858,19.6244 61.8775,19.9499 C61.6431,20.2624 61.5259,20.6856 61.5259,21.2194 C61.5259,21.8314 61.6887,22.3588 62.0142,22.8015 C62.3397,23.2311 62.6978,23.5306 63.0884,23.6999 C63.44,23.8692 63.8111,23.9538 64.2017,23.9538 C64.6574,23.9538 65.0025,23.791 65.2368,23.4655 C65.4582,23.14 65.5689,22.7168 65.5689,22.196 C65.5689,21.584 65.4061,21.0567 65.0806,20.614 C64.7551,20.1973 64.4035,19.8978 64.0259,19.7155 C63.6483,19.5463 63.2707,19.4616 62.8931,19.4616 M63.5571,18.9538 C64.9634,18.9538 66.1353,19.2272 67.0728,19.7741 C68.0233,20.321 68.4986,20.9655 68.4986,21.7077 C68.4986,22.502 68.0103,23.153 67.0337,23.6608 C66.0571,24.1947 64.8983,24.4616 63.5571,24.4616 C62.1769,24.4616 61.0051,24.1882 60.0415,23.6413 C59.078,23.0944 58.5962,22.4499 58.5962,21.7077 C58.5962,20.9134 59.091,20.2624 60.0806,19.7546 C61.0571,19.2207 62.216,18.9538 63.5571,18.9538"/>
<path class="" d="M62.8931,24.4619 C62.4243,24.4619 62.0858,24.6247 61.8775,24.9502 C61.6431,25.2627 61.5259,25.6859 61.5259,26.2197 C61.5259,26.8317 61.6887,27.3591 62.0142,27.8018 C62.3397,28.2315 62.6978,28.5309 63.0884,28.7002 C63.44,28.8695 63.8111,28.9541 64.2017,28.9541 C64.6574,28.9541 65.0025,28.7914 65.2368,28.4658 C65.4582,28.1403 65.5689,27.7171 65.5689,27.1963 C65.5689,26.5843 65.4061,26.057 65.0806,25.6143 C64.7551,25.1976 64.4035,24.8981 64.0259,24.7158 C63.6483,24.5466 63.2707,24.4619 62.8931,24.4619 M63.5571,23.9541 C64.9634,23.9541 66.1353,24.2276 67.0728,24.7744 C68.0233,25.3213 68.4986,25.9658 68.4986,26.708 C68.4986,27.5023 68.0103,28.1533 67.0337,28.6611 C66.0571,29.195 64.8983,29.4619 63.5571,29.4619 C62.1769,29.4619 61.0051,29.1885 60.0415,28.6416 C59.078,28.0947 58.5962,27.4502 58.5962,26.708 C58.5962,25.9138 59.091,25.2627 60.0806,24.7549 C61.0571,24.221 62.216,23.9541 63.5571,23.9541"/>
<path class="" d="M62.8931,29.4622 C62.4243,29.4622 62.0858,29.625 61.8775,29.9505 C61.6431,30.263 61.5259,30.6862 61.5259,31.2201 C61.5259,31.832 61.6887,32.3594 62.0142,32.8021 C62.3397,33.2318 62.6978,33.5313 63.0884,33.7005 C63.44,33.8698 63.8111,33.9544 64.2017,33.9544 C64.6574,33.9544 65.0025,33.7917 65.2368,33.4662 C65.4582,33.1406 65.5689,32.7175 65.5689,32.1966 C65.5689,31.5846 65.4061,31.0573 65.0806,30.6146 C64.7551,30.1979 64.4035,29.8984 64.0259,29.7162 C63.6483,29.5469 63.2707,29.4622 62.8931,29.4622 M63.5571,28.9544 C64.9634,28.9544 66.1353,29.2279 67.0728,29.7747 C68.0233,30.3216 68.4986,30.9662 68.4986,31.7083 C68.4986,32.5026 68.0103,33.1537 67.0337,33.6615 C66.0571,34.1953 64.8983,34.4622 63.5571,34.4622 C62.1769,34.4622 61.0051,34.1888 60.0415,33.6419 C59.078,33.0951 58.5962,32.4505 58.5962,31.7083 C58.5962,30.9141 59.091,30.263 60.0806,29.7552 C61.0571,29.2214 62.216,28.9544 63.5571,28.9544"/>
<path class="" d="M11.3943,19.0907 C11.3943,19.0907 11.4334,19.0907 11.5115,19.0907 C11.5636,19.0777 11.6092,19.0711 11.6482,19.0711 C13.1066,19.0711 14.3045,19.5855 15.242,20.6141 C16.1795,21.6297 16.6482,22.8146 16.6482,24.1688 C16.6482,25.8485 15.9516,27.2157 14.5584,28.2704 C14.1938,28.5568 13.7186,28.7912 13.1326,28.9735 C13.1977,29.8198 13.2303,30.5034 13.2303,31.0243 C13.2303,31.1284 13.2173,31.506 13.1912,32.1571 C13.1391,33.368 12.7225,34.4162 11.9412,35.3016 C11.186,36.174 10.2485,36.6102 9.12871,36.6102 C8.07403,36.6102 7.17559,36.2391 6.4334,35.4969 C5.69121,34.7417 5.32012,33.8303 5.32012,32.7626 C5.32012,32.2027 5.53496,31.7274 5.96465,31.3368 C6.40736,30.9461 6.92168,30.7508 7.50762,30.7508 C8.02845,30.7508 8.46465,30.9527 8.81621,31.3563 C9.1808,31.7339 9.36309,32.2027 9.36309,32.7626 C9.36309,33.2704 9.1808,33.7066 8.81621,34.0711 C8.45163,34.4357 8.01543,34.618 7.50762,34.618 C7.29929,34.618 7.09746,34.579 6.90215,34.5008 C7.47507,35.3472 8.23679,35.7704 9.18731,35.7704 C10.0857,35.7704 10.8214,35.4058 11.3943,34.6766 C11.9933,33.9214 12.3188,33.0425 12.3709,32.0399 C12.3969,31.4149 12.41,31.0568 12.41,30.9657 C12.41,30.2365 12.3839,29.6376 12.3318,29.1688 C11.6808,29.273 11.1014,29.3251 10.5936,29.3251 C8.78366,29.3251 7.24069,28.6089 5.96465,27.1766 C4.71465,25.7313 4.08965,24.0126 4.08965,22.0204 C4.08965,21.6037 4.12871,21.1805 4.20684,20.7508 C4.28496,20.3993 4.38262,20.0152 4.49981,19.5985 C4.56491,19.3641 4.74069,18.9865 5.02715,18.4657 C5.13132,18.3094 5.24851,18.1141 5.37871,17.8797 C5.50892,17.6454 5.60007,17.4891 5.65215,17.411 C5.78236,17.1506 6.03627,16.799 6.41387,16.3563 C6.51804,16.2391 6.62546,16.1089 6.73614,15.9657 C6.84681,15.8225 6.94121,15.7053 7.01934,15.6141 C7.09746,15.523 7.15606,15.4514 7.19512,15.3993 C7.23418,15.3472 7.52715,15.0021 8.07403,14.3641 C8.20423,14.2339 8.33119,14.0939 8.45489,13.9442 C8.57858,13.7945 8.67949,13.6773 8.75762,13.5926 C8.83574,13.508 8.89434,13.4461 8.9334,13.4071 C8.46465,11.8576 8.17168,10.6206 8.05449,9.69615 C7.96335,8.95396 7.91778,7.93834 7.91778,6.64927 C7.91778,5.51646 8.17819,4.45526 8.69903,3.46568 C9.20684,2.43703 9.91647,1.59719 10.8279,0.946149 C10.893,0.907086 10.9581,0.887555 11.0232,0.887555 C11.1144,0.887555 11.1795,0.907086 11.2186,0.946149 C11.9217,1.7925 12.5272,2.89276 13.035,4.24693 C13.5558,5.6011 13.8162,6.83157 13.8162,7.93834 C13.8162,9.18834 13.5167,10.3602 12.9178,11.454 C12.2407,12.6128 11.3683,13.8107 10.3006,15.0477 C10.574,15.9071 10.9386,17.2547 11.3943,19.0907 M13.0545,28.1727 C13.7316,27.9253 14.2589,27.5021 14.6365,26.9032 C15.0532,26.3303 15.2615,25.6857 15.2615,24.9696 C15.2615,24.0451 14.949,23.2248 14.324,22.5086 C13.686,21.7665 12.8722,21.3498 11.8826,21.2586 C12.4425,24.006 12.8331,26.3107 13.0545,28.1727 M5.4959,23.661 C5.4959,24.9501 6.01673,26.0829 7.0584,27.0594 C8.12611,28.01 9.32403,28.4852 10.6522,28.4852 C11.199,28.4852 11.7329,28.4461 12.2537,28.368 C12.0454,26.3889 11.6352,24.0191 11.0232,21.2586 C10.2811,21.3368 9.68861,21.5972 9.2459,22.0399 C8.81621,22.4956 8.60137,23.01 8.60137,23.5829 C8.60137,24.5725 9.12871,25.3732 10.1834,25.9852 C10.2745,26.0764 10.3201,26.174 10.3201,26.2782 C10.3201,26.3823 10.2745,26.48 10.1834,26.5711 C10.1053,26.6623 10.0076,26.7079 9.89043,26.7079 C9.87741,26.7079 9.81882,26.6948 9.71465,26.6688 C8.97246,26.2652 8.39955,25.7443 7.9959,25.1063 C7.6183,24.4292 7.42949,23.7456 7.42949,23.0555 C7.42949,22.1571 7.70944,21.3433 8.26934,20.6141 C8.85528,19.885 9.61699,19.4162 10.5545,19.2079 C10.1899,17.7495 9.89043,16.6102 9.65606,15.7899 C9.44772,16.0243 9.19707,16.3075 8.9041,16.6395 C8.61114,16.9715 8.43861,17.1701 8.38653,17.2352 C7.91778,17.8472 7.5597,18.3225 7.31231,18.661 C6.8696,19.273 6.54408,19.8003 6.33574,20.243 C6.11439,20.7378 5.91908,21.2782 5.74981,21.8641 C5.58054,22.424 5.4959,23.023 5.4959,23.661 M12.0193,3.79771 C11.0428,4.27948 10.2745,4.96959 9.71465,5.86802 C9.14173,6.7925 8.85528,7.7886 8.85528,8.8563 C8.85528,9.7938 9.08965,11.0568 9.5584,12.6454 C10.4959,11.5126 11.199,10.4644 11.6678,9.50084 C12.1626,8.48521 12.41,7.42401 12.41,6.31724 C12.41,5.48391 12.2798,4.64407 12.0193,3.79771"/>
<path class="" d="M35.1751,13.3869 L35.1751,14.9299 C35.1751,15.4768 35.2012,15.913 35.2533,16.2385 C35.683,15.8739 35.9889,15.6005 36.1712,15.4182 C36.3796,15.2098 36.5879,14.9234 36.7962,14.5588 C37.0046,14.1942 37.1087,13.8296 37.1087,13.465 C37.1087,13.1005 37.0306,12.788 36.8744,12.5275 C36.7181,12.2671 36.5098,12.1369 36.2494,12.1369 C35.9369,12.1369 35.6764,12.2541 35.4681,12.4885 C35.2728,12.7489 35.1751,13.0484 35.1751,13.3869 M34.3548,16.9611 L34.1009,5.06661 C34.2832,4.96245 34.4655,4.91036 34.6478,4.91036 C34.8301,4.91036 35.0124,4.96245 35.1947,5.06661 L35.0384,11.9611 C35.5723,11.5054 36.1843,11.2775 36.8744,11.2775 C37.3822,11.2775 37.8054,11.4859 38.1439,11.9025 C38.4824,12.3192 38.6517,12.7945 38.6517,13.3283 C38.6517,13.6669 38.541,14.0249 38.3197,14.4025 C38.1113,14.7541 37.89,15.0275 37.6556,15.2229 C37.5254,15.327 37.1934,15.5874 36.6595,16.0041 C36.5033,16.1213 36.3177,16.258 36.1029,16.4143 C35.888,16.5705 35.7546,16.6682 35.7025,16.7072 C35.6113,16.7593 35.5267,16.8635 35.4486,17.0197 C35.3574,17.1499 35.2533,17.2606 35.1361,17.3518 C35.0449,17.4299 34.9343,17.469 34.8041,17.469 C34.6738,17.469 34.5697,17.4234 34.4916,17.3322 C34.4004,17.2411 34.3548,17.1174 34.3548,16.9611"/>
<path class="" d="M30.1748,20.8874 L30.1748,22.4304 C30.1748,22.9772 30.2009,23.4134 30.253,23.739 C30.6826,23.3744 30.9886,23.1009 31.1709,22.9186 C31.3793,22.7103 31.5876,22.4239 31.7959,22.0593 C32.0043,21.6947 32.1084,21.3301 32.1084,20.9655 C32.1084,20.6009 32.0303,20.2884 31.8741,20.028 C31.7178,19.7676 31.5095,19.6374 31.2491,19.6374 C30.9366,19.6374 30.6761,19.7546 30.4678,19.989 C30.2725,20.2494 30.1748,20.5489 30.1748,20.8874 M29.3545,24.4616 L29.1006,12.5671 C29.2829,12.4629 29.4652,12.4108 29.6475,12.4108 C29.8298,12.4108 30.0121,12.4629 30.1944,12.5671 L30.0381,19.4616 C30.572,19.0059 31.1839,18.778 31.8741,18.778 C32.3819,18.778 32.805,18.9864 33.1436,19.403 C33.4821,19.8197 33.6514,20.2949 33.6514,20.8288 C33.6514,21.1673 33.5407,21.5254 33.3194,21.903 C33.111,22.2546 32.8897,22.528 32.6553,22.7233 C32.5251,22.8275 32.1931,23.0879 31.6592,23.5046 C31.503,23.6218 31.3174,23.7585 31.1026,23.9147 C30.8877,24.071 30.7543,24.1686 30.7022,24.2077 C30.611,24.2598 30.5264,24.364 30.4483,24.5202 C30.3571,24.6504 30.253,24.7611 30.1358,24.8522 C30.0446,24.9304 29.9339,24.9694 29.8037,24.9694 C29.6735,24.9694 29.5694,24.9239 29.4912,24.8327 C29.4001,24.7416 29.3545,24.6179 29.3545,24.4616"/>
<path class="" d="M25.1745,10.8868 L25.1745,12.4297 C25.1745,12.9766 25.2006,13.4128 25.2526,13.7383 C25.6823,13.3737 25.9883,13.1003 26.1706,12.918 C26.3789,12.7097 26.5873,12.4232 26.7956,12.0586 C27.0039,11.6941 27.1081,11.3295 27.1081,10.9649 C27.1081,10.6003 27.03,10.2878 26.8737,10.0274 C26.7175,9.76698 26.5092,9.63677 26.2487,9.63677 C25.9362,9.63677 25.6758,9.75395 25.4675,9.98833 C25.2722,10.2487 25.1745,10.5482 25.1745,10.8868 M24.3542,14.461 L24.1003,2.56645 C24.2826,2.46229 24.4649,2.4102 24.6472,2.4102 C24.8295,2.4102 25.0118,2.46229 25.194,2.56645 L25.0378,9.46099 C25.5717,9.00526 26.1836,8.77739 26.8737,8.77739 C27.3815,8.77739 27.8047,8.98573 28.1433,9.40239 C28.4818,9.81906 28.6511,10.2943 28.6511,10.8282 C28.6511,11.1667 28.5404,11.5248 28.319,11.9024 C28.1107,12.254 27.8894,12.5274 27.655,12.7227 C27.5248,12.8269 27.1927,13.0873 26.6589,13.504 C26.5026,13.6211 26.3171,13.7579 26.1023,13.9141 C25.8874,14.0704 25.7539,14.168 25.7019,14.2071 C25.6107,14.2592 25.5261,14.3633 25.448,14.5196 C25.3568,14.6498 25.2526,14.7605 25.1355,14.8516 C25.0443,14.9297 24.9336,14.9688 24.8034,14.9688 C24.6732,14.9688 24.569,14.9232 24.4909,14.8321 C24.3998,14.7409 24.3542,14.6172 24.3542,14.461"/>
<path class="" d="M20.1742,18.3872 L20.1742,19.9302 C20.1742,20.4771 20.2002,20.9133 20.2523,21.2388 C20.682,20.8742 20.988,20.6008 21.1703,20.4185 C21.3786,20.2102 21.587,19.9237 21.7953,19.5591 C22.0036,19.1945 22.1078,18.8299 22.1078,18.4654 C22.1078,18.1008 22.0297,17.7883 21.8734,17.5279 C21.7172,17.2674 21.5088,17.1372 21.2484,17.1372 C20.9359,17.1372 20.6755,17.2544 20.4672,17.4888 C20.2719,17.7492 20.1742,18.0487 20.1742,18.3872 M19.3539,21.9615 L19.1,10.0669 C19.2823,9.96276 19.4646,9.91068 19.6469,9.91068 C19.8292,9.91068 20.0114,9.96276 20.1937,10.0669 L20.0375,16.9615 C20.5713,16.5057 21.1833,16.2779 21.8734,16.2779 C22.3812,16.2779 22.8044,16.4862 23.143,16.9029 C23.4815,17.3195 23.6508,17.7948 23.6508,18.3286 C23.6508,18.6672 23.5401,19.0253 23.3187,19.4029 C23.1104,19.7544 22.889,20.0279 22.6547,20.2232 C22.5245,20.3273 22.1924,20.5878 21.6586,21.0044 C21.5023,21.1216 21.3168,21.2583 21.1019,21.4146 C20.8871,21.5708 20.7536,21.6685 20.7015,21.7076 C20.6104,21.7596 20.5258,21.8638 20.4476,22.0201 C20.3565,22.1503 20.2523,22.2609 20.1351,22.3521 C20.044,22.4302 19.9333,22.4693 19.8031,22.4693 C19.6729,22.4693 19.5687,22.4237 19.4906,22.3326 C19.3995,22.2414 19.3539,22.1177 19.3539,21.9615"/>
<path class="" d="M48.3795,18.6607 C48.0409,18.6607 47.7024,18.5305 47.3639,18.2701 C47.0383,18.0227 46.8756,17.6581 46.8756,17.1763 C46.8756,16.7727 47.0123,16.4146 47.2857,16.1021 C47.5462,15.7896 47.8912,15.6333 48.3209,15.6333 C48.4641,15.6333 48.5553,15.6398 48.5943,15.6529 C47.9954,14.8846 47.1946,14.4875 46.192,14.4615 C45.4368,14.4615 44.8639,14.6763 44.4732,15.106 C44.343,15.2753 44.2258,15.5487 44.1217,15.9263 C44.0175,16.3039 43.9654,16.6424 43.9654,16.9419 C43.9394,17.1503 43.9264,17.5669 43.9264,18.1919 L43.9264,20.2232 C43.9264,20.8482 43.9394,21.2714 43.9654,21.4927 C44.0175,22.3391 44.1868,22.9445 44.4732,23.3091 C44.8769,23.7518 45.4498,23.9732 46.192,23.9732 C46.9732,23.9732 47.6373,23.6867 48.1842,23.1138 C48.7441,22.5539 49.1347,21.8313 49.3561,20.9458 C49.3951,20.8156 49.4732,20.7505 49.5904,20.7505 C49.7597,20.7505 49.8443,20.8286 49.8443,20.9849 C49.8443,21.076 49.8053,21.2518 49.7271,21.5122 C49.5449,22.0982 49.1868,22.7167 48.6529,23.3677 C48.0149,24.0969 47.1946,24.4615 46.192,24.4615 C45.6061,24.4615 45.0071,24.3768 44.3951,24.2076 C43.7962,23.9992 43.2688,23.7128 42.8131,23.3482 C42.3053,22.9445 41.9081,22.3977 41.6217,21.7076 C41.3352,20.9523 41.192,20.119 41.192,19.2076 C41.192,17.619 41.6217,16.356 42.4811,15.4185 C43.3144,14.4549 44.5514,13.9732 46.192,13.9732 C47.2597,13.9732 48.1061,14.3378 48.7311,15.0669 C49.3821,15.7961 49.7076,16.5188 49.7076,17.2349 C49.7076,17.6516 49.5774,17.9901 49.317,18.2505 C49.0826,18.524 48.7701,18.6607 48.3795,18.6607"/>
</svg>
