<?xml version="1.0" encoding="UTF-8" standalone="no"?>
<svg width="156px" height="39px" viewBox="0 0 156 39"
 xmlns="http://www.w3.org/2000/svg" xmlns:xlink="http://www.w3.org/1999/xlink" version="1.2" baseProfile="tiny">
<title>c-g7</title>
<desc>Generated by MuseScore 2.0.3</desc>
<polyline class="" fill="none" stroke="#000000" stroke-width="0.40" stroke-linejoin="bevel" points="0.850387,9.20692 153.921,9.20692"/>
<polyline class="" fill="none" stroke="#000000" stroke-width="0.40" stroke-linejoin="bevel" points="0.850387,14.2072 153.921,14.2072"/>
<polyline class="" fill="none" stroke="#000000" stroke-width="0.40" stroke-linejoin="bevel" points="0.850387,19.2076 153.921,19.2076"/>
<polyline class="" fill="none" stroke="#000000" stroke-width="0.40" stroke-linejoin="bevel" points="0.850387,24.2079 153.921,24.2079"/>
<polyline class="" fill="none" stroke="#000000" stroke-width="0.40" stroke-linejoin="bevel" points="0.850387,29.2082 153.921,29.2082"/>
<polyline class="" fill="none" stroke="#000000" stroke-width="0.80" stroke-linejoin="bevel" points="153.521,9.20692 153.521,29.2082"/>
<path class="" d="M43.3403,11.9611 C42.8715,11.9611 42.533,12.1239 42.3247,12.4494 C42.0903,12.7619 41.9731,13.1851 41.9731,13.719 C41.9731,14.3309 42.1359,14.8583 42.4614,15.301 C42.7869,15.7307 43.145,16.0302 43.5356,16.1994 C43.8872,16.3687 44.2583,16.4533 44.6489,16.4533 C45.1046,16.4533 45.4497,16.2906 45.684,15.965 C45.9054,15.6395 46.0161,15.2164 46.0161,14.6955 C46.0161,14.0835 45.8533,13.5562 45.5278,13.1135 C45.2023,12.6968 44.8507,12.3973 44.4731,12.215 C44.0955,12.0458 43.7179,11.9611 43.3403,11.9611 M44.0044,11.4533 C45.4106,11.4533 46.5825,11.7268 47.52,12.2736 C48.4705,12.8205 48.9458,13.465 48.9458,14.2072 C48.9458,15.0015 48.4575,15.6525 47.4809,16.1604 C46.5044,16.6942 45.3455,16.9611 44.0044,16.9611 C42.6241,16.9611 41.4523,16.6877 40.4887,16.1408 C39.5252,15.594 39.0434,14.9494 39.0434,14.2072 C39.0434,13.413 39.5382,12.7619 40.5278,12.2541 C41.5044,11.7203 42.6632,11.4533 44.0044,11.4533"/>
<path class="" d="M43.3403,16.9615 C42.8715,16.9615 42.533,17.1242 42.3247,17.4497 C42.0903,17.7622 41.9731,18.1854 41.9731,18.7193 C41.9731,19.3313 42.1359,19.8586 42.4614,20.3013 C42.7869,20.731 43.145,21.0305 43.5356,21.1997 C43.8872,21.369 44.2583,21.4536 44.6489,21.4536 C45.1046,21.4536 45.4497,21.2909 45.684,20.9654 C45.9054,20.6398 46.0161,20.2167 46.0161,19.6958 C46.0161,19.0839 45.8533,18.5565 45.5278,18.1138 C45.2023,17.6971 44.8507,17.3977 44.4731,17.2154 C44.0955,17.0461 43.7179,16.9615 43.3403,16.9615 M44.0044,16.4536 C45.4106,16.4536 46.5825,16.7271 47.52,17.274 C48.4705,17.8208 48.9458,18.4654 48.9458,19.2076 C48.9458,20.0018 48.4575,20.6529 47.4809,21.1607 C46.5044,21.6945 45.3455,21.9615 44.0044,21.9615 C42.6241,21.9615 41.4523,21.688 40.4887,21.1411 C39.5252,20.5943 39.0434,19.9497 39.0434,19.2076 C39.0434,18.4133 39.5382,17.7622 40.5278,17.2544 C41.5044,16.7206 42.6632,16.4536 44.0044,16.4536"/>
<path class="" d="M43.3403,24.4619 C42.8715,24.4619 42.533,24.6247 42.3247,24.9502 C42.0903,25.2627 41.9731,25.6859 41.9731,26.2197 C41.9731,26.8317 42.1359,27.3591 42.4614,27.8018 C42.7869,28.2315 43.145,28.5309 43.5356,28.7002 C43.8872,28.8695 44.2583,28.9541 44.6489,28.9541 C45.1046,28.9541 45.4497,28.7914 45.684,28.4658 C45.9054,28.1403 46.0161,27.7171 46.0161,27.1963 C46.0161,26.5843 45.8533,26.057 45.5278,25.6143 C45.2023,25.1976 44.8507,24.8981 44.4731,24.7158 C44.0955,24.5466 43.7179,24.4619 43.3403,24.4619 M44.0044,23.9541 C45.4106,23.9541 46.5825,24.2276 47.52,24.7744 C48.4705,25.3213 48.9458,25.9658 48.9458,26.708 C48.9458,27.5023 48.4575,28.1533 47.4809,28.6611 C46.5044,29.195 45.3455,29.4619 44.0044,29.4619 C42.6241,29.4619 41.4523,29.1885 40.4887,28.6416 C39.5252,28.0947 39.0434,27.4502 39.0434,26.708 C39.0434,25.9138 39.5382,25.2627 40.5278,24.7549 C41.5044,24.221 42.6632,23.9541 44.0044,23.9541"/>
<path class="" d="M11.3943,19.0907 C11.3943,19.0907 11.4334,19.0907 11.5115,19.0907 C11.5636,19.0777 11.6092,19.0711 11.6482,19.0711 C13.1066,19.0711 14.3045,19.5855 15.242,20.6141 C16.1795,21.6297 16.6482,22.8146 16.6482,24.1688 C16.6482,25.8485 15.9516,27.2157 14.5584,28.2704 C14.1938,28.5568 13.7186,28.7912 13.1326,28.9735 C13.1977,29.8198 13.2303,30.5034 13.2303,31.0243 C13.2303,31.1284 13.2173,31.506 13.1912,32.1571 C13.1391,33.368 12.7225,34.4162 11.9412,35.3016 C11.186,36.174 10.2485,36.6102 9.12871,36.6102 C8.07403,36.6102 7.17559,36.2391 6.4334,35.4969 C5.69121,34.7417 5.32012,33.8303 5.32012,32.7626 C5.32012,32.2027 5.53496,31.7274 5.96465,31.3368 C6.40736,30.9461 6.92168,30.7508 7.50762,30.7508 C8.02845,30.7508 8.46465,30.9527 8.81621,31.3563 C9.1808,31.7339 9.36309,32.2027 9.36309,32.7626 C9.36309,33.2704 9.1808,33.7066 8.81621,34.0711 C8.45163,34.4357 8.01543,34.618 7.50762,34.618 C7.29929,34.618 7.09746,34.579 6.90215,34.5008 C7.47507,35.3472 8.23679,35.7704 9.18731,35.7704 C10.0857,35.7704 10.8214,35.4058 11.3943,34.6766 C11.9933,33.9214 12.3188,33.0425 12.3709,32.0399 C12.3969,31.4149 12.41,31.0568 12.41,30.9657 C12.41,30.2365 12.3839,29.6376 12.3318,29.1688 C11.6808,29.273 11.1014,29.3251 10.5936,29.3251 C8.78366,29.3251 7.24069,28.6089 5.96465,27.1766 C4.71465,25.7313 4.08965,24.0126 4.08965,22.0204 C4.08965,21.6037 4.12871,21.1805 4.20684,20.7508 C4.28496,20.3993 4.38262,20.0152 4.49981,19.5985 C4.56491,19.3641 4.74069,18.9865 5.02715,18.4657 C5.13132,18.3094 5.24851,18.1141 5.37871,17.8797 C5.50892,17.6454 5.60007,17.4891 5.65215,17.411 C5.78236,17.1506 6.03627,16.799 6.41387,16.3563 C6.51804,16.2391 6.62546,16.1089 6.73614,15.9657 C6.84681,15.8225 6.94121,15.7053 7.01934,15.6141 C7.09746,15.523 7.15606,15.4514 7.19512,15.3993 C7.23418,15.3472 7.52715,15.0021 8.07403,14.3641 C8.20423,14.2339 8.33119,14.0939 8.45489,13.9442 C8.57858,13.7945 8.67949,13.6773 8.75762,13.5926 C8.83574,13.508 8.89434,13.4461 8.9334,13.4071 C8.46465,11.8576 8.17168,10.6206 8.05449,9.69615 C7.96335,8.95396 7.91778,7.93834 7.91778,6.64927 C7.91778,5.51646 8.17819,4.45526 8.69903,3.46568 C9.20684,2.43703 9.91647,1.59719 10.8279,0.946149 C10.893,0.907086 10.9581,0.887555 11.0232,0.887555 C11.1144,0.887555 11.1795,0.907086 11.2186,0.946149 C11.9217,1.7925 12.5272,2.89276 13.035,4.24693 C13.5558,5.6011 13.8162,6.83157 13.8162,7.93834 C13.8162,9.18834 13.5167,10.3602 12.9178,11.454 C12.2407,12.6128 11.3683,13.8107 10.3006,15.0477 C10.574,15.9071 10.9386,17.2547 11.3943,19.0907 M13.0545,28.1727 C13.7316,27.9253 14.2589,27.5021 14.6365,26.9032 C15.0532,26.3303 15.2615,25.6857 15.2615,24.9696 C15.2615,24.0451 14.949,23.2248 14.324,22.5086 C13.686,21.7665 12.8722,21.3498 11.8826,21.2586 C12.4425,24.006 12.8331,26.3107 13.0545,28.1727 M5.4959,23.661 C5.4959,24.9501 6.01673,26.0829 7.0584,27.0594 C8.12611,28.01 9.32403,28.4852 10.6522,28.4852 C11.199,28.4852 11.7329,28.4461 12.2537,28.368 C12.0454,26.3889 11.6352,24.0191 11.0232,21.2586 C10.2811,21.3368 9.68861,21.5972 9.2459,22.0399 C8.81621,22.4956 8.60137,23.01 8.60137,23.5829 C8.60137,24.5725 9.12871,25.3732 10.1834,25.9852 C10.2745,26.0764 10.3201,26.174 10.3201,26.2782 C10.3201,26.3823 10.2745,26.48 10.1834,26.5711 C10.1053,26.6623 10.0076,26.7079 9.89043,26.7079 C9.87741,26.7079 9.81882,26.6948 9.71465,26.6688 C8.97246,26.2652 8.39955,25.7443 7.9959,25.1063 C7.6183,24.4292 7.42949,23.7456 7.42949,23.0555 C7.42949,22.1571 7.70944,21.3433 8.26934,20.6141 C8.85528,19.885 9.61699,19.4162 10.5545,19.2079 C10.1899,17.7495 9.89043,16.6102 9.65606,15.7899 C9.44772,16.0243 9.19707,16.3075 8.9041,16.6395 C8.61114,16.9715 8.43861,17.1701 8.38653,17.2352 C7.91778,17.8472 7.5597,18.3225 7.31231,18.661 C6.8696,19.273 6.54408,19.8003 6.33574,20.243 C6.11439,20.7378 5.91908,21.2782 5.74981,21.8641 C5.58054,22.424 5.4959,23.023 5.4959,23.661 M12.0193,3.79771 C11.0428,4.27948 10.2745,4.96959 9.71465,5.86802 C9.14173,6.7925 8.85528,7.7886 8.85528,8.8563 C8.85528,9.7938 9.08965,11.0568 9.5584,12.6454 C10.4959,11.5126 11.199,10.4644 11.6678,9.50084 C12.1626,8.48521 12.41,7.42401 12.41,6.31724 C12.41,5.48391 12.2798,4.64407 12.0193,3.79771"/>
<path class="" d="M28.8267,18.6607 C28.4882,18.6607 28.1496,18.5305 27.8111,18.2701 C27.4856,18.0227 27.3228,17.6581 27.3228,17.1763 C27.3228,16.7727 27.4595,16.4146 27.7329,16.1021 C27.9934,15.7896 28.3384,15.6333 28.7681,15.6333 C28.9113,15.6333 29.0025,15.6398 29.0415,15.6529 C28.4426,14.8846 27.6418,14.4875 26.6392,14.4615 C25.884,14.4615 25.3111,14.6763 24.9204,15.106 C24.7902,15.2753 24.6731,15.5487 24.5689,15.9263 C24.4647,16.3039 24.4126,16.6424 24.4126,16.9419 C24.3866,17.1503 24.3736,17.5669 24.3736,18.1919 L24.3736,20.2232 C24.3736,20.8482 24.3866,21.2714 24.4126,21.4927 C24.4647,22.3391 24.634,22.9445 24.9204,23.3091 C25.3241,23.7518 25.897,23.9732 26.6392,23.9732 C27.4204,23.9732 28.0845,23.6867 28.6314,23.1138 C29.1913,22.5539 29.5819,21.8313 29.8033,20.9458 C29.8423,20.8156 29.9204,20.7505 30.0376,20.7505 C30.2069,20.7505 30.2915,20.8286 30.2915,20.9849 C30.2915,21.076 30.2525,21.2518 30.1744,21.5122 C29.9921,22.0982 29.634,22.7167 29.1001,23.3677 C28.4621,24.0969 27.6418,24.4615 26.6392,24.4615 C26.0533,24.4615 25.4543,24.3768 24.8423,24.2076 C24.2434,23.9992 23.716,23.7128 23.2603,23.3482 C22.7525,22.9445 22.3553,22.3977 22.0689,21.7076 C21.7824,20.9523 21.6392,20.119 21.6392,19.2076 C21.6392,17.619 22.0689,16.356 22.9283,15.4185 C23.7616,14.4549 24.9986,13.9732 26.6392,13.9732 C27.7069,13.9732 28.5533,14.3378 29.1783,15.0669 C29.8293,15.7961 30.1548,16.5188 30.1548,17.2349 C30.1548,17.6516 30.0246,17.9901 29.7642,18.2505 C29.5298,18.524 29.2173,18.6607 28.8267,18.6607"/>
</svg>
