<?xml version="1.0" encoding="UTF-8" standalone="no"?>
<svg width="156px" height="39px" viewBox="0 0 156 39"
 xmlns="http://www.w3.org/2000/svg" xmlns:xlink="http://www.w3.org/1999/xlink" version="1.2" baseProfile="tiny">
<title>d-c-a7</title>
<desc>Generated by MuseScore 2.0.3</desc>
<polyline class="" fill="none" stroke="#000000" stroke-width="0.40" stroke-linejoin="bevel" points="0.850387,9.20692 153.921,9.20692"/>
<polyline class="" fill="none" stroke="#000000" stroke-width="0.40" stroke-linejoin="bevel" points="0.850387,14.2072 153.921,14.2072"/>
<polyline class="" fill="none" stroke="#000000" stroke-width="0.40" stroke-linejoin="bevel" points="0.850387,19.2076 153.921,19.2076"/>
<polyline class="" fill="none" stroke="#000000" stroke-width="0.40" stroke-linejoin="bevel" points="0.850387,24.2079 153.921,24.2079"/>
<polyline class="" fill="none" stroke="#000000" stroke-width="0.40" stroke-linejoin="bevel" points="0.850387,29.2082 153.921,29.2082"/>
<polyline class="" fill="none" stroke="#000000" stroke-width="0.80" stroke-linejoin="bevel" points="153.521,9.20692 153.521,29.2082"/>
<path class="" d="M53.8488,9.46099 C53.38,9.46099 53.0415,9.62375 52.8331,9.94927 C52.5988,10.2618 52.4816,10.6849 52.4816,11.2188 C52.4816,11.8308 52.6443,12.3581 52.9699,12.8008 C53.2954,13.2305 53.6535,13.53 54.0441,13.6993 C54.3956,13.8685 54.7667,13.9532 55.1574,13.9532 C55.6131,13.9532 55.9581,13.7904 56.1925,13.4649 C56.4139,13.1394 56.5245,12.7162 56.5245,12.1954 C56.5245,11.5834 56.3618,11.056 56.0363,10.6133 C55.7107,10.1967 55.3592,9.89718 54.9816,9.71489 C54.604,9.54562 54.2264,9.46099 53.8488,9.46099 M54.5128,8.95317 C55.9191,8.95317 57.091,9.22661 58.0285,9.77349 C58.979,10.3204 59.4542,10.9649 59.4542,11.7071 C59.4542,12.5014 58.966,13.1524 57.9894,13.6602 C57.0128,14.1941 55.854,14.461 54.5128,14.461 C53.1326,14.461 51.9607,14.1875 50.9972,13.6407 C50.0337,13.0938 49.5519,12.4493 49.5519,11.7071 C49.5519,10.9128 50.0467,10.2618 51.0363,9.75395 C52.0128,9.2201 53.1717,8.95317 54.5128,8.95317"/>
<path class="" d="M53.8488,14.4613 C53.38,14.4613 53.0415,14.6241 52.8331,14.9496 C52.5988,15.2621 52.4816,15.6853 52.4816,16.2191 C52.4816,16.8311 52.6443,17.3584 52.9699,17.8011 C53.2954,18.2308 53.6535,18.5303 54.0441,18.6996 C54.3956,18.8689 54.7667,18.9535 55.1574,18.9535 C55.6131,18.9535 55.9581,18.7907 56.1925,18.4652 C56.4139,18.1397 56.5245,17.7165 56.5245,17.1957 C56.5245,16.5837 56.3618,16.0564 56.0363,15.6136 C55.7107,15.197 55.3592,14.8975 54.9816,14.7152 C54.604,14.5459 54.2264,14.4613 53.8488,14.4613 M54.5128,13.9535 C55.9191,13.9535 57.091,14.2269 58.0285,14.7738 C58.979,15.3207 59.4542,15.9652 59.4542,16.7074 C59.4542,17.5017 58.966,18.1527 57.9894,18.6605 C57.0128,19.1944 55.854,19.4613 54.5128,19.4613 C53.1326,19.4613 51.9607,19.1879 50.9972,18.641 C50.0337,18.0941 49.5519,17.4496 49.5519,16.7074 C49.5519,15.9131 50.0467,15.2621 51.0363,14.7543 C52.0128,14.2204 53.1717,13.9535 54.5128,13.9535"/>
<path class="" d="M53.8488,21.9618 C53.38,21.9618 53.0415,22.1245 52.8331,22.4501 C52.5988,22.7626 52.4816,23.1857 52.4816,23.7196 C52.4816,24.3316 52.6443,24.8589 52.9699,25.3016 C53.2954,25.7313 53.6535,26.0308 54.0441,26.2001 C54.3956,26.3693 54.7667,26.454 55.1574,26.454 C55.6131,26.454 55.9581,26.2912 56.1925,25.9657 C56.4139,25.6402 56.5245,25.217 56.5245,24.6961 C56.5245,24.0842 56.3618,23.5568 56.0363,23.1141 C55.7107,22.6975 55.3592,22.398 54.9816,22.2157 C54.604,22.0464 54.2264,21.9618 53.8488,21.9618 M54.5128,21.454 C55.9191,21.454 57.091,21.7274 58.0285,22.2743 C58.979,22.8211 59.4542,23.4657 59.4542,24.2079 C59.4542,25.0021 58.966,25.6532 57.9894,26.161 C57.0128,26.6948 55.854,26.9618 54.5128,26.9618 C53.1326,26.9618 51.9607,26.6883 50.9972,26.1415 C50.0337,25.5946 49.5519,24.9501 49.5519,24.2079 C49.5519,23.4136 50.0467,22.7626 51.0363,22.2547 C52.0128,21.7209 53.1717,21.454 54.5128,21.454"/>
<path class="" d="M11.3943,19.0907 C11.3943,19.0907 11.4334,19.0907 11.5115,19.0907 C11.5636,19.0777 11.6092,19.0711 11.6482,19.0711 C13.1066,19.0711 14.3045,19.5855 15.242,20.6141 C16.1795,21.6297 16.6482,22.8146 16.6482,24.1688 C16.6482,25.8485 15.9516,27.2157 14.5584,28.2704 C14.1938,28.5568 13.7186,28.7912 13.1326,28.9735 C13.1977,29.8198 13.2303,30.5034 13.2303,31.0243 C13.2303,31.1284 13.2173,31.506 13.1912,32.1571 C13.1391,33.368 12.7225,34.4162 11.9412,35.3016 C11.186,36.174 10.2485,36.6102 9.12871,36.6102 C8.07403,36.6102 7.17559,36.2391 6.4334,35.4969 C5.69121,34.7417 5.32012,33.8303 5.32012,32.7626 C5.32012,32.2027 5.53496,31.7274 5.96465,31.3368 C6.40736,30.9461 6.92168,30.7508 7.50762,30.7508 C8.02845,30.7508 8.46465,30.9527 8.81621,31.3563 C9.1808,31.7339 9.36309,32.2027 9.36309,32.7626 C9.36309,33.2704 9.1808,33.7066 8.81621,34.0711 C8.45163,34.4357 8.01543,34.618 7.50762,34.618 C7.29929,34.618 7.09746,34.579 6.90215,34.5008 C7.47507,35.3472 8.23679,35.7704 9.18731,35.7704 C10.0857,35.7704 10.8214,35.4058 11.3943,34.6766 C11.9933,33.9214 12.3188,33.0425 12.3709,32.0399 C12.3969,31.4149 12.41,31.0568 12.41,30.9657 C12.41,30.2365 12.3839,29.6376 12.3318,29.1688 C11.6808,29.273 11.1014,29.3251 10.5936,29.3251 C8.78366,29.3251 7.24069,28.6089 5.96465,27.1766 C4.71465,25.7313 4.08965,24.0126 4.08965,22.0204 C4.08965,21.6037 4.12871,21.1805 4.20684,20.7508 C4.28496,20.3993 4.38262,20.0152 4.49981,19.5985 C4.56491,19.3641 4.74069,18.9865 5.02715,18.4657 C5.13132,18.3094 5.24851,18.1141 5.37871,17.8797 C5.50892,17.6454 5.60007,17.4891 5.65215,17.411 C5.78236,17.1506 6.03627,16.799 6.41387,16.3563 C6.51804,16.2391 6.62546,16.1089 6.73614,15.9657 C6.84681,15.8225 6.94121,15.7053 7.01934,15.6141 C7.09746,15.523 7.15606,15.4514 7.19512,15.3993 C7.23418,15.3472 7.52715,15.0021 8.07403,14.3641 C8.20423,14.2339 8.33119,14.0939 8.45489,13.9442 C8.57858,13.7945 8.67949,13.6773 8.75762,13.5926 C8.83574,13.508 8.89434,13.4461 8.9334,13.4071 C8.46465,11.8576 8.17168,10.6206 8.05449,9.69615 C7.96335,8.95396 7.91778,7.93834 7.91778,6.64927 C7.91778,5.51646 8.17819,4.45526 8.69903,3.46568 C9.20684,2.43703 9.91647,1.59719 10.8279,0.946149 C10.893,0.907086 10.9581,0.887555 11.0232,0.887555 C11.1144,0.887555 11.1795,0.907086 11.2186,0.946149 C11.9217,1.7925 12.5272,2.89276 13.035,4.24693 C13.5558,5.6011 13.8162,6.83157 13.8162,7.93834 C13.8162,9.18834 13.5167,10.3602 12.9178,11.454 C12.2407,12.6128 11.3683,13.8107 10.3006,15.0477 C10.574,15.9071 10.9386,17.2547 11.3943,19.0907 M13.0545,28.1727 C13.7316,27.9253 14.2589,27.5021 14.6365,26.9032 C15.0532,26.3303 15.2615,25.6857 15.2615,24.9696 C15.2615,24.0451 14.949,23.2248 14.324,22.5086 C13.686,21.7665 12.8722,21.3498 11.8826,21.2586 C12.4425,24.006 12.8331,26.3107 13.0545,28.1727 M5.4959,23.661 C5.4959,24.9501 6.01673,26.0829 7.0584,27.0594 C8.12611,28.01 9.32403,28.4852 10.6522,28.4852 C11.199,28.4852 11.7329,28.4461 12.2537,28.368 C12.0454,26.3889 11.6352,24.0191 11.0232,21.2586 C10.2811,21.3368 9.68861,21.5972 9.2459,22.0399 C8.81621,22.4956 8.60137,23.01 8.60137,23.5829 C8.60137,24.5725 9.12871,25.3732 10.1834,25.9852 C10.2745,26.0764 10.3201,26.174 10.3201,26.2782 C10.3201,26.3823 10.2745,26.48 10.1834,26.5711 C10.1053,26.6623 10.0076,26.7079 9.89043,26.7079 C9.87741,26.7079 9.81882,26.6948 9.71465,26.6688 C8.97246,26.2652 8.39955,25.7443 7.9959,25.1063 C7.6183,24.4292 7.42949,23.7456 7.42949,23.0555 C7.42949,22.1571 7.70944,21.3433 8.26934,20.6141 C8.85528,19.885 9.61699,19.4162 10.5545,19.2079 C10.1899,17.7495 9.89043,16.6102 9.65606,15.7899 C9.44772,16.0243 9.19707,16.3075 8.9041,16.6395 C8.61114,16.9715 8.43861,17.1701 8.38653,17.2352 C7.91778,17.8472 7.5597,18.3225 7.31231,18.661 C6.8696,19.273 6.54408,19.8003 6.33574,20.243 C6.11439,20.7378 5.91908,21.2782 5.74981,21.8641 C5.58054,22.424 5.4959,23.023 5.4959,23.661 M12.0193,3.79771 C11.0428,4.27948 10.2745,4.96959 9.71465,5.86802 C9.14173,6.7925 8.85528,7.7886 8.85528,8.8563 C8.85528,9.7938 9.08965,11.0568 9.5584,12.6454 C10.4959,11.5126 11.199,10.4644 11.6678,9.50084 C12.1626,8.48521 12.41,7.42401 12.41,6.31724 C12.41,5.48391 12.2798,4.64407 12.0193,3.79771"/>
<path class="" d="M28.4558,22.9379 C28.4558,23.1853 28.3321,23.309 28.0847,23.309 C27.8373,23.309 27.7136,23.1853 27.7136,22.9379 L27.7136,20.0472 L26.0534,20.6722 L26.0534,23.8363 C26.0534,24.0837 25.9297,24.2074 25.6823,24.2074 C25.4349,24.2074 25.3112,24.0837 25.3112,23.8363 L25.3112,20.9261 L24.6862,21.1605 C24.6732,21.1735 24.6211,21.1801 24.53,21.1801 C24.4258,21.1801 24.3347,21.141 24.2565,21.0629 C24.1784,20.9847 24.1394,20.8936 24.1394,20.7894 L24.1394,19.5785 C24.1394,19.3832 24.224,19.2595 24.3933,19.2074 L25.3112,18.8949 L25.3112,15.6918 L24.6862,15.9066 C24.6732,15.9196 24.6211,15.9261 24.53,15.9261 C24.4258,15.9261 24.3347,15.8871 24.2565,15.809 C24.1784,15.7308 24.1394,15.6397 24.1394,15.5355 L24.1394,14.3246 C24.1394,14.1423 24.224,14.0251 24.3933,13.973 L25.3112,13.6215 L25.3112,10.4769 C25.3112,10.2295 25.4349,10.1058 25.6823,10.1058 C25.9297,10.1058 26.0534,10.2295 26.0534,10.4769 L26.0534,13.3676 L27.7136,12.7426 L27.7136,9.57849 C27.7136,9.33109 27.8373,9.20739 28.0847,9.20739 C28.3321,9.20739 28.4558,9.33109 28.4558,9.57849 L28.4558,12.4886 L29.1003,12.2543 C29.1133,12.2412 29.1589,12.2347 29.237,12.2347 C29.3282,12.2347 29.4258,12.2738 29.53,12.3519 C29.6081,12.4301 29.6472,12.5212 29.6472,12.6254 L29.6472,13.8363 C29.6472,14.0186 29.556,14.1423 29.3737,14.2074 L28.4558,14.5199 L28.4558,17.723 L29.1003,17.5082 C29.1133,17.4952 29.1589,17.4886 29.237,17.4886 C29.3282,17.4886 29.4258,17.5277 29.53,17.6058 C29.6081,17.684 29.6472,17.7751 29.6472,17.8793 L29.6472,19.0902 C29.6472,19.2595 29.556,19.3767 29.3737,19.4418 L28.4558,19.7933 L28.4558,22.9379 M27.7136,14.8129 L26.0534,15.3988 L26.0534,18.6019 L27.7136,18.016 L27.7136,14.8129 "/>
<path class="" d="M23.4554,15.4374 C23.4554,15.6848 23.3317,15.8085 23.0844,15.8085 C22.837,15.8085 22.7133,15.6848 22.7133,15.4374 L22.7133,12.5468 L21.0531,13.1718 L21.0531,16.3358 C21.0531,16.5832 20.9294,16.7069 20.682,16.7069 C20.4346,16.7069 20.3109,16.5832 20.3109,16.3358 L20.3109,13.4257 L19.6859,13.66 C19.6729,13.6731 19.6208,13.6796 19.5297,13.6796 C19.4255,13.6796 19.3344,13.6405 19.2562,13.5624 C19.1781,13.4843 19.139,13.3931 19.139,13.289 L19.139,12.078 C19.139,11.8827 19.2237,11.759 19.3929,11.7069 L20.3109,11.3944 L20.3109,8.1913 L19.6859,8.40614 C19.6729,8.41916 19.6208,8.42567 19.5297,8.42567 C19.4255,8.42567 19.3344,8.38661 19.2562,8.30848 C19.1781,8.23036 19.139,8.13921 19.139,8.03505 L19.139,6.82411 C19.139,6.64182 19.2237,6.52463 19.3929,6.47255 L20.3109,6.12098 L20.3109,2.97645 C20.3109,2.72906 20.4346,2.60536 20.682,2.60536 C20.9294,2.60536 21.0531,2.72906 21.0531,2.97645 L21.0531,5.86708 L22.7133,5.24208 L22.7133,2.07802 C22.7133,1.83062 22.837,1.70692 23.0844,1.70692 C23.3317,1.70692 23.4554,1.83062 23.4554,2.07802 L23.4554,4.98817 L24.1,4.7538 C24.113,4.74078 24.1586,4.73427 24.2367,4.73427 C24.3278,4.73427 24.4255,4.77333 24.5297,4.85145 C24.6078,4.92958 24.6469,5.02072 24.6469,5.12489 L24.6469,6.33583 C24.6469,6.51812 24.5557,6.64182 24.3734,6.70692 L23.4554,7.01942 L23.4554,10.2225 L24.1,10.0077 C24.113,9.99468 24.1586,9.98817 24.2367,9.98817 C24.3278,9.98817 24.4255,10.0272 24.5297,10.1054 C24.6078,10.1835 24.6469,10.2746 24.6469,10.3788 L24.6469,11.5897 C24.6469,11.759 24.5557,11.8762 24.3734,11.9413 L23.4554,12.2929 L23.4554,15.4374 M22.7133,7.31239 L21.0531,7.89833 L21.0531,11.1015 L22.7133,10.5155 L22.7133,7.31239 "/>
<path class="" d="M39.3352,18.6607 C38.9966,18.6607 38.6581,18.5305 38.3195,18.2701 C37.994,18.0227 37.8313,17.6581 37.8313,17.1763 C37.8313,16.7727 37.968,16.4146 38.2414,16.1021 C38.5018,15.7896 38.8469,15.6333 39.2766,15.6333 C39.4198,15.6333 39.511,15.6398 39.55,15.6529 C38.9511,14.8846 38.1503,14.4875 37.1477,14.4615 C36.3925,14.4615 35.8195,14.6763 35.4289,15.106 C35.2987,15.2753 35.1815,15.5487 35.0774,15.9263 C34.9732,16.3039 34.9211,16.6424 34.9211,16.9419 C34.8951,17.1503 34.882,17.5669 34.882,18.1919 L34.882,20.2232 C34.882,20.8482 34.8951,21.2714 34.9211,21.4927 C34.9732,22.3391 35.1425,22.9445 35.4289,23.3091 C35.8326,23.7518 36.4055,23.9732 37.1477,23.9732 C37.9289,23.9732 38.593,23.6867 39.1399,23.1138 C39.6998,22.5539 40.0904,21.8313 40.3117,20.9458 C40.3508,20.8156 40.4289,20.7505 40.5461,20.7505 C40.7154,20.7505 40.8,20.8286 40.8,20.9849 C40.8,21.076 40.761,21.2518 40.6828,21.5122 C40.5005,22.0982 40.1425,22.7167 39.6086,23.3677 C38.9706,24.0969 38.1503,24.4615 37.1477,24.4615 C36.5617,24.4615 35.9628,24.3768 35.3508,24.2076 C34.7518,23.9992 34.2245,23.7128 33.7688,23.3482 C33.261,22.9445 32.8638,22.3977 32.5774,21.7076 C32.2909,20.9523 32.1477,20.119 32.1477,19.2076 C32.1477,17.619 32.5774,16.356 33.4367,15.4185 C34.2701,14.4549 35.507,13.9732 37.1477,13.9732 C38.2154,13.9732 39.0617,14.3378 39.6867,15.0669 C40.3378,15.7961 40.6633,16.5188 40.6633,17.2349 C40.6633,17.6516 40.5331,17.9901 40.2727,18.2505 C40.0383,18.524 39.7258,18.6607 39.3352,18.6607"/>
</svg>
