<?xml version="1.0" encoding="UTF-8" standalone="no"?>
<svg width="156px" height="39px" viewBox="0 0 156 39"
 xmlns="http://www.w3.org/2000/svg" xmlns:xlink="http://www.w3.org/1999/xlink" version="1.2" baseProfile="tiny">
<title>db-c-ebm7</title>
<desc>Generated by MuseScore 2.0.3</desc>
<polyline class="" fill="none" stroke="#000000" stroke-width="0.40" stroke-linejoin="bevel" points="0.850387,9.20692 153.921,9.20692"/>
<polyline class="" fill="none" stroke="#000000" stroke-width="0.40" stroke-linejoin="bevel" points="0.850387,14.2072 153.921,14.2072"/>
<polyline class="" fill="none" stroke="#000000" stroke-width="0.40" stroke-linejoin="bevel" points="0.850387,19.2076 153.921,19.2076"/>
<polyline class="" fill="none" stroke="#000000" stroke-width="0.40" stroke-linejoin="bevel" points="0.850387,24.2079 153.921,24.2079"/>
<polyline class="" fill="none" stroke="#000000" stroke-width="0.40" stroke-linejoin="bevel" points="0.850387,29.2082 153.921,29.2082"/>
<polyline class="" fill="none" stroke="#000000" stroke-width="0.80" stroke-linejoin="bevel" points="153.521,9.20692 153.521,29.2082"/>
<path class="" d="M67.8934,11.9611 C67.4247,11.9611 67.0861,12.1239 66.8778,12.4494 C66.6434,12.7619 66.5262,13.1851 66.5262,13.719 C66.5262,14.3309 66.689,14.8583 67.0145,15.301 C67.34,15.7307 67.6981,16.0302 68.0887,16.1994 C68.4403,16.3687 68.8114,16.4533 69.202,16.4533 C69.6577,16.4533 70.0028,16.2906 70.2372,15.965 C70.4585,15.6395 70.5692,15.2164 70.5692,14.6955 C70.5692,14.0835 70.4064,13.5562 70.0809,13.1135 C69.7554,12.6968 69.4038,12.3973 69.0262,12.215 C68.6486,12.0458 68.271,11.9611 67.8934,11.9611 M68.5575,11.4533 C69.9637,11.4533 71.1356,11.7268 72.0731,12.2736 C73.0236,12.8205 73.4989,13.465 73.4989,14.2072 C73.4989,15.0015 73.0106,15.6525 72.034,16.1604 C71.0575,16.6942 69.8986,16.9611 68.5575,16.9611 C67.1773,16.9611 66.0054,16.6877 65.0418,16.1408 C64.0783,15.594 63.5965,14.9494 63.5965,14.2072 C63.5965,13.413 64.0913,12.7619 65.0809,12.2541 C66.0575,11.7203 67.2163,11.4533 68.5575,11.4533"/>
<path class="" d="M67.8934,16.9615 C67.4247,16.9615 67.0861,17.1242 66.8778,17.4497 C66.6434,17.7622 66.5262,18.1854 66.5262,18.7193 C66.5262,19.3313 66.689,19.8586 67.0145,20.3013 C67.34,20.731 67.6981,21.0305 68.0887,21.1997 C68.4403,21.369 68.8114,21.4536 69.202,21.4536 C69.6577,21.4536 70.0028,21.2909 70.2372,20.9654 C70.4585,20.6398 70.5692,20.2167 70.5692,19.6958 C70.5692,19.0839 70.4064,18.5565 70.0809,18.1138 C69.7554,17.6971 69.4038,17.3977 69.0262,17.2154 C68.6486,17.0461 68.271,16.9615 67.8934,16.9615 M68.5575,16.4536 C69.9637,16.4536 71.1356,16.7271 72.0731,17.274 C73.0236,17.8208 73.4989,18.4654 73.4989,19.2076 C73.4989,20.0018 73.0106,20.6529 72.034,21.1607 C71.0575,21.6945 69.8986,21.9615 68.5575,21.9615 C67.1773,21.9615 66.0054,21.688 65.0418,21.1411 C64.0783,20.5943 63.5965,19.9497 63.5965,19.2076 C63.5965,18.4133 64.0913,17.7622 65.0809,17.2544 C66.0575,16.7206 67.2163,16.4536 68.5575,16.4536"/>
<path class="" d="M67.8934,21.9618 C67.4247,21.9618 67.0861,22.1245 66.8778,22.4501 C66.6434,22.7626 66.5262,23.1857 66.5262,23.7196 C66.5262,24.3316 66.689,24.8589 67.0145,25.3016 C67.34,25.7313 67.6981,26.0308 68.0887,26.2001 C68.4403,26.3693 68.8114,26.454 69.202,26.454 C69.6577,26.454 70.0028,26.2912 70.2372,25.9657 C70.4585,25.6402 70.5692,25.217 70.5692,24.6961 C70.5692,24.0842 70.4064,23.5568 70.0809,23.1141 C69.7554,22.6975 69.4038,22.398 69.0262,22.2157 C68.6486,22.0464 68.271,21.9618 67.8934,21.9618 M68.5575,21.454 C69.9637,21.454 71.1356,21.7274 72.0731,22.2743 C73.0236,22.8211 73.4989,23.4657 73.4989,24.2079 C73.4989,25.0021 73.0106,25.6532 72.034,26.161 C71.0575,26.6948 69.8986,26.9618 68.5575,26.9618 C67.1773,26.9618 66.0054,26.6883 65.0418,26.1415 C64.0783,25.5946 63.5965,24.9501 63.5965,24.2079 C63.5965,23.4136 64.0913,22.7626 65.0809,22.2547 C66.0575,21.7209 67.2163,21.454 68.5575,21.454"/>
<path class="" d="M11.3943,19.0907 C11.3943,19.0907 11.4334,19.0907 11.5115,19.0907 C11.5636,19.0777 11.6092,19.0711 11.6482,19.0711 C13.1066,19.0711 14.3045,19.5855 15.242,20.6141 C16.1795,21.6297 16.6482,22.8146 16.6482,24.1688 C16.6482,25.8485 15.9516,27.2157 14.5584,28.2704 C14.1938,28.5568 13.7186,28.7912 13.1326,28.9735 C13.1977,29.8198 13.2303,30.5034 13.2303,31.0243 C13.2303,31.1284 13.2173,31.506 13.1912,32.1571 C13.1391,33.368 12.7225,34.4162 11.9412,35.3016 C11.186,36.174 10.2485,36.6102 9.12871,36.6102 C8.07403,36.6102 7.17559,36.2391 6.4334,35.4969 C5.69121,34.7417 5.32012,33.8303 5.32012,32.7626 C5.32012,32.2027 5.53496,31.7274 5.96465,31.3368 C6.40736,30.9461 6.92168,30.7508 7.50762,30.7508 C8.02845,30.7508 8.46465,30.9527 8.81621,31.3563 C9.1808,31.7339 9.36309,32.2027 9.36309,32.7626 C9.36309,33.2704 9.1808,33.7066 8.81621,34.0711 C8.45163,34.4357 8.01543,34.618 7.50762,34.618 C7.29929,34.618 7.09746,34.579 6.90215,34.5008 C7.47507,35.3472 8.23679,35.7704 9.18731,35.7704 C10.0857,35.7704 10.8214,35.4058 11.3943,34.6766 C11.9933,33.9214 12.3188,33.0425 12.3709,32.0399 C12.3969,31.4149 12.41,31.0568 12.41,30.9657 C12.41,30.2365 12.3839,29.6376 12.3318,29.1688 C11.6808,29.273 11.1014,29.3251 10.5936,29.3251 C8.78366,29.3251 7.24069,28.6089 5.96465,27.1766 C4.71465,25.7313 4.08965,24.0126 4.08965,22.0204 C4.08965,21.6037 4.12871,21.1805 4.20684,20.7508 C4.28496,20.3993 4.38262,20.0152 4.49981,19.5985 C4.56491,19.3641 4.74069,18.9865 5.02715,18.4657 C5.13132,18.3094 5.24851,18.1141 5.37871,17.8797 C5.50892,17.6454 5.60007,17.4891 5.65215,17.411 C5.78236,17.1506 6.03627,16.799 6.41387,16.3563 C6.51804,16.2391 6.62546,16.1089 6.73614,15.9657 C6.84681,15.8225 6.94121,15.7053 7.01934,15.6141 C7.09746,15.523 7.15606,15.4514 7.19512,15.3993 C7.23418,15.3472 7.52715,15.0021 8.07403,14.3641 C8.20423,14.2339 8.33119,14.0939 8.45489,13.9442 C8.57858,13.7945 8.67949,13.6773 8.75762,13.5926 C8.83574,13.508 8.89434,13.4461 8.9334,13.4071 C8.46465,11.8576 8.17168,10.6206 8.05449,9.69615 C7.96335,8.95396 7.91778,7.93834 7.91778,6.64927 C7.91778,5.51646 8.17819,4.45526 8.69903,3.46568 C9.20684,2.43703 9.91647,1.59719 10.8279,0.946149 C10.893,0.907086 10.9581,0.887555 11.0232,0.887555 C11.1144,0.887555 11.1795,0.907086 11.2186,0.946149 C11.9217,1.7925 12.5272,2.89276 13.035,4.24693 C13.5558,5.6011 13.8162,6.83157 13.8162,7.93834 C13.8162,9.18834 13.5167,10.3602 12.9178,11.454 C12.2407,12.6128 11.3683,13.8107 10.3006,15.0477 C10.574,15.9071 10.9386,17.2547 11.3943,19.0907 M13.0545,28.1727 C13.7316,27.9253 14.2589,27.5021 14.6365,26.9032 C15.0532,26.3303 15.2615,25.6857 15.2615,24.9696 C15.2615,24.0451 14.949,23.2248 14.324,22.5086 C13.686,21.7665 12.8722,21.3498 11.8826,21.2586 C12.4425,24.006 12.8331,26.3107 13.0545,28.1727 M5.4959,23.661 C5.4959,24.9501 6.01673,26.0829 7.0584,27.0594 C8.12611,28.01 9.32403,28.4852 10.6522,28.4852 C11.199,28.4852 11.7329,28.4461 12.2537,28.368 C12.0454,26.3889 11.6352,24.0191 11.0232,21.2586 C10.2811,21.3368 9.68861,21.5972 9.2459,22.0399 C8.81621,22.4956 8.60137,23.01 8.60137,23.5829 C8.60137,24.5725 9.12871,25.3732 10.1834,25.9852 C10.2745,26.0764 10.3201,26.174 10.3201,26.2782 C10.3201,26.3823 10.2745,26.48 10.1834,26.5711 C10.1053,26.6623 10.0076,26.7079 9.89043,26.7079 C9.87741,26.7079 9.81882,26.6948 9.71465,26.6688 C8.97246,26.2652 8.39955,25.7443 7.9959,25.1063 C7.6183,24.4292 7.42949,23.7456 7.42949,23.0555 C7.42949,22.1571 7.70944,21.3433 8.26934,20.6141 C8.85528,19.885 9.61699,19.4162 10.5545,19.2079 C10.1899,17.7495 9.89043,16.6102 9.65606,15.7899 C9.44772,16.0243 9.19707,16.3075 8.9041,16.6395 C8.61114,16.9715 8.43861,17.1701 8.38653,17.2352 C7.91778,17.8472 7.5597,18.3225 7.31231,18.661 C6.8696,19.273 6.54408,19.8003 6.33574,20.243 C6.11439,20.7378 5.91908,21.2782 5.74981,21.8641 C5.58054,22.424 5.4959,23.023 5.4959,23.661 M12.0193,3.79771 C11.0428,4.27948 10.2745,4.96959 9.71465,5.86802 C9.14173,6.7925 8.85528,7.7886 8.85528,8.8563 C8.85528,9.7938 9.08965,11.0568 9.5584,12.6454 C10.4959,11.5126 11.199,10.4644 11.6678,9.50084 C12.1626,8.48521 12.41,7.42401 12.41,6.31724 C12.41,5.48391 12.2798,4.64407 12.0193,3.79771"/>
<path class="" d="M40.1755,23.3876 L40.1755,24.9305 C40.1755,25.4774 40.2015,25.9136 40.2536,26.2391 C40.6833,25.8745 40.9893,25.6011 41.1716,25.4188 C41.3799,25.2105 41.5882,24.924 41.7966,24.5594 C42.0049,24.1948 42.1091,23.8303 42.1091,23.4657 C42.1091,23.1011 42.0309,22.7886 41.8747,22.5282 C41.7184,22.2678 41.5101,22.1376 41.2497,22.1376 C40.9372,22.1376 40.6768,22.2547 40.4684,22.4891 C40.2731,22.7495 40.1755,23.049 40.1755,23.3876 M39.3551,26.9618 L39.1012,15.0672 C39.2835,14.9631 39.4658,14.911 39.6481,14.911 C39.8304,14.911 40.0127,14.9631 40.195,15.0672 L40.0387,21.9618 C40.5726,21.506 41.1846,21.2782 41.8747,21.2782 C42.3825,21.2782 42.8057,21.4865 43.1442,21.9032 C43.4828,22.3198 43.652,22.7951 43.652,23.329 C43.652,23.6675 43.5413,24.0256 43.32,24.4032 C43.1117,24.7547 42.8903,25.0282 42.6559,25.2235 C42.5257,25.3277 42.1937,25.5881 41.6598,26.0047 C41.5036,26.1219 41.318,26.2586 41.1032,26.4149 C40.8884,26.5711 40.7549,26.6688 40.7028,26.7079 C40.6117,26.76 40.527,26.8641 40.4489,27.0204 C40.3578,27.1506 40.2536,27.2613 40.1364,27.3524 C40.0453,27.4305 39.9346,27.4696 39.8044,27.4696 C39.6742,27.4696 39.57,27.424 39.4919,27.3329 C39.4007,27.2417 39.3551,27.118 39.3551,26.9618"/>
<path class="" d="M35.1751,13.3869 L35.1751,14.9299 C35.1751,15.4768 35.2012,15.913 35.2533,16.2385 C35.683,15.8739 35.9889,15.6005 36.1712,15.4182 C36.3796,15.2098 36.5879,14.9234 36.7962,14.5588 C37.0046,14.1942 37.1087,13.8296 37.1087,13.465 C37.1087,13.1005 37.0306,12.788 36.8744,12.5275 C36.7181,12.2671 36.5098,12.1369 36.2494,12.1369 C35.9369,12.1369 35.6764,12.2541 35.4681,12.4885 C35.2728,12.7489 35.1751,13.0484 35.1751,13.3869 M34.3548,16.9611 L34.1009,5.06661 C34.2832,4.96245 34.4655,4.91036 34.6478,4.91036 C34.8301,4.91036 35.0124,4.96245 35.1947,5.06661 L35.0384,11.9611 C35.5723,11.5054 36.1843,11.2775 36.8744,11.2775 C37.3822,11.2775 37.8054,11.4859 38.1439,11.9025 C38.4824,12.3192 38.6517,12.7945 38.6517,13.3283 C38.6517,13.6669 38.541,14.0249 38.3197,14.4025 C38.1113,14.7541 37.89,15.0275 37.6556,15.2229 C37.5254,15.327 37.1934,15.5874 36.6595,16.0041 C36.5033,16.1213 36.3177,16.258 36.1029,16.4143 C35.888,16.5705 35.7546,16.6682 35.7025,16.7072 C35.6113,16.7593 35.5267,16.8635 35.4486,17.0197 C35.3574,17.1499 35.2533,17.2606 35.1361,17.3518 C35.0449,17.4299 34.9343,17.469 34.8041,17.469 C34.6738,17.469 34.5697,17.4234 34.4916,17.3322 C34.4004,17.2411 34.3548,17.1174 34.3548,16.9611"/>
<path class="" d="M30.1748,20.8874 L30.1748,22.4304 C30.1748,22.9772 30.2009,23.4134 30.253,23.739 C30.6826,23.3744 30.9886,23.1009 31.1709,22.9186 C31.3793,22.7103 31.5876,22.4239 31.7959,22.0593 C32.0043,21.6947 32.1084,21.3301 32.1084,20.9655 C32.1084,20.6009 32.0303,20.2884 31.8741,20.028 C31.7178,19.7676 31.5095,19.6374 31.2491,19.6374 C30.9366,19.6374 30.6761,19.7546 30.4678,19.989 C30.2725,20.2494 30.1748,20.5489 30.1748,20.8874 M29.3545,24.4616 L29.1006,12.5671 C29.2829,12.4629 29.4652,12.4108 29.6475,12.4108 C29.8298,12.4108 30.0121,12.4629 30.1944,12.5671 L30.0381,19.4616 C30.572,19.0059 31.1839,18.778 31.8741,18.778 C32.3819,18.778 32.805,18.9864 33.1436,19.403 C33.4821,19.8197 33.6514,20.2949 33.6514,20.8288 C33.6514,21.1673 33.5407,21.5254 33.3194,21.903 C33.111,22.2546 32.8897,22.528 32.6553,22.7233 C32.5251,22.8275 32.1931,23.0879 31.6592,23.5046 C31.503,23.6218 31.3174,23.7585 31.1026,23.9147 C30.8877,24.071 30.7543,24.1686 30.7022,24.2077 C30.611,24.2598 30.5264,24.364 30.4483,24.5202 C30.3571,24.6504 30.253,24.7611 30.1358,24.8522 C30.0446,24.9304 29.9339,24.9694 29.8037,24.9694 C29.6735,24.9694 29.5694,24.9239 29.4912,24.8327 C29.4001,24.7416 29.3545,24.6179 29.3545,24.4616"/>
<path class="" d="M25.1745,10.8868 L25.1745,12.4297 C25.1745,12.9766 25.2006,13.4128 25.2526,13.7383 C25.6823,13.3737 25.9883,13.1003 26.1706,12.918 C26.3789,12.7097 26.5873,12.4232 26.7956,12.0586 C27.0039,11.6941 27.1081,11.3295 27.1081,10.9649 C27.1081,10.6003 27.03,10.2878 26.8737,10.0274 C26.7175,9.76698 26.5092,9.63677 26.2487,9.63677 C25.9362,9.63677 25.6758,9.75395 25.4675,9.98833 C25.2722,10.2487 25.1745,10.5482 25.1745,10.8868 M24.3542,14.461 L24.1003,2.56645 C24.2826,2.46229 24.4649,2.4102 24.6472,2.4102 C24.8295,2.4102 25.0118,2.46229 25.194,2.56645 L25.0378,9.46099 C25.5717,9.00526 26.1836,8.77739 26.8737,8.77739 C27.3815,8.77739 27.8047,8.98573 28.1433,9.40239 C28.4818,9.81906 28.6511,10.2943 28.6511,10.8282 C28.6511,11.1667 28.5404,11.5248 28.319,11.9024 C28.1107,12.254 27.8894,12.5274 27.655,12.7227 C27.5248,12.8269 27.1927,13.0873 26.6589,13.504 C26.5026,13.6211 26.3171,13.7579 26.1023,13.9141 C25.8874,14.0704 25.7539,14.168 25.7019,14.2071 C25.6107,14.2592 25.5261,14.3633 25.448,14.5196 C25.3568,14.6498 25.2526,14.7605 25.1355,14.8516 C25.0443,14.9297 24.9336,14.9688 24.8034,14.9688 C24.6732,14.9688 24.569,14.9232 24.4909,14.8321 C24.3998,14.7409 24.3542,14.6172 24.3542,14.461"/>
<path class="" d="M20.1742,18.3872 L20.1742,19.9302 C20.1742,20.4771 20.2002,20.9133 20.2523,21.2388 C20.682,20.8742 20.988,20.6008 21.1703,20.4185 C21.3786,20.2102 21.587,19.9237 21.7953,19.5591 C22.0036,19.1945 22.1078,18.8299 22.1078,18.4654 C22.1078,18.1008 22.0297,17.7883 21.8734,17.5279 C21.7172,17.2674 21.5088,17.1372 21.2484,17.1372 C20.9359,17.1372 20.6755,17.2544 20.4672,17.4888 C20.2719,17.7492 20.1742,18.0487 20.1742,18.3872 M19.3539,21.9615 L19.1,10.0669 C19.2823,9.96276 19.4646,9.91068 19.6469,9.91068 C19.8292,9.91068 20.0114,9.96276 20.1937,10.0669 L20.0375,16.9615 C20.5713,16.5057 21.1833,16.2779 21.8734,16.2779 C22.3812,16.2779 22.8044,16.4862 23.143,16.9029 C23.4815,17.3195 23.6508,17.7948 23.6508,18.3286 C23.6508,18.6672 23.5401,19.0253 23.3187,19.4029 C23.1104,19.7544 22.889,20.0279 22.6547,20.2232 C22.5245,20.3273 22.1924,20.5878 21.6586,21.0044 C21.5023,21.1216 21.3168,21.2583 21.1019,21.4146 C20.8871,21.5708 20.7536,21.6685 20.7015,21.7076 C20.6104,21.7596 20.5258,21.8638 20.4476,22.0201 C20.3565,22.1503 20.2523,22.2609 20.1351,22.3521 C20.044,22.4302 19.9333,22.4693 19.8031,22.4693 C19.6729,22.4693 19.5687,22.4237 19.4906,22.3326 C19.3995,22.2414 19.3539,22.1177 19.3539,21.9615"/>
<path class="" d="M53.3798,18.6607 C53.0413,18.6607 52.7027,18.5305 52.3642,18.2701 C52.0387,18.0227 51.8759,17.6581 51.8759,17.1763 C51.8759,16.7727 52.0126,16.4146 52.2861,16.1021 C52.5465,15.7896 52.8915,15.6333 53.3212,15.6333 C53.4644,15.6333 53.5556,15.6398 53.5946,15.6529 C52.9957,14.8846 52.1949,14.4875 51.1923,14.4615 C50.4371,14.4615 49.8642,14.6763 49.4736,15.106 C49.3433,15.2753 49.2262,15.5487 49.122,15.9263 C49.0178,16.3039 48.9657,16.6424 48.9657,16.9419 C48.9397,17.1503 48.9267,17.5669 48.9267,18.1919 L48.9267,20.2232 C48.9267,20.8482 48.9397,21.2714 48.9657,21.4927 C49.0178,22.3391 49.1871,22.9445 49.4736,23.3091 C49.8772,23.7518 50.4501,23.9732 51.1923,23.9732 C51.9736,23.9732 52.6376,23.6867 53.1845,23.1138 C53.7444,22.5539 54.135,21.8313 54.3564,20.9458 C54.3954,20.8156 54.4736,20.7505 54.5907,20.7505 C54.76,20.7505 54.8446,20.8286 54.8446,20.9849 C54.8446,21.076 54.8056,21.2518 54.7275,21.5122 C54.5452,22.0982 54.1871,22.7167 53.6532,23.3677 C53.0152,24.0969 52.1949,24.4615 51.1923,24.4615 C50.6064,24.4615 50.0074,24.3768 49.3954,24.2076 C48.7965,23.9992 48.2691,23.7128 47.8134,23.3482 C47.3056,22.9445 46.9085,22.3977 46.622,21.7076 C46.3355,20.9523 46.1923,20.119 46.1923,19.2076 C46.1923,17.619 46.622,16.356 47.4814,15.4185 C48.3147,14.4549 49.5517,13.9732 51.1923,13.9732 C52.26,13.9732 53.1064,14.3378 53.7314,15.0669 C54.3824,15.7961 54.7079,16.5188 54.7079,17.2349 C54.7079,17.6516 54.5777,17.9901 54.3173,18.2505 C54.0829,18.524 53.7704,18.6607 53.3798,18.6607"/>
</svg>
