<?xml version="1.0" encoding="UTF-8" standalone="no"?>
<svg width="156px" height="42px" viewBox="0 0 156 42"
 xmlns="http://www.w3.org/2000/svg" xmlns:xlink="http://www.w3.org/1999/xlink" version="1.2" baseProfile="tiny">
<title>e-c-f#m7</title>
<desc>Generated by MuseScore 2.0.3</desc>
<polyline class="" fill="none" stroke="#000000" stroke-width="0.40" stroke-linejoin="bevel" points="0.850387,12.0416 153.921,12.0416"/>
<polyline class="" fill="none" stroke="#000000" stroke-width="0.40" stroke-linejoin="bevel" points="0.850387,17.0419 153.921,17.0419"/>
<polyline class="" fill="none" stroke="#000000" stroke-width="0.40" stroke-linejoin="bevel" points="0.850387,22.0422 153.921,22.0422"/>
<polyline class="" fill="none" stroke="#000000" stroke-width="0.40" stroke-linejoin="bevel" points="0.850387,27.0425 153.921,27.0425"/>
<polyline class="" fill="none" stroke="#000000" stroke-width="0.40" stroke-linejoin="bevel" points="0.850387,32.0428 153.921,32.0428"/>
<polyline class="" fill="none" stroke="#000000" stroke-width="0.80" stroke-linejoin="bevel" points="153.521,12.0416 153.521,32.0428"/>
<path class="" d="M63.8494,12.2956 C63.3806,12.2956 63.0421,12.4584 62.8338,12.7839 C62.5994,13.0964 62.4822,13.5196 62.4822,14.0534 C62.4822,14.6654 62.645,15.1928 62.9705,15.6355 C63.296,16.0652 63.6541,16.3646 64.0447,16.5339 C64.3963,16.7032 64.7674,16.7878 65.158,16.7878 C65.6137,16.7878 65.9588,16.6251 66.1931,16.2995 C66.4145,15.974 66.5252,15.5508 66.5252,15.03 C66.5252,14.418 66.3624,13.8907 66.0369,13.448 C65.7114,13.0313 65.3598,12.7318 64.9822,12.5495 C64.6046,12.3803 64.227,12.2956 63.8494,12.2956 M64.5135,11.7878 C65.9197,11.7878 67.0916,12.0613 68.0291,12.6081 C68.9796,13.155 69.4549,13.7995 69.4549,14.5417 C69.4549,15.336 68.9666,15.987 67.99,16.4949 C67.0135,17.0287 65.8546,17.2956 64.5135,17.2956 C63.1333,17.2956 61.9614,17.0222 60.9978,16.4753 C60.0343,15.9284 59.5525,15.2839 59.5525,14.5417 C59.5525,13.7475 60.0473,13.0964 61.0369,12.5886 C62.0135,12.0547 63.1723,11.7878 64.5135,11.7878"/>
<path class="" d="M63.8494,17.2959 C63.3806,17.2959 63.0421,17.4587 62.8338,17.7842 C62.5994,18.0967 62.4822,18.5199 62.4822,19.0538 C62.4822,19.6657 62.645,20.1931 62.9705,20.6358 C63.296,21.0655 63.6541,21.365 64.0447,21.5342 C64.3963,21.7035 64.7674,21.7881 65.158,21.7881 C65.6137,21.7881 65.9588,21.6254 66.1931,21.2999 C66.4145,20.9743 66.5252,20.5512 66.5252,20.0303 C66.5252,19.4183 66.3624,18.891 66.0369,18.4483 C65.7114,18.0316 65.3598,17.7321 64.9822,17.5499 C64.6046,17.3806 64.227,17.2959 63.8494,17.2959 M64.5135,16.7881 C65.9197,16.7881 67.0916,17.0616 68.0291,17.6084 C68.9796,18.1553 69.4549,18.7999 69.4549,19.542 C69.4549,20.3363 68.9666,20.9874 67.99,21.4952 C67.0135,22.029 65.8546,22.2959 64.5135,22.2959 C63.1333,22.2959 61.9614,22.0225 60.9978,21.4756 C60.0343,20.9288 59.5525,20.2842 59.5525,19.542 C59.5525,18.7478 60.0473,18.0967 61.0369,17.5889 C62.0135,17.0551 63.1723,16.7881 64.5135,16.7881"/>
<path class="" d="M63.8494,22.2963 C63.3806,22.2963 63.0421,22.459 62.8338,22.7845 C62.5994,23.097 62.4822,23.5202 62.4822,24.0541 C62.4822,24.6661 62.645,25.1934 62.9705,25.6361 C63.296,26.0658 63.6541,26.3653 64.0447,26.5345 C64.3963,26.7038 64.7674,26.7884 65.158,26.7884 C65.6137,26.7884 65.9588,26.6257 66.1931,26.3002 C66.4145,25.9746 66.5252,25.5515 66.5252,25.0306 C66.5252,24.4187 66.3624,23.8913 66.0369,23.4486 C65.7114,23.0319 65.3598,22.7325 64.9822,22.5502 C64.6046,22.3809 64.227,22.2963 63.8494,22.2963 M64.5135,21.7884 C65.9197,21.7884 67.0916,22.0619 68.0291,22.6088 C68.9796,23.1556 69.4549,23.8002 69.4549,24.5424 C69.4549,25.3366 68.9666,25.9877 67.99,26.4955 C67.0135,27.0293 65.8546,27.2963 64.5135,27.2963 C63.1333,27.2963 61.9614,27.0228 60.9978,26.4759 C60.0343,25.9291 59.5525,25.2845 59.5525,24.5424 C59.5525,23.7481 60.0473,23.097 61.0369,22.5892 C62.0135,22.0554 63.1723,21.7884 64.5135,21.7884"/>
<path class="" d="M11.3943,21.9253 C11.3943,21.9253 11.4334,21.9253 11.5115,21.9253 C11.5636,21.9123 11.6092,21.9058 11.6482,21.9058 C13.1066,21.9058 14.3045,22.4201 15.242,23.4488 C16.1795,24.4644 16.6482,25.6493 16.6482,27.0035 C16.6482,28.6831 15.9516,30.0503 14.5584,31.105 C14.1938,31.3915 13.7186,31.6258 13.1326,31.8081 C13.1977,32.6545 13.2303,33.3381 13.2303,33.8589 C13.2303,33.9631 13.2173,34.3407 13.1912,34.9917 C13.1391,36.2027 12.7225,37.2508 11.9412,38.1363 C11.186,39.0087 10.2485,39.4449 9.12871,39.4449 C8.07403,39.4449 7.17559,39.0738 6.4334,38.3316 C5.69121,37.5764 5.32012,36.6649 5.32012,35.5972 C5.32012,35.0373 5.53496,34.562 5.96465,34.1714 C6.40736,33.7808 6.92168,33.5855 7.50762,33.5855 C8.02845,33.5855 8.46465,33.7873 8.81621,34.191 C9.1808,34.5686 9.36309,35.0373 9.36309,35.5972 C9.36309,36.105 9.1808,36.5412 8.81621,36.9058 C8.45163,37.2704 8.01543,37.4527 7.50762,37.4527 C7.29929,37.4527 7.09746,37.4136 6.90215,37.3355 C7.47507,38.1818 8.23679,38.605 9.18731,38.605 C10.0857,38.605 10.8214,38.2404 11.3943,37.5113 C11.9933,36.7561 12.3188,35.8771 12.3709,34.8745 C12.3969,34.2495 12.41,33.8915 12.41,33.8003 C12.41,33.0712 12.3839,32.4722 12.3318,32.0035 C11.6808,32.1076 11.1014,32.1597 10.5936,32.1597 C8.78366,32.1597 7.24069,31.4436 5.96465,30.0113 C4.71465,28.566 4.08965,26.8472 4.08965,24.855 C4.08965,24.4383 4.12871,24.0152 4.20684,23.5855 C4.28496,23.2339 4.38262,22.8498 4.49981,22.4331 C4.56491,22.1988 4.74069,21.8212 5.02715,21.3003 C5.13132,21.1441 5.24851,20.9488 5.37871,20.7144 C5.50892,20.48 5.60007,20.3238 5.65215,20.2456 C5.78236,19.9852 6.03627,19.6337 6.41387,19.191 C6.51804,19.0738 6.62546,18.9436 6.73614,18.8003 C6.84681,18.6571 6.94121,18.5399 7.01934,18.4488 C7.09746,18.3576 7.15606,18.286 7.19512,18.2339 C7.23418,18.1818 7.52715,17.8368 8.07403,17.1988 C8.20423,17.0686 8.33119,16.9286 8.45489,16.7788 C8.57858,16.6291 8.67949,16.5119 8.75762,16.4273 C8.83574,16.3426 8.89434,16.2808 8.9334,16.2417 C8.46465,14.6923 8.17168,13.4553 8.05449,12.5308 C7.96335,11.7886 7.91778,10.773 7.91778,9.48392 C7.91778,8.35111 8.17819,7.28991 8.69903,6.30033 C9.20684,5.27168 9.91647,4.43184 10.8279,3.78079 C10.893,3.74173 10.9581,3.7222 11.0232,3.7222 C11.1144,3.7222 11.1795,3.74173 11.2186,3.78079 C11.9217,4.62715 12.5272,5.72741 13.035,7.08158 C13.5558,8.43574 13.8162,9.66621 13.8162,10.773 C13.8162,12.023 13.5167,13.1949 12.9178,14.2886 C12.2407,15.4475 11.3683,16.6454 10.3006,17.8824 C10.574,18.7417 10.9386,20.0894 11.3943,21.9253 M13.0545,31.0074 C13.7316,30.76 14.2589,30.3368 14.6365,29.7378 C15.0532,29.1649 15.2615,28.5204 15.2615,27.8042 C15.2615,26.8798 14.949,26.0594 14.324,25.3433 C13.686,24.6011 12.8722,24.1844 11.8826,24.0933 C12.4425,26.8407 12.8331,29.1454 13.0545,31.0074 M5.4959,26.4956 C5.4959,27.7847 6.01673,28.9175 7.0584,29.8941 C8.12611,30.8446 9.32403,31.3199 10.6522,31.3199 C11.199,31.3199 11.7329,31.2808 12.2537,31.2027 C12.0454,29.2235 11.6352,26.8537 11.0232,24.0933 C10.2811,24.1714 9.68861,24.4318 9.2459,24.8745 C8.81621,25.3303 8.60137,25.8446 8.60137,26.4175 C8.60137,27.4071 9.12871,28.2079 10.1834,28.8199 C10.2745,28.911 10.3201,29.0087 10.3201,29.1128 C10.3201,29.217 10.2745,29.3146 10.1834,29.4058 C10.1053,29.4969 10.0076,29.5425 9.89043,29.5425 C9.87741,29.5425 9.81882,29.5295 9.71465,29.5035 C8.97246,29.0998 8.39955,28.579 7.9959,27.941 C7.6183,27.2639 7.42949,26.5803 7.42949,25.8902 C7.42949,24.9917 7.70944,24.1779 8.26934,23.4488 C8.85528,22.7196 9.61699,22.2508 10.5545,22.0425 C10.1899,20.5842 9.89043,19.4449 9.65606,18.6245 C9.44772,18.8589 9.19707,19.1421 8.9041,19.4742 C8.61114,19.8062 8.43861,20.0048 8.38653,20.0699 C7.91778,20.6818 7.5597,21.1571 7.31231,21.4956 C6.8696,22.1076 6.54408,22.635 6.33574,23.0777 C6.11439,23.5725 5.91908,24.1128 5.74981,24.6988 C5.58054,25.2587 5.4959,25.8576 5.4959,26.4956 M12.0193,6.63236 C11.0428,7.11413 10.2745,7.80423 9.71465,8.70267 C9.14173,9.62715 8.85528,10.6232 8.85528,11.691 C8.85528,12.6285 9.08965,13.8915 9.5584,15.48 C10.4959,14.3472 11.199,13.299 11.6678,12.3355 C12.1626,11.3199 12.41,10.2587 12.41,9.15189 C12.41,8.31855 12.2798,7.47871 12.0193,6.63236"/>
<path class="" d="M38.4564,23.2724 C38.4564,23.5197 38.3327,23.6434 38.0853,23.6434 C37.8379,23.6434 37.7142,23.5197 37.7142,23.2724 L37.7142,20.3817 L36.054,21.0067 L36.054,24.1708 C36.054,24.4182 35.9303,24.5419 35.683,24.5419 C35.4356,24.5419 35.3119,24.4182 35.3119,24.1708 L35.3119,21.2606 L34.6869,21.495 C34.6738,21.508 34.6218,21.5145 34.5306,21.5145 C34.4264,21.5145 34.3353,21.4755 34.2572,21.3974 C34.179,21.3192 34.14,21.2281 34.14,21.1239 L34.14,19.913 C34.14,19.7177 34.2246,19.594 34.3939,19.5419 L35.3119,19.2294 L35.3119,16.0263 L34.6869,16.2411 C34.6738,16.2541 34.6218,16.2606 34.5306,16.2606 C34.4264,16.2606 34.3353,16.2216 34.2572,16.1434 C34.179,16.0653 34.14,15.9742 34.14,15.87 L34.14,14.6591 C34.14,14.4768 34.2246,14.3596 34.3939,14.3075 L35.3119,13.9559 L35.3119,10.8114 C35.3119,10.564 35.4356,10.4403 35.683,10.4403 C35.9303,10.4403 36.054,10.564 36.054,10.8114 L36.054,13.702 L37.7142,13.077 L37.7142,9.91298 C37.7142,9.66558 37.8379,9.54188 38.0853,9.54188 C38.3327,9.54188 38.4564,9.66558 38.4564,9.91298 L38.4564,12.8231 L39.1009,12.5888 C39.1139,12.5757 39.1595,12.5692 39.2376,12.5692 C39.3288,12.5692 39.4264,12.6083 39.5306,12.6864 C39.6087,12.7645 39.6478,12.8557 39.6478,12.9599 L39.6478,14.1708 C39.6478,14.3531 39.5567,14.4768 39.3744,14.5419 L38.4564,14.8544 L38.4564,18.0575 L39.1009,17.8427 C39.1139,17.8296 39.1595,17.8231 39.2376,17.8231 C39.3288,17.8231 39.4264,17.8622 39.5306,17.9403 C39.6087,18.0184 39.6478,18.1096 39.6478,18.2138 L39.6478,19.4247 C39.6478,19.594 39.5567,19.7112 39.3744,19.7763 L38.4564,20.1278 L38.4564,23.2724 M37.7142,15.1474 L36.054,15.7333 L36.054,18.9364 L37.7142,18.3505 L37.7142,15.1474 "/>
<path class="" d="M33.4561,15.7719 C33.4561,16.0193 33.3324,16.143 33.085,16.143 C32.8376,16.143 32.7139,16.0193 32.7139,15.7719 L32.7139,12.8813 L31.0537,13.5063 L31.0537,16.6703 C31.0537,16.9177 30.93,17.0414 30.6826,17.0414 C30.4352,17.0414 30.3115,16.9177 30.3115,16.6703 L30.3115,13.7602 L29.6865,13.9945 C29.6735,14.0076 29.6214,14.0141 29.5303,14.0141 C29.4261,14.0141 29.335,13.975 29.2569,13.8969 C29.1787,13.8188 29.1397,13.7276 29.1397,13.6234 L29.1397,12.4125 C29.1397,12.2172 29.2243,12.0935 29.3936,12.0414 L30.3115,11.7289 L30.3115,8.52579 L29.6865,8.74063 C29.6735,8.75365 29.6214,8.76016 29.5303,8.76016 C29.4261,8.76016 29.335,8.7211 29.2569,8.64297 C29.1787,8.56485 29.1397,8.4737 29.1397,8.36954 L29.1397,7.1586 C29.1397,6.97631 29.2243,6.85912 29.3936,6.80704 L30.3115,6.45547 L30.3115,3.31094 C30.3115,3.06355 30.4352,2.93985 30.6826,2.93985 C30.93,2.93985 31.0537,3.06355 31.0537,3.31094 L31.0537,6.20157 L32.7139,5.57657 L32.7139,2.4125 C32.7139,2.16511 32.8376,2.04141 33.085,2.04141 C33.3324,2.04141 33.4561,2.16511 33.4561,2.4125 L33.4561,5.32266 L34.1006,5.08829 C34.1136,5.07526 34.1592,5.06875 34.2373,5.06875 C34.3285,5.06875 34.4261,5.10782 34.5303,5.18594 C34.6084,5.26407 34.6475,5.35521 34.6475,5.45938 L34.6475,6.67032 C34.6475,6.85261 34.5563,6.97631 34.374,7.04141 L33.4561,7.35391 L33.4561,10.557 L34.1006,10.3422 C34.1136,10.3292 34.1592,10.3227 34.2373,10.3227 C34.3285,10.3227 34.4261,10.3617 34.5303,10.4398 C34.6084,10.518 34.6475,10.6091 34.6475,10.7133 L34.6475,11.9242 C34.6475,12.0935 34.5563,12.2107 34.374,12.2758 L33.4561,12.6273 L33.4561,15.7719 M32.7139,7.64688 L31.0537,8.23282 L31.0537,11.4359 L32.7139,10.85 L32.7139,7.64688 "/>
<path class="" d="M28.4558,25.7725 C28.4558,26.0199 28.3321,26.1436 28.0847,26.1436 C27.8373,26.1436 27.7136,26.0199 27.7136,25.7725 L27.7136,22.8819 L26.0534,23.5069 L26.0534,26.6709 C26.0534,26.9183 25.9297,27.042 25.6823,27.042 C25.4349,27.042 25.3112,26.9183 25.3112,26.6709 L25.3112,23.7608 L24.6862,23.9952 C24.6732,24.0082 24.6211,24.0147 24.53,24.0147 C24.4258,24.0147 24.3347,23.9756 24.2565,23.8975 C24.1784,23.8194 24.1394,23.7282 24.1394,23.6241 L24.1394,22.4131 C24.1394,22.2178 24.224,22.0941 24.3933,22.042 L25.3112,21.7295 L25.3112,18.5264 L24.6862,18.7413 C24.6732,18.7543 24.6211,18.7608 24.53,18.7608 C24.4258,18.7608 24.3347,18.7217 24.2565,18.6436 C24.1784,18.5655 24.1394,18.4743 24.1394,18.3702 L24.1394,17.1592 C24.1394,16.9769 24.224,16.8597 24.3933,16.8077 L25.3112,16.4561 L25.3112,13.3116 C25.3112,13.0642 25.4349,12.9405 25.6823,12.9405 C25.9297,12.9405 26.0534,13.0642 26.0534,13.3116 L26.0534,16.2022 L27.7136,15.5772 L27.7136,12.4131 C27.7136,12.1657 27.8373,12.042 28.0847,12.042 C28.3321,12.042 28.4558,12.1657 28.4558,12.4131 L28.4558,15.3233 L29.1003,15.0889 C29.1133,15.0759 29.1589,15.0694 29.237,15.0694 C29.3282,15.0694 29.4258,15.1084 29.53,15.1866 C29.6081,15.2647 29.6472,15.3558 29.6472,15.46 L29.6472,16.6709 C29.6472,16.8532 29.556,16.9769 29.3737,17.042 L28.4558,17.3545 L28.4558,20.5577 L29.1003,20.3428 C29.1133,20.3298 29.1589,20.3233 29.237,20.3233 C29.3282,20.3233 29.4258,20.3624 29.53,20.4405 C29.6081,20.5186 29.6472,20.6097 29.6472,20.7139 L29.6472,21.9249 C29.6472,22.0941 29.556,22.2113 29.3737,22.2764 L28.4558,22.628 L28.4558,25.7725 M27.7136,17.6475 L26.0534,18.2334 L26.0534,21.4366 L27.7136,20.8506 L27.7136,17.6475 "/>
<path class="" d="M23.4554,18.272 C23.4554,18.5194 23.3317,18.6431 23.0844,18.6431 C22.837,18.6431 22.7133,18.5194 22.7133,18.272 L22.7133,15.3814 L21.0531,16.0064 L21.0531,19.1705 C21.0531,19.4179 20.9294,19.5416 20.682,19.5416 C20.4346,19.5416 20.3109,19.4179 20.3109,19.1705 L20.3109,16.2603 L19.6859,16.4947 C19.6729,16.5077 19.6208,16.5142 19.5297,16.5142 C19.4255,16.5142 19.3344,16.4752 19.2562,16.397 C19.1781,16.3189 19.139,16.2278 19.139,16.1236 L19.139,14.9127 C19.139,14.7173 19.2237,14.5937 19.3929,14.5416 L20.3109,14.2291 L20.3109,11.0259 L19.6859,11.2408 C19.6729,11.2538 19.6208,11.2603 19.5297,11.2603 C19.4255,11.2603 19.3344,11.2213 19.2562,11.1431 C19.1781,11.065 19.139,10.9739 19.139,10.8697 L19.139,9.65876 C19.139,9.47646 19.2237,9.35928 19.3929,9.30719 L20.3109,8.95563 L20.3109,5.8111 C20.3109,5.5637 20.4346,5.44001 20.682,5.44001 C20.9294,5.44001 21.0531,5.5637 21.0531,5.8111 L21.0531,8.70172 L22.7133,8.07672 L22.7133,4.91266 C22.7133,4.66527 22.837,4.54157 23.0844,4.54157 C23.3317,4.54157 23.4554,4.66527 23.4554,4.91266 L23.4554,7.82282 L24.1,7.58844 C24.113,7.57542 24.1586,7.56891 24.2367,7.56891 C24.3278,7.56891 24.4255,7.60797 24.5297,7.6861 C24.6078,7.76422 24.6469,7.85537 24.6469,7.95954 L24.6469,9.17047 C24.6469,9.35277 24.5557,9.47646 24.3734,9.54157 L23.4554,9.85407 L23.4554,13.0572 L24.1,12.8423 C24.113,12.8293 24.1586,12.8228 24.2367,12.8228 C24.3278,12.8228 24.4255,12.8619 24.5297,12.94 C24.6078,13.0181 24.6469,13.1093 24.6469,13.2134 L24.6469,14.4244 C24.6469,14.5937 24.5557,14.7108 24.3734,14.7759 L23.4554,15.1275 L23.4554,18.272 M22.7133,10.147 L21.0531,10.733 L21.0531,13.9361 L22.7133,13.3502 L22.7133,10.147 "/>
<path class="" d="M49.3358,21.4953 C48.9973,21.4953 48.6587,21.3651 48.3202,21.1047 C47.9947,20.8573 47.8319,20.4927 47.8319,20.0109 C47.8319,19.6073 47.9686,19.2492 48.2421,18.9367 C48.5025,18.6242 48.8475,18.468 49.2772,18.468 C49.4204,18.468 49.5116,18.4745 49.5506,18.4875 C48.9517,17.7193 48.1509,17.3221 47.1483,17.2961 C46.3931,17.2961 45.8202,17.5109 45.4296,17.9406 C45.2993,18.1099 45.1822,18.3833 45.078,18.7609 C44.9738,19.1386 44.9217,19.4771 44.9217,19.7766 C44.8957,19.9849 44.8827,20.4016 44.8827,21.0266 L44.8827,23.0578 C44.8827,23.6828 44.8957,24.106 44.9217,24.3274 C44.9738,25.1737 45.1431,25.7792 45.4296,26.1438 C45.8332,26.5865 46.4061,26.8078 47.1483,26.8078 C47.9296,26.8078 48.5936,26.5214 49.1405,25.9484 C49.7004,25.3886 50.091,24.6659 50.3124,23.7805 C50.3514,23.6503 50.4296,23.5852 50.5467,23.5852 C50.716,23.5852 50.8006,23.6633 50.8006,23.8195 C50.8006,23.9107 50.7616,24.0865 50.6835,24.3469 C50.5012,24.9328 50.1431,25.5513 49.6092,26.2024 C48.9712,26.9315 48.1509,27.2961 47.1483,27.2961 C46.5624,27.2961 45.9634,27.2115 45.3514,27.0422 C44.7525,26.8339 44.2251,26.5474 43.7694,26.1828 C43.2616,25.7792 42.8644,25.2323 42.578,24.5422 C42.2915,23.787 42.1483,22.9537 42.1483,22.0422 C42.1483,20.4537 42.578,19.1906 43.4374,18.2531 C44.2707,17.2896 45.5077,16.8078 47.1483,16.8078 C48.216,16.8078 49.0624,17.1724 49.6874,17.9016 C50.3384,18.6307 50.6639,19.3534 50.6639,20.0695 C50.6639,20.4862 50.5337,20.8248 50.2733,21.0852 C50.0389,21.3586 49.7264,21.4953 49.3358,21.4953"/>
</svg>
