<?xml version="1.0" encoding="UTF-8" standalone="no"?>
<svg width="156px" height="39px" viewBox="0 0 156 39"
 xmlns="http://www.w3.org/2000/svg" xmlns:xlink="http://www.w3.org/1999/xlink" version="1.2" baseProfile="tiny">
<title>eb-c-ebmaj7</title>
<desc>Generated by MuseScore 2.0.3</desc>
<polyline class="" fill="none" stroke="#000000" stroke-width="0.40" stroke-linejoin="bevel" points="0.850387,9.20692 153.921,9.20692"/>
<polyline class="" fill="none" stroke="#000000" stroke-width="0.40" stroke-linejoin="bevel" points="0.850387,14.2072 153.921,14.2072"/>
<polyline class="" fill="none" stroke="#000000" stroke-width="0.40" stroke-linejoin="bevel" points="0.850387,19.2076 153.921,19.2076"/>
<polyline class="" fill="none" stroke="#000000" stroke-width="0.40" stroke-linejoin="bevel" points="0.850387,24.2079 153.921,24.2079"/>
<polyline class="" fill="none" stroke="#000000" stroke-width="0.40" stroke-linejoin="bevel" points="0.850387,29.2082 153.921,29.2082"/>
<polyline class="" fill="none" stroke="#000000" stroke-width="0.80" stroke-linejoin="bevel" points="153.521,9.20692 153.521,29.2082"/>
<path class="" d="M57.8928,4.46067 C57.424,4.46067 57.0855,4.62343 56.8771,4.94895 C56.6428,5.26145 56.5256,5.68463 56.5256,6.21848 C56.5256,6.83046 56.6883,7.35781 57.0139,7.80051 C57.3394,8.2302 57.6975,8.52968 58.0881,8.69895 C58.4396,8.86822 58.8107,8.95286 59.2014,8.95286 C59.6571,8.95286 60.0021,8.7901 60.2365,8.46458 C60.4579,8.13906 60.5686,7.71588 60.5686,7.19505 C60.5686,6.58307 60.4058,6.05572 60.0803,5.61301 C59.7548,5.19635 59.4032,4.89687 59.0256,4.71458 C58.648,4.54531 58.2704,4.46067 57.8928,4.46067 M58.5568,3.95286 C59.9631,3.95286 61.135,4.2263 62.0725,4.77317 C63.023,5.32005 63.4982,5.96458 63.4982,6.70676 C63.4982,7.50104 63.01,8.15208 62.0334,8.65989 C61.0568,9.19374 59.898,9.46067 58.5568,9.46067 C57.1766,9.46067 56.0048,9.18723 55.0412,8.64036 C54.0777,8.09348 53.5959,7.44895 53.5959,6.70676 C53.5959,5.91249 54.0907,5.26145 55.0803,4.75364 C56.0568,4.21979 57.2157,3.95286 58.5568,3.95286"/>
<path class="" d="M57.8928,11.9611 C57.424,11.9611 57.0855,12.1239 56.8771,12.4494 C56.6428,12.7619 56.5256,13.1851 56.5256,13.719 C56.5256,14.3309 56.6883,14.8583 57.0139,15.301 C57.3394,15.7307 57.6975,16.0302 58.0881,16.1994 C58.4396,16.3687 58.8107,16.4533 59.2014,16.4533 C59.6571,16.4533 60.0021,16.2906 60.2365,15.965 C60.4579,15.6395 60.5686,15.2164 60.5686,14.6955 C60.5686,14.0835 60.4058,13.5562 60.0803,13.1135 C59.7548,12.6968 59.4032,12.3973 59.0256,12.215 C58.648,12.0458 58.2704,11.9611 57.8928,11.9611 M58.5568,11.4533 C59.9631,11.4533 61.135,11.7268 62.0725,12.2736 C63.023,12.8205 63.4982,13.465 63.4982,14.2072 C63.4982,15.0015 63.01,15.6525 62.0334,16.1604 C61.0568,16.6942 59.898,16.9611 58.5568,16.9611 C57.1766,16.9611 56.0048,16.6877 55.0412,16.1408 C54.0777,15.594 53.5959,14.9494 53.5959,14.2072 C53.5959,13.413 54.0907,12.7619 55.0803,12.2541 C56.0568,11.7203 57.2157,11.4533 58.5568,11.4533"/>
<path class="" d="M57.8928,16.9615 C57.424,16.9615 57.0855,17.1242 56.8771,17.4497 C56.6428,17.7622 56.5256,18.1854 56.5256,18.7193 C56.5256,19.3313 56.6883,19.8586 57.0139,20.3013 C57.3394,20.731 57.6975,21.0305 58.0881,21.1997 C58.4396,21.369 58.8107,21.4536 59.2014,21.4536 C59.6571,21.4536 60.0021,21.2909 60.2365,20.9654 C60.4579,20.6398 60.5686,20.2167 60.5686,19.6958 C60.5686,19.0839 60.4058,18.5565 60.0803,18.1138 C59.7548,17.6971 59.4032,17.3977 59.0256,17.2154 C58.648,17.0461 58.2704,16.9615 57.8928,16.9615 M58.5568,16.4536 C59.9631,16.4536 61.135,16.7271 62.0725,17.274 C63.023,17.8208 63.4982,18.4654 63.4982,19.2076 C63.4982,20.0018 63.01,20.6529 62.0334,21.1607 C61.0568,21.6945 59.898,21.9615 58.5568,21.9615 C57.1766,21.9615 56.0048,21.688 55.0412,21.1411 C54.0777,20.5943 53.5959,19.9497 53.5959,19.2076 C53.5959,18.4133 54.0907,17.7622 55.0803,17.2544 C56.0568,16.7206 57.2157,16.4536 58.5568,16.4536"/>
<path class="" d="M11.3943,19.0907 C11.3943,19.0907 11.4334,19.0907 11.5115,19.0907 C11.5636,19.0777 11.6092,19.0711 11.6482,19.0711 C13.1066,19.0711 14.3045,19.5855 15.242,20.6141 C16.1795,21.6297 16.6482,22.8146 16.6482,24.1688 C16.6482,25.8485 15.9516,27.2157 14.5584,28.2704 C14.1938,28.5568 13.7186,28.7912 13.1326,28.9735 C13.1977,29.8198 13.2303,30.5034 13.2303,31.0243 C13.2303,31.1284 13.2173,31.506 13.1912,32.1571 C13.1391,33.368 12.7225,34.4162 11.9412,35.3016 C11.186,36.174 10.2485,36.6102 9.12871,36.6102 C8.07403,36.6102 7.17559,36.2391 6.4334,35.4969 C5.69121,34.7417 5.32012,33.8303 5.32012,32.7626 C5.32012,32.2027 5.53496,31.7274 5.96465,31.3368 C6.40736,30.9461 6.92168,30.7508 7.50762,30.7508 C8.02845,30.7508 8.46465,30.9527 8.81621,31.3563 C9.1808,31.7339 9.36309,32.2027 9.36309,32.7626 C9.36309,33.2704 9.1808,33.7066 8.81621,34.0711 C8.45163,34.4357 8.01543,34.618 7.50762,34.618 C7.29929,34.618 7.09746,34.579 6.90215,34.5008 C7.47507,35.3472 8.23679,35.7704 9.18731,35.7704 C10.0857,35.7704 10.8214,35.4058 11.3943,34.6766 C11.9933,33.9214 12.3188,33.0425 12.3709,32.0399 C12.3969,31.4149 12.41,31.0568 12.41,30.9657 C12.41,30.2365 12.3839,29.6376 12.3318,29.1688 C11.6808,29.273 11.1014,29.3251 10.5936,29.3251 C8.78366,29.3251 7.24069,28.6089 5.96465,27.1766 C4.71465,25.7313 4.08965,24.0126 4.08965,22.0204 C4.08965,21.6037 4.12871,21.1805 4.20684,20.7508 C4.28496,20.3993 4.38262,20.0152 4.49981,19.5985 C4.56491,19.3641 4.74069,18.9865 5.02715,18.4657 C5.13132,18.3094 5.24851,18.1141 5.37871,17.8797 C5.50892,17.6454 5.60007,17.4891 5.65215,17.411 C5.78236,17.1506 6.03627,16.799 6.41387,16.3563 C6.51804,16.2391 6.62546,16.1089 6.73614,15.9657 C6.84681,15.8225 6.94121,15.7053 7.01934,15.6141 C7.09746,15.523 7.15606,15.4514 7.19512,15.3993 C7.23418,15.3472 7.52715,15.0021 8.07403,14.3641 C8.20423,14.2339 8.33119,14.0939 8.45489,13.9442 C8.57858,13.7945 8.67949,13.6773 8.75762,13.5926 C8.83574,13.508 8.89434,13.4461 8.9334,13.4071 C8.46465,11.8576 8.17168,10.6206 8.05449,9.69615 C7.96335,8.95396 7.91778,7.93834 7.91778,6.64927 C7.91778,5.51646 8.17819,4.45526 8.69903,3.46568 C9.20684,2.43703 9.91647,1.59719 10.8279,0.946149 C10.893,0.907086 10.9581,0.887555 11.0232,0.887555 C11.1144,0.887555 11.1795,0.907086 11.2186,0.946149 C11.9217,1.7925 12.5272,2.89276 13.035,4.24693 C13.5558,5.6011 13.8162,6.83157 13.8162,7.93834 C13.8162,9.18834 13.5167,10.3602 12.9178,11.454 C12.2407,12.6128 11.3683,13.8107 10.3006,15.0477 C10.574,15.9071 10.9386,17.2547 11.3943,19.0907 M13.0545,28.1727 C13.7316,27.9253 14.2589,27.5021 14.6365,26.9032 C15.0532,26.3303 15.2615,25.6857 15.2615,24.9696 C15.2615,24.0451 14.949,23.2248 14.324,22.5086 C13.686,21.7665 12.8722,21.3498 11.8826,21.2586 C12.4425,24.006 12.8331,26.3107 13.0545,28.1727 M5.4959,23.661 C5.4959,24.9501 6.01673,26.0829 7.0584,27.0594 C8.12611,28.01 9.32403,28.4852 10.6522,28.4852 C11.199,28.4852 11.7329,28.4461 12.2537,28.368 C12.0454,26.3889 11.6352,24.0191 11.0232,21.2586 C10.2811,21.3368 9.68861,21.5972 9.2459,22.0399 C8.81621,22.4956 8.60137,23.01 8.60137,23.5829 C8.60137,24.5725 9.12871,25.3732 10.1834,25.9852 C10.2745,26.0764 10.3201,26.174 10.3201,26.2782 C10.3201,26.3823 10.2745,26.48 10.1834,26.5711 C10.1053,26.6623 10.0076,26.7079 9.89043,26.7079 C9.87741,26.7079 9.81882,26.6948 9.71465,26.6688 C8.97246,26.2652 8.39955,25.7443 7.9959,25.1063 C7.6183,24.4292 7.42949,23.7456 7.42949,23.0555 C7.42949,22.1571 7.70944,21.3433 8.26934,20.6141 C8.85528,19.885 9.61699,19.4162 10.5545,19.2079 C10.1899,17.7495 9.89043,16.6102 9.65606,15.7899 C9.44772,16.0243 9.19707,16.3075 8.9041,16.6395 C8.61114,16.9715 8.43861,17.1701 8.38653,17.2352 C7.91778,17.8472 7.5597,18.3225 7.31231,18.661 C6.8696,19.273 6.54408,19.8003 6.33574,20.243 C6.11439,20.7378 5.91908,21.2782 5.74981,21.8641 C5.58054,22.424 5.4959,23.023 5.4959,23.661 M12.0193,3.79771 C11.0428,4.27948 10.2745,4.96959 9.71465,5.86802 C9.14173,6.7925 8.85528,7.7886 8.85528,8.8563 C8.85528,9.7938 9.08965,11.0568 9.5584,12.6454 C10.4959,11.5126 11.199,10.4644 11.6678,9.50084 C12.1626,8.48521 12.41,7.42401 12.41,6.31724 C12.41,5.48391 12.2798,4.64407 12.0193,3.79771"/>
<path class="" d="M30.1748,20.8874 L30.1748,22.4304 C30.1748,22.9772 30.2009,23.4134 30.253,23.739 C30.6826,23.3744 30.9886,23.1009 31.1709,22.9186 C31.3793,22.7103 31.5876,22.4239 31.7959,22.0593 C32.0043,21.6947 32.1084,21.3301 32.1084,20.9655 C32.1084,20.6009 32.0303,20.2884 31.8741,20.028 C31.7178,19.7676 31.5095,19.6374 31.2491,19.6374 C30.9366,19.6374 30.6761,19.7546 30.4678,19.989 C30.2725,20.2494 30.1748,20.5489 30.1748,20.8874 M29.3545,24.4616 L29.1006,12.5671 C29.2829,12.4629 29.4652,12.4108 29.6475,12.4108 C29.8298,12.4108 30.0121,12.4629 30.1944,12.5671 L30.0381,19.4616 C30.572,19.0059 31.1839,18.778 31.8741,18.778 C32.3819,18.778 32.805,18.9864 33.1436,19.403 C33.4821,19.8197 33.6514,20.2949 33.6514,20.8288 C33.6514,21.1673 33.5407,21.5254 33.3194,21.903 C33.111,22.2546 32.8897,22.528 32.6553,22.7233 C32.5251,22.8275 32.1931,23.0879 31.6592,23.5046 C31.503,23.6218 31.3174,23.7585 31.1026,23.9147 C30.8877,24.071 30.7543,24.1686 30.7022,24.2077 C30.611,24.2598 30.5264,24.364 30.4483,24.5202 C30.3571,24.6504 30.253,24.7611 30.1358,24.8522 C30.0446,24.9304 29.9339,24.9694 29.8037,24.9694 C29.6735,24.9694 29.5694,24.9239 29.4912,24.8327 C29.4001,24.7416 29.3545,24.6179 29.3545,24.4616"/>
<path class="" d="M25.1745,10.8868 L25.1745,12.4297 C25.1745,12.9766 25.2006,13.4128 25.2526,13.7383 C25.6823,13.3737 25.9883,13.1003 26.1706,12.918 C26.3789,12.7097 26.5873,12.4232 26.7956,12.0586 C27.0039,11.6941 27.1081,11.3295 27.1081,10.9649 C27.1081,10.6003 27.03,10.2878 26.8737,10.0274 C26.7175,9.76698 26.5092,9.63677 26.2487,9.63677 C25.9362,9.63677 25.6758,9.75395 25.4675,9.98833 C25.2722,10.2487 25.1745,10.5482 25.1745,10.8868 M24.3542,14.461 L24.1003,2.56645 C24.2826,2.46229 24.4649,2.4102 24.6472,2.4102 C24.8295,2.4102 25.0118,2.46229 25.194,2.56645 L25.0378,9.46099 C25.5717,9.00526 26.1836,8.77739 26.8737,8.77739 C27.3815,8.77739 27.8047,8.98573 28.1433,9.40239 C28.4818,9.81906 28.6511,10.2943 28.6511,10.8282 C28.6511,11.1667 28.5404,11.5248 28.319,11.9024 C28.1107,12.254 27.8894,12.5274 27.655,12.7227 C27.5248,12.8269 27.1927,13.0873 26.6589,13.504 C26.5026,13.6211 26.3171,13.7579 26.1023,13.9141 C25.8874,14.0704 25.7539,14.168 25.7019,14.2071 C25.6107,14.2592 25.5261,14.3633 25.448,14.5196 C25.3568,14.6498 25.2526,14.7605 25.1355,14.8516 C25.0443,14.9297 24.9336,14.9688 24.8034,14.9688 C24.6732,14.9688 24.569,14.9232 24.4909,14.8321 C24.3998,14.7409 24.3542,14.6172 24.3542,14.461"/>
<path class="" d="M20.1742,18.3872 L20.1742,19.9302 C20.1742,20.4771 20.2002,20.9133 20.2523,21.2388 C20.682,20.8742 20.988,20.6008 21.1703,20.4185 C21.3786,20.2102 21.587,19.9237 21.7953,19.5591 C22.0036,19.1945 22.1078,18.8299 22.1078,18.4654 C22.1078,18.1008 22.0297,17.7883 21.8734,17.5279 C21.7172,17.2674 21.5088,17.1372 21.2484,17.1372 C20.9359,17.1372 20.6755,17.2544 20.4672,17.4888 C20.2719,17.7492 20.1742,18.0487 20.1742,18.3872 M19.3539,21.9615 L19.1,10.0669 C19.2823,9.96276 19.4646,9.91068 19.6469,9.91068 C19.8292,9.91068 20.0114,9.96276 20.1937,10.0669 L20.0375,16.9615 C20.5713,16.5057 21.1833,16.2779 21.8734,16.2779 C22.3812,16.2779 22.8044,16.4862 23.143,16.9029 C23.4815,17.3195 23.6508,17.7948 23.6508,18.3286 C23.6508,18.6672 23.5401,19.0253 23.3187,19.4029 C23.1104,19.7544 22.889,20.0279 22.6547,20.2232 C22.5245,20.3273 22.1924,20.5878 21.6586,21.0044 C21.5023,21.1216 21.3168,21.2583 21.1019,21.4146 C20.8871,21.5708 20.7536,21.6685 20.7015,21.7076 C20.6104,21.7596 20.5258,21.8638 20.4476,22.0201 C20.3565,22.1503 20.2523,22.2609 20.1351,22.3521 C20.044,22.4302 19.9333,22.4693 19.8031,22.4693 C19.6729,22.4693 19.5687,22.4237 19.4906,22.3326 C19.3995,22.2414 19.3539,22.1177 19.3539,21.9615"/>
<path class="" d="M43.3792,18.6607 C43.0406,18.6607 42.7021,18.5305 42.3636,18.2701 C42.038,18.0227 41.8753,17.6581 41.8753,17.1763 C41.8753,16.7727 42.012,16.4146 42.2854,16.1021 C42.5458,15.7896 42.8909,15.6333 43.3206,15.6333 C43.4638,15.6333 43.555,15.6398 43.594,15.6529 C42.9951,14.8846 42.1943,14.4875 41.1917,14.4615 C40.4365,14.4615 39.8636,14.6763 39.4729,15.106 C39.3427,15.2753 39.2255,15.5487 39.1214,15.9263 C39.0172,16.3039 38.9651,16.6424 38.9651,16.9419 C38.9391,17.1503 38.9261,17.5669 38.9261,18.1919 L38.9261,20.2232 C38.9261,20.8482 38.9391,21.2714 38.9651,21.4927 C39.0172,22.3391 39.1865,22.9445 39.4729,23.3091 C39.8766,23.7518 40.4495,23.9732 41.1917,23.9732 C41.9729,23.9732 42.637,23.6867 43.1839,23.1138 C43.7438,22.5539 44.1344,21.8313 44.3557,20.9458 C44.3948,20.8156 44.4729,20.7505 44.5901,20.7505 C44.7594,20.7505 44.844,20.8286 44.844,20.9849 C44.844,21.076 44.805,21.2518 44.7268,21.5122 C44.5445,22.0982 44.1865,22.7167 43.6526,23.3677 C43.0146,24.0969 42.1943,24.4615 41.1917,24.4615 C40.6057,24.4615 40.0068,24.3768 39.3948,24.2076 C38.7958,23.9992 38.2685,23.7128 37.8128,23.3482 C37.305,22.9445 36.9078,22.3977 36.6214,21.7076 C36.3349,20.9523 36.1917,20.119 36.1917,19.2076 C36.1917,17.619 36.6214,16.356 37.4807,15.4185 C38.3141,14.4549 39.5511,13.9732 41.1917,13.9732 C42.2594,13.9732 43.1057,14.3378 43.7307,15.0669 C44.3818,15.7961 44.7073,16.5188 44.7073,17.2349 C44.7073,17.6516 44.5771,17.9901 44.3167,18.2505 C44.0823,18.524 43.7698,18.6607 43.3792,18.6607"/>
</svg>
