<?xml version="1.0" encoding="UTF-8" standalone="no"?>
<svg width="156px" height="39px" viewBox="0 0 156 39"
 xmlns="http://www.w3.org/2000/svg" xmlns:xlink="http://www.w3.org/1999/xlink" version="1.2" baseProfile="tiny">
<title>f-c-fmaj7</title>
<desc>Generated by MuseScore 2.0.3</desc>
<polyline class="" fill="none" stroke="#000000" stroke-width="0.40" stroke-linejoin="bevel" points="0.850387,9.20692 153.921,9.20692"/>
<polyline class="" fill="none" stroke="#000000" stroke-width="0.40" stroke-linejoin="bevel" points="0.850387,14.2072 153.921,14.2072"/>
<polyline class="" fill="none" stroke="#000000" stroke-width="0.40" stroke-linejoin="bevel" points="0.850387,19.2076 153.921,19.2076"/>
<polyline class="" fill="none" stroke="#000000" stroke-width="0.40" stroke-linejoin="bevel" points="0.850387,24.2079 153.921,24.2079"/>
<polyline class="" fill="none" stroke="#000000" stroke-width="0.40" stroke-linejoin="bevel" points="0.850387,29.2082 153.921,29.2082"/>
<polyline class="" fill="none" stroke="#000000" stroke-width="0.80" stroke-linejoin="bevel" points="153.521,9.20692 153.521,29.2082"/>
<polyline class="" fill="none" stroke="#000000" stroke-width="0.80" stroke-linecap="square" stroke-linejoin="bevel" points="42.0952,34.2085 54.9991,34.2085"/>
<path class="" d="M47.8921,19.4616 C47.4234,19.4616 47.0849,19.6244 46.8765,19.9499 C46.6421,20.2624 46.525,20.6856 46.525,21.2194 C46.525,21.8314 46.6877,22.3588 47.0132,22.8015 C47.3388,23.2311 47.6968,23.5306 48.0875,23.6999 C48.439,23.8692 48.8101,23.9538 49.2007,23.9538 C49.6565,23.9538 50.0015,23.791 50.2359,23.4655 C50.4572,23.14 50.5679,22.7168 50.5679,22.196 C50.5679,21.584 50.4052,21.0567 50.0796,20.614 C49.7541,20.1973 49.4026,19.8978 49.025,19.7155 C48.6474,19.5463 48.2697,19.4616 47.8921,19.4616 M48.5562,18.9538 C49.9625,18.9538 51.1343,19.2272 52.0718,19.7741 C53.0224,20.321 53.4976,20.9655 53.4976,21.7077 C53.4976,22.502 53.0093,23.153 52.0328,23.6608 C51.0562,24.1947 49.8974,24.4616 48.5562,24.4616 C47.176,24.4616 46.0041,24.1882 45.0406,23.6413 C44.077,23.0944 43.5953,22.4499 43.5953,21.7077 C43.5953,20.9134 44.0901,20.2624 45.0796,19.7546 C46.0562,19.2207 47.2151,18.9538 48.5562,18.9538"/>
<path class="" d="M47.8921,26.9621 C47.4234,26.9621 47.0849,27.1248 46.8765,27.4504 C46.6421,27.7629 46.525,28.186 46.525,28.7199 C46.525,29.3319 46.6877,29.8592 47.0132,30.3019 C47.3388,30.7316 47.6968,31.0311 48.0875,31.2004 C48.439,31.3696 48.8101,31.4543 49.2007,31.4543 C49.6565,31.4543 50.0015,31.2915 50.2359,30.966 C50.4572,30.6405 50.5679,30.2173 50.5679,29.6965 C50.5679,29.0845 50.4052,28.5571 50.0796,28.1144 C49.7541,27.6978 49.4026,27.3983 49.025,27.216 C48.6474,27.0467 48.2697,26.9621 47.8921,26.9621 M48.5562,26.4543 C49.9625,26.4543 51.1343,26.7277 52.0718,27.2746 C53.0224,27.8215 53.4976,28.466 53.4976,29.2082 C53.4976,30.0025 53.0093,30.6535 52.0328,31.1613 C51.0562,31.6952 49.8974,31.9621 48.5562,31.9621 C47.176,31.9621 46.0041,31.6887 45.0406,31.1418 C44.077,30.5949 43.5953,29.9504 43.5953,29.2082 C43.5953,28.4139 44.0901,27.7629 45.0796,27.2551 C46.0562,26.7212 47.2151,26.4543 48.5562,26.4543"/>
<path class="" d="M47.8921,31.9624 C47.4234,31.9624 47.0849,32.1252 46.8765,32.4507 C46.6421,32.7632 46.525,33.1864 46.525,33.7202 C46.525,34.3322 46.6877,34.8595 47.0132,35.3022 C47.3388,35.7319 47.6968,36.0314 48.0875,36.2007 C48.439,36.37 48.8101,36.4546 49.2007,36.4546 C49.6565,36.4546 50.0015,36.2918 50.2359,35.9663 C50.4572,35.6408 50.5679,35.2176 50.5679,34.6968 C50.5679,34.0848 50.4052,33.5575 50.0796,33.1147 C49.7541,32.6981 49.4026,32.3986 49.025,32.2163 C48.6474,32.047 48.2697,31.9624 47.8921,31.9624 M48.5562,31.4546 C49.9625,31.4546 51.1343,31.728 52.0718,32.2749 C53.0224,32.8218 53.4976,33.4663 53.4976,34.2085 C53.4976,35.0028 53.0093,35.6538 52.0328,36.1616 C51.0562,36.6955 49.8974,36.9624 48.5562,36.9624 C47.176,36.9624 46.0041,36.689 45.0406,36.1421 C44.077,35.5952 43.5953,34.9507 43.5953,34.2085 C43.5953,33.4142 44.0901,32.7632 45.0796,32.2554 C46.0562,31.7215 47.2151,31.4546 48.5562,31.4546"/>
<path class="" d="M11.3943,19.0907 C11.3943,19.0907 11.4334,19.0907 11.5115,19.0907 C11.5636,19.0777 11.6092,19.0711 11.6482,19.0711 C13.1066,19.0711 14.3045,19.5855 15.242,20.6141 C16.1795,21.6297 16.6482,22.8146 16.6482,24.1688 C16.6482,25.8485 15.9516,27.2157 14.5584,28.2704 C14.1938,28.5568 13.7186,28.7912 13.1326,28.9735 C13.1977,29.8198 13.2303,30.5034 13.2303,31.0243 C13.2303,31.1284 13.2173,31.506 13.1912,32.1571 C13.1391,33.368 12.7225,34.4162 11.9412,35.3016 C11.186,36.174 10.2485,36.6102 9.12871,36.6102 C8.07403,36.6102 7.17559,36.2391 6.4334,35.4969 C5.69121,34.7417 5.32012,33.8303 5.32012,32.7626 C5.32012,32.2027 5.53496,31.7274 5.96465,31.3368 C6.40736,30.9461 6.92168,30.7508 7.50762,30.7508 C8.02845,30.7508 8.46465,30.9527 8.81621,31.3563 C9.1808,31.7339 9.36309,32.2027 9.36309,32.7626 C9.36309,33.2704 9.1808,33.7066 8.81621,34.0711 C8.45163,34.4357 8.01543,34.618 7.50762,34.618 C7.29929,34.618 7.09746,34.579 6.90215,34.5008 C7.47507,35.3472 8.23679,35.7704 9.18731,35.7704 C10.0857,35.7704 10.8214,35.4058 11.3943,34.6766 C11.9933,33.9214 12.3188,33.0425 12.3709,32.0399 C12.3969,31.4149 12.41,31.0568 12.41,30.9657 C12.41,30.2365 12.3839,29.6376 12.3318,29.1688 C11.6808,29.273 11.1014,29.3251 10.5936,29.3251 C8.78366,29.3251 7.24069,28.6089 5.96465,27.1766 C4.71465,25.7313 4.08965,24.0126 4.08965,22.0204 C4.08965,21.6037 4.12871,21.1805 4.20684,20.7508 C4.28496,20.3993 4.38262,20.0152 4.49981,19.5985 C4.56491,19.3641 4.74069,18.9865 5.02715,18.4657 C5.13132,18.3094 5.24851,18.1141 5.37871,17.8797 C5.50892,17.6454 5.60007,17.4891 5.65215,17.411 C5.78236,17.1506 6.03627,16.799 6.41387,16.3563 C6.51804,16.2391 6.62546,16.1089 6.73614,15.9657 C6.84681,15.8225 6.94121,15.7053 7.01934,15.6141 C7.09746,15.523 7.15606,15.4514 7.19512,15.3993 C7.23418,15.3472 7.52715,15.0021 8.07403,14.3641 C8.20423,14.2339 8.33119,14.0939 8.45489,13.9442 C8.57858,13.7945 8.67949,13.6773 8.75762,13.5926 C8.83574,13.508 8.89434,13.4461 8.9334,13.4071 C8.46465,11.8576 8.17168,10.6206 8.05449,9.69615 C7.96335,8.95396 7.91778,7.93834 7.91778,6.64927 C7.91778,5.51646 8.17819,4.45526 8.69903,3.46568 C9.20684,2.43703 9.91647,1.59719 10.8279,0.946149 C10.893,0.907086 10.9581,0.887555 11.0232,0.887555 C11.1144,0.887555 11.1795,0.907086 11.2186,0.946149 C11.9217,1.7925 12.5272,2.89276 13.035,4.24693 C13.5558,5.6011 13.8162,6.83157 13.8162,7.93834 C13.8162,9.18834 13.5167,10.3602 12.9178,11.454 C12.2407,12.6128 11.3683,13.8107 10.3006,15.0477 C10.574,15.9071 10.9386,17.2547 11.3943,19.0907 M13.0545,28.1727 C13.7316,27.9253 14.2589,27.5021 14.6365,26.9032 C15.0532,26.3303 15.2615,25.6857 15.2615,24.9696 C15.2615,24.0451 14.949,23.2248 14.324,22.5086 C13.686,21.7665 12.8722,21.3498 11.8826,21.2586 C12.4425,24.006 12.8331,26.3107 13.0545,28.1727 M5.4959,23.661 C5.4959,24.9501 6.01673,26.0829 7.0584,27.0594 C8.12611,28.01 9.32403,28.4852 10.6522,28.4852 C11.199,28.4852 11.7329,28.4461 12.2537,28.368 C12.0454,26.3889 11.6352,24.0191 11.0232,21.2586 C10.2811,21.3368 9.68861,21.5972 9.2459,22.0399 C8.81621,22.4956 8.60137,23.01 8.60137,23.5829 C8.60137,24.5725 9.12871,25.3732 10.1834,25.9852 C10.2745,26.0764 10.3201,26.174 10.3201,26.2782 C10.3201,26.3823 10.2745,26.48 10.1834,26.5711 C10.1053,26.6623 10.0076,26.7079 9.89043,26.7079 C9.87741,26.7079 9.81882,26.6948 9.71465,26.6688 C8.97246,26.2652 8.39955,25.7443 7.9959,25.1063 C7.6183,24.4292 7.42949,23.7456 7.42949,23.0555 C7.42949,22.1571 7.70944,21.3433 8.26934,20.6141 C8.85528,19.885 9.61699,19.4162 10.5545,19.2079 C10.1899,17.7495 9.89043,16.6102 9.65606,15.7899 C9.44772,16.0243 9.19707,16.3075 8.9041,16.6395 C8.61114,16.9715 8.43861,17.1701 8.38653,17.2352 C7.91778,17.8472 7.5597,18.3225 7.31231,18.661 C6.8696,19.273 6.54408,19.8003 6.33574,20.243 C6.11439,20.7378 5.91908,21.2782 5.74981,21.8641 C5.58054,22.424 5.4959,23.023 5.4959,23.661 M12.0193,3.79771 C11.0428,4.27948 10.2745,4.96959 9.71465,5.86802 C9.14173,6.7925 8.85528,7.7886 8.85528,8.8563 C8.85528,9.7938 9.08965,11.0568 9.5584,12.6454 C10.4959,11.5126 11.199,10.4644 11.6678,9.50084 C12.1626,8.48521 12.41,7.42401 12.41,6.31724 C12.41,5.48391 12.2798,4.64407 12.0193,3.79771"/>
<path class="" d="M20.1742,18.3872 L20.1742,19.9302 C20.1742,20.4771 20.2002,20.9133 20.2523,21.2388 C20.682,20.8742 20.988,20.6008 21.1703,20.4185 C21.3786,20.2102 21.587,19.9237 21.7953,19.5591 C22.0036,19.1945 22.1078,18.8299 22.1078,18.4654 C22.1078,18.1008 22.0297,17.7883 21.8734,17.5279 C21.7172,17.2674 21.5088,17.1372 21.2484,17.1372 C20.9359,17.1372 20.6755,17.2544 20.4672,17.4888 C20.2719,17.7492 20.1742,18.0487 20.1742,18.3872 M19.3539,21.9615 L19.1,10.0669 C19.2823,9.96276 19.4646,9.91068 19.6469,9.91068 C19.8292,9.91068 20.0114,9.96276 20.1937,10.0669 L20.0375,16.9615 C20.5713,16.5057 21.1833,16.2779 21.8734,16.2779 C22.3812,16.2779 22.8044,16.4862 23.143,16.9029 C23.4815,17.3195 23.6508,17.7948 23.6508,18.3286 C23.6508,18.6672 23.5401,19.0253 23.3187,19.4029 C23.1104,19.7544 22.889,20.0279 22.6547,20.2232 C22.5245,20.3273 22.1924,20.5878 21.6586,21.0044 C21.5023,21.1216 21.3168,21.2583 21.1019,21.4146 C20.8871,21.5708 20.7536,21.6685 20.7015,21.7076 C20.6104,21.7596 20.5258,21.8638 20.4476,22.0201 C20.3565,22.1503 20.2523,22.2609 20.1351,22.3521 C20.044,22.4302 19.9333,22.4693 19.8031,22.4693 C19.6729,22.4693 19.5687,22.4237 19.4906,22.3326 C19.3995,22.2414 19.3539,22.1177 19.3539,21.9615"/>
<path class="" d="M33.3785,18.6607 C33.04,18.6607 32.7015,18.5305 32.3629,18.2701 C32.0374,18.0227 31.8746,17.6581 31.8746,17.1763 C31.8746,16.7727 32.0114,16.4146 32.2848,16.1021 C32.5452,15.7896 32.8903,15.6333 33.32,15.6333 C33.4632,15.6333 33.5543,15.6398 33.5934,15.6529 C32.9944,14.8846 32.1936,14.4875 31.191,14.4615 C30.4358,14.4615 29.8629,14.6763 29.4723,15.106 C29.3421,15.2753 29.2249,15.5487 29.1207,15.9263 C29.0166,16.3039 28.9645,16.6424 28.9645,16.9419 C28.9384,17.1503 28.9254,17.5669 28.9254,18.1919 L28.9254,20.2232 C28.9254,20.8482 28.9384,21.2714 28.9645,21.4927 C29.0166,22.3391 29.1858,22.9445 29.4723,23.3091 C29.8759,23.7518 30.4489,23.9732 31.191,23.9732 C31.9723,23.9732 32.6364,23.6867 33.1832,23.1138 C33.7431,22.5539 34.1338,21.8313 34.3551,20.9458 C34.3942,20.8156 34.4723,20.7505 34.5895,20.7505 C34.7588,20.7505 34.8434,20.8286 34.8434,20.9849 C34.8434,21.076 34.8043,21.2518 34.7262,21.5122 C34.5439,22.0982 34.1858,22.7167 33.652,23.3677 C33.014,24.0969 32.1936,24.4615 31.191,24.4615 C30.6051,24.4615 30.0061,24.3768 29.3942,24.2076 C28.7952,23.9992 28.2679,23.7128 27.8121,23.3482 C27.3043,22.9445 26.9072,22.3977 26.6207,21.7076 C26.3343,20.9523 26.191,20.119 26.191,19.2076 C26.191,17.619 26.6207,16.356 27.4801,15.4185 C28.3134,14.4549 29.5504,13.9732 31.191,13.9732 C32.2588,13.9732 33.1051,14.3378 33.7301,15.0669 C34.3811,15.7961 34.7067,16.5188 34.7067,17.2349 C34.7067,17.6516 34.5765,17.9901 34.316,18.2505 C34.0817,18.524 33.7692,18.6607 33.3785,18.6607"/>
</svg>
