<?xml version="1.0" encoding="UTF-8" standalone="no"?>
<svg width="156px" height="39px" viewBox="0 0 156 39"
 xmlns="http://www.w3.org/2000/svg" xmlns:xlink="http://www.w3.org/1999/xlink" version="1.2" baseProfile="tiny">
<title>g-c-d7</title>
<desc>Generated by MuseScore 2.0.3</desc>
<polyline class="" fill="none" stroke="#000000" stroke-width="0.40" stroke-linejoin="bevel" points="0.850387,9.20692 153.921,9.20692"/>
<polyline class="" fill="none" stroke="#000000" stroke-width="0.40" stroke-linejoin="bevel" points="0.850387,14.2072 153.921,14.2072"/>
<polyline class="" fill="none" stroke="#000000" stroke-width="0.40" stroke-linejoin="bevel" points="0.850387,19.2076 153.921,19.2076"/>
<polyline class="" fill="none" stroke="#000000" stroke-width="0.40" stroke-linejoin="bevel" points="0.850387,24.2079 153.921,24.2079"/>
<polyline class="" fill="none" stroke="#000000" stroke-width="0.40" stroke-linejoin="bevel" points="0.850387,29.2082 153.921,29.2082"/>
<polyline class="" fill="none" stroke="#000000" stroke-width="0.80" stroke-linejoin="bevel" points="153.521,9.20692 153.521,29.2082"/>
<polyline class="" fill="none" stroke="#000000" stroke-width="0.80" stroke-linecap="square" stroke-linejoin="bevel" points="43.0515,34.2085 55.9554,34.2085"/>
<path class="" d="M48.8485,19.4616 C48.3797,19.4616 48.0412,19.6244 47.8328,19.9499 C47.5985,20.2624 47.4813,20.6856 47.4813,21.2194 C47.4813,21.8314 47.644,22.3588 47.9695,22.8015 C48.2951,23.2311 48.6531,23.5306 49.0438,23.6999 C49.3953,23.8692 49.7664,23.9538 50.157,23.9538 C50.6128,23.9538 50.9578,23.791 51.1922,23.4655 C51.4136,23.14 51.5242,22.7168 51.5242,22.196 C51.5242,21.584 51.3615,21.0567 51.036,20.614 C50.7104,20.1973 50.3589,19.8978 49.9813,19.7155 C49.6037,19.5463 49.2261,19.4616 48.8485,19.4616 M49.5125,18.9538 C50.9188,18.9538 52.0906,19.2272 53.0281,19.7741 C53.9787,20.321 54.4539,20.9655 54.4539,21.7077 C54.4539,22.502 53.9656,23.153 52.9891,23.6608 C52.0125,24.1947 50.8537,24.4616 49.5125,24.4616 C48.1323,24.4616 46.9604,24.1882 45.9969,23.6413 C45.0333,23.0944 44.5516,22.4499 44.5516,21.7077 C44.5516,20.9134 45.0464,20.2624 46.036,19.7546 C47.0125,19.2207 48.1714,18.9538 49.5125,18.9538"/>
<path class="" d="M48.8485,24.4619 C48.3797,24.4619 48.0412,24.6247 47.8328,24.9502 C47.5985,25.2627 47.4813,25.6859 47.4813,26.2197 C47.4813,26.8317 47.644,27.3591 47.9695,27.8018 C48.2951,28.2315 48.6531,28.5309 49.0438,28.7002 C49.3953,28.8695 49.7664,28.9541 50.157,28.9541 C50.6128,28.9541 50.9578,28.7914 51.1922,28.4658 C51.4136,28.1403 51.5242,27.7171 51.5242,27.1963 C51.5242,26.5843 51.3615,26.057 51.036,25.6143 C50.7104,25.1976 50.3589,24.8981 49.9813,24.7158 C49.6037,24.5466 49.2261,24.4619 48.8485,24.4619 M49.5125,23.9541 C50.9188,23.9541 52.0906,24.2276 53.0281,24.7744 C53.9787,25.3213 54.4539,25.9658 54.4539,26.708 C54.4539,27.5023 53.9656,28.1533 52.9891,28.6611 C52.0125,29.195 50.8537,29.4619 49.5125,29.4619 C48.1323,29.4619 46.9604,29.1885 45.9969,28.6416 C45.0333,28.0947 44.5516,27.4502 44.5516,26.708 C44.5516,25.9138 45.0464,25.2627 46.036,24.7549 C47.0125,24.221 48.1714,23.9541 49.5125,23.9541"/>
<path class="" d="M48.8485,31.9624 C48.3797,31.9624 48.0412,32.1252 47.8328,32.4507 C47.5985,32.7632 47.4813,33.1864 47.4813,33.7202 C47.4813,34.3322 47.644,34.8595 47.9695,35.3022 C48.2951,35.7319 48.6531,36.0314 49.0438,36.2007 C49.3953,36.37 49.7664,36.4546 50.157,36.4546 C50.6128,36.4546 50.9578,36.2918 51.1922,35.9663 C51.4136,35.6408 51.5242,35.2176 51.5242,34.6968 C51.5242,34.0848 51.3615,33.5575 51.036,33.1147 C50.7104,32.6981 50.3589,32.3986 49.9813,32.2163 C49.6037,32.047 49.2261,31.9624 48.8485,31.9624 M49.5125,31.4546 C50.9188,31.4546 52.0906,31.728 53.0281,32.2749 C53.9787,32.8218 54.4539,33.4663 54.4539,34.2085 C54.4539,35.0028 53.9656,35.6538 52.9891,36.1616 C52.0125,36.6955 50.8537,36.9624 49.5125,36.9624 C48.1323,36.9624 46.9604,36.689 45.9969,36.1421 C45.0333,35.5952 44.5516,34.9507 44.5516,34.2085 C44.5516,33.4142 45.0464,32.7632 46.036,32.2554 C47.0125,31.7215 48.1714,31.4546 49.5125,31.4546"/>
<path class="" d="M11.3943,19.0907 C11.3943,19.0907 11.4334,19.0907 11.5115,19.0907 C11.5636,19.0777 11.6092,19.0711 11.6482,19.0711 C13.1066,19.0711 14.3045,19.5855 15.242,20.6141 C16.1795,21.6297 16.6482,22.8146 16.6482,24.1688 C16.6482,25.8485 15.9516,27.2157 14.5584,28.2704 C14.1938,28.5568 13.7186,28.7912 13.1326,28.9735 C13.1977,29.8198 13.2303,30.5034 13.2303,31.0243 C13.2303,31.1284 13.2173,31.506 13.1912,32.1571 C13.1391,33.368 12.7225,34.4162 11.9412,35.3016 C11.186,36.174 10.2485,36.6102 9.12871,36.6102 C8.07403,36.6102 7.17559,36.2391 6.4334,35.4969 C5.69121,34.7417 5.32012,33.8303 5.32012,32.7626 C5.32012,32.2027 5.53496,31.7274 5.96465,31.3368 C6.40736,30.9461 6.92168,30.7508 7.50762,30.7508 C8.02845,30.7508 8.46465,30.9527 8.81621,31.3563 C9.1808,31.7339 9.36309,32.2027 9.36309,32.7626 C9.36309,33.2704 9.1808,33.7066 8.81621,34.0711 C8.45163,34.4357 8.01543,34.618 7.50762,34.618 C7.29929,34.618 7.09746,34.579 6.90215,34.5008 C7.47507,35.3472 8.23679,35.7704 9.18731,35.7704 C10.0857,35.7704 10.8214,35.4058 11.3943,34.6766 C11.9933,33.9214 12.3188,33.0425 12.3709,32.0399 C12.3969,31.4149 12.41,31.0568 12.41,30.9657 C12.41,30.2365 12.3839,29.6376 12.3318,29.1688 C11.6808,29.273 11.1014,29.3251 10.5936,29.3251 C8.78366,29.3251 7.24069,28.6089 5.96465,27.1766 C4.71465,25.7313 4.08965,24.0126 4.08965,22.0204 C4.08965,21.6037 4.12871,21.1805 4.20684,20.7508 C4.28496,20.3993 4.38262,20.0152 4.49981,19.5985 C4.56491,19.3641 4.74069,18.9865 5.02715,18.4657 C5.13132,18.3094 5.24851,18.1141 5.37871,17.8797 C5.50892,17.6454 5.60007,17.4891 5.65215,17.411 C5.78236,17.1506 6.03627,16.799 6.41387,16.3563 C6.51804,16.2391 6.62546,16.1089 6.73614,15.9657 C6.84681,15.8225 6.94121,15.7053 7.01934,15.6141 C7.09746,15.523 7.15606,15.4514 7.19512,15.3993 C7.23418,15.3472 7.52715,15.0021 8.07403,14.3641 C8.20423,14.2339 8.33119,14.0939 8.45489,13.9442 C8.57858,13.7945 8.67949,13.6773 8.75762,13.5926 C8.83574,13.508 8.89434,13.4461 8.9334,13.4071 C8.46465,11.8576 8.17168,10.6206 8.05449,9.69615 C7.96335,8.95396 7.91778,7.93834 7.91778,6.64927 C7.91778,5.51646 8.17819,4.45526 8.69903,3.46568 C9.20684,2.43703 9.91647,1.59719 10.8279,0.946149 C10.893,0.907086 10.9581,0.887555 11.0232,0.887555 C11.1144,0.887555 11.1795,0.907086 11.2186,0.946149 C11.9217,1.7925 12.5272,2.89276 13.035,4.24693 C13.5558,5.6011 13.8162,6.83157 13.8162,7.93834 C13.8162,9.18834 13.5167,10.3602 12.9178,11.454 C12.2407,12.6128 11.3683,13.8107 10.3006,15.0477 C10.574,15.9071 10.9386,17.2547 11.3943,19.0907 M13.0545,28.1727 C13.7316,27.9253 14.2589,27.5021 14.6365,26.9032 C15.0532,26.3303 15.2615,25.6857 15.2615,24.9696 C15.2615,24.0451 14.949,23.2248 14.324,22.5086 C13.686,21.7665 12.8722,21.3498 11.8826,21.2586 C12.4425,24.006 12.8331,26.3107 13.0545,28.1727 M5.4959,23.661 C5.4959,24.9501 6.01673,26.0829 7.0584,27.0594 C8.12611,28.01 9.32403,28.4852 10.6522,28.4852 C11.199,28.4852 11.7329,28.4461 12.2537,28.368 C12.0454,26.3889 11.6352,24.0191 11.0232,21.2586 C10.2811,21.3368 9.68861,21.5972 9.2459,22.0399 C8.81621,22.4956 8.60137,23.01 8.60137,23.5829 C8.60137,24.5725 9.12871,25.3732 10.1834,25.9852 C10.2745,26.0764 10.3201,26.174 10.3201,26.2782 C10.3201,26.3823 10.2745,26.48 10.1834,26.5711 C10.1053,26.6623 10.0076,26.7079 9.89043,26.7079 C9.87741,26.7079 9.81882,26.6948 9.71465,26.6688 C8.97246,26.2652 8.39955,25.7443 7.9959,25.1063 C7.6183,24.4292 7.42949,23.7456 7.42949,23.0555 C7.42949,22.1571 7.70944,21.3433 8.26934,20.6141 C8.85528,19.885 9.61699,19.4162 10.5545,19.2079 C10.1899,17.7495 9.89043,16.6102 9.65606,15.7899 C9.44772,16.0243 9.19707,16.3075 8.9041,16.6395 C8.61114,16.9715 8.43861,17.1701 8.38653,17.2352 C7.91778,17.8472 7.5597,18.3225 7.31231,18.661 C6.8696,19.273 6.54408,19.8003 6.33574,20.243 C6.11439,20.7378 5.91908,21.2782 5.74981,21.8641 C5.58054,22.424 5.4959,23.023 5.4959,23.661 M12.0193,3.79771 C11.0428,4.27948 10.2745,4.96959 9.71465,5.86802 C9.14173,6.7925 8.85528,7.7886 8.85528,8.8563 C8.85528,9.7938 9.08965,11.0568 9.5584,12.6454 C10.4959,11.5126 11.199,10.4644 11.6678,9.50084 C12.1626,8.48521 12.41,7.42401 12.41,6.31724 C12.41,5.48391 12.2798,4.64407 12.0193,3.79771"/>
<path class="" d="M23.4554,15.4374 C23.4554,15.6848 23.3317,15.8085 23.0844,15.8085 C22.837,15.8085 22.7133,15.6848 22.7133,15.4374 L22.7133,12.5468 L21.0531,13.1718 L21.0531,16.3358 C21.0531,16.5832 20.9294,16.7069 20.682,16.7069 C20.4346,16.7069 20.3109,16.5832 20.3109,16.3358 L20.3109,13.4257 L19.6859,13.66 C19.6729,13.6731 19.6208,13.6796 19.5297,13.6796 C19.4255,13.6796 19.3344,13.6405 19.2562,13.5624 C19.1781,13.4843 19.139,13.3931 19.139,13.289 L19.139,12.078 C19.139,11.8827 19.2237,11.759 19.3929,11.7069 L20.3109,11.3944 L20.3109,8.1913 L19.6859,8.40614 C19.6729,8.41916 19.6208,8.42567 19.5297,8.42567 C19.4255,8.42567 19.3344,8.38661 19.2562,8.30848 C19.1781,8.23036 19.139,8.13921 19.139,8.03505 L19.139,6.82411 C19.139,6.64182 19.2237,6.52463 19.3929,6.47255 L20.3109,6.12098 L20.3109,2.97645 C20.3109,2.72906 20.4346,2.60536 20.682,2.60536 C20.9294,2.60536 21.0531,2.72906 21.0531,2.97645 L21.0531,5.86708 L22.7133,5.24208 L22.7133,2.07802 C22.7133,1.83062 22.837,1.70692 23.0844,1.70692 C23.3317,1.70692 23.4554,1.83062 23.4554,2.07802 L23.4554,4.98817 L24.1,4.7538 C24.113,4.74078 24.1586,4.73427 24.2367,4.73427 C24.3278,4.73427 24.4255,4.77333 24.5297,4.85145 C24.6078,4.92958 24.6469,5.02072 24.6469,5.12489 L24.6469,6.33583 C24.6469,6.51812 24.5557,6.64182 24.3734,6.70692 L23.4554,7.01942 L23.4554,10.2225 L24.1,10.0077 C24.113,9.99468 24.1586,9.98817 24.2367,9.98817 C24.3278,9.98817 24.4255,10.0272 24.5297,10.1054 C24.6078,10.1835 24.6469,10.2746 24.6469,10.3788 L24.6469,11.5897 C24.6469,11.759 24.5557,11.8762 24.3734,11.9413 L23.4554,12.2929 L23.4554,15.4374 M22.7133,7.31239 L21.0531,7.89833 L21.0531,11.1015 L22.7133,10.5155 L22.7133,7.31239 "/>
<path class="" d="M34.3349,18.6607 C33.9963,18.6607 33.6578,18.5305 33.3192,18.2701 C32.9937,18.0227 32.8309,17.6581 32.8309,17.1763 C32.8309,16.7727 32.9677,16.4146 33.2411,16.1021 C33.5015,15.7896 33.8466,15.6333 34.2763,15.6333 C34.4195,15.6333 34.5106,15.6398 34.5497,15.6529 C33.9507,14.8846 33.15,14.4875 32.1474,14.4615 C31.3921,14.4615 30.8192,14.6763 30.4286,15.106 C30.2984,15.2753 30.1812,15.5487 30.077,15.9263 C29.9729,16.3039 29.9208,16.6424 29.9208,16.9419 C29.8948,17.1503 29.8817,17.5669 29.8817,18.1919 L29.8817,20.2232 C29.8817,20.8482 29.8948,21.2714 29.9208,21.4927 C29.9729,22.3391 30.1421,22.9445 30.4286,23.3091 C30.8323,23.7518 31.4052,23.9732 32.1474,23.9732 C32.9286,23.9732 33.5927,23.6867 34.1395,23.1138 C34.6994,22.5539 35.0901,21.8313 35.3114,20.9458 C35.3505,20.8156 35.4286,20.7505 35.5458,20.7505 C35.7151,20.7505 35.7997,20.8286 35.7997,20.9849 C35.7997,21.076 35.7606,21.2518 35.6825,21.5122 C35.5002,22.0982 35.1421,22.7167 34.6083,23.3677 C33.9703,24.0969 33.15,24.4615 32.1474,24.4615 C31.5614,24.4615 30.9625,24.3768 30.3505,24.2076 C29.7515,23.9992 29.2242,23.7128 28.7684,23.3482 C28.2606,22.9445 27.8635,22.3977 27.577,21.7076 C27.2906,20.9523 27.1474,20.119 27.1474,19.2076 C27.1474,17.619 27.577,16.356 28.4364,15.4185 C29.2698,14.4549 30.5067,13.9732 32.1474,13.9732 C33.2151,13.9732 34.0614,14.3378 34.6864,15.0669 C35.3375,15.7961 35.663,16.5188 35.663,17.2349 C35.663,17.6516 35.5328,17.9901 35.2724,18.2505 C35.038,18.524 34.7255,18.6607 34.3349,18.6607"/>
</svg>
