<?xml version="1.0" encoding="UTF-8" standalone="no"?>
<svg width="156px" height="39px" viewBox="0 0 156 39"
 xmlns="http://www.w3.org/2000/svg" xmlns:xlink="http://www.w3.org/1999/xlink" version="1.2" baseProfile="tiny">
<title>a-c-amaj7</title>
<desc>Generated by MuseScore 2.0.3</desc>
<polyline class="" fill="none" stroke="#000000" stroke-width="0.40" stroke-linejoin="bevel" points="0.850387,9.20692 153.921,9.20692"/>
<polyline class="" fill="none" stroke="#000000" stroke-width="0.40" stroke-linejoin="bevel" points="0.850387,14.2072 153.921,14.2072"/>
<polyline class="" fill="none" stroke="#000000" stroke-width="0.40" stroke-linejoin="bevel" points="0.850387,19.2076 153.921,19.2076"/>
<polyline class="" fill="none" stroke="#000000" stroke-width="0.40" stroke-linejoin="bevel" points="0.850387,24.2079 153.921,24.2079"/>
<polyline class="" fill="none" stroke="#000000" stroke-width="0.40" stroke-linejoin="bevel" points="0.850387,29.2082 153.921,29.2082"/>
<polyline class="" fill="none" stroke="#000000" stroke-width="0.80" stroke-linejoin="bevel" points="153.521,9.20692 153.521,29.2082"/>
<path class="" d="M58.8491,14.4613 C58.3803,14.4613 58.0418,14.6241 57.8335,14.9496 C57.5991,15.2621 57.4819,15.6853 57.4819,16.2191 C57.4819,16.8311 57.6447,17.3584 57.9702,17.8011 C58.2957,18.2308 58.6538,18.5303 59.0444,18.6996 C59.396,18.8689 59.7671,18.9535 60.1577,18.9535 C60.6134,18.9535 60.9585,18.7907 61.1928,18.4652 C61.4142,18.1397 61.5249,17.7165 61.5249,17.1957 C61.5249,16.5837 61.3621,16.0564 61.0366,15.6136 C60.7111,15.197 60.3595,14.8975 59.9819,14.7152 C59.6043,14.5459 59.2267,14.4613 58.8491,14.4613 M59.5131,13.9535 C60.9194,13.9535 62.0913,14.2269 63.0288,14.7738 C63.9793,15.3207 64.4546,15.9652 64.4546,16.7074 C64.4546,17.5017 63.9663,18.1527 62.9897,18.6605 C62.0131,19.1944 60.8543,19.4613 59.5131,19.4613 C58.1329,19.4613 56.9611,19.1879 55.9975,18.641 C55.034,18.0941 54.5522,17.4496 54.5522,16.7074 C54.5522,15.9131 55.047,15.2621 56.0366,14.7543 C57.0131,14.2204 58.172,13.9535 59.5131,13.9535"/>
<path class="" d="M58.8491,21.9618 C58.3803,21.9618 58.0418,22.1245 57.8335,22.4501 C57.5991,22.7626 57.4819,23.1857 57.4819,23.7196 C57.4819,24.3316 57.6447,24.8589 57.9702,25.3016 C58.2957,25.7313 58.6538,26.0308 59.0444,26.2001 C59.396,26.3693 59.7671,26.454 60.1577,26.454 C60.6134,26.454 60.9585,26.2912 61.1928,25.9657 C61.4142,25.6402 61.5249,25.217 61.5249,24.6961 C61.5249,24.0842 61.3621,23.5568 61.0366,23.1141 C60.7111,22.6975 60.3595,22.398 59.9819,22.2157 C59.6043,22.0464 59.2267,21.9618 58.8491,21.9618 M59.5131,21.454 C60.9194,21.454 62.0913,21.7274 63.0288,22.2743 C63.9793,22.8211 64.4546,23.4657 64.4546,24.2079 C64.4546,25.0021 63.9663,25.6532 62.9897,26.161 C62.0131,26.6948 60.8543,26.9618 59.5131,26.9618 C58.1329,26.9618 56.9611,26.6883 55.9975,26.1415 C55.034,25.5946 54.5522,24.9501 54.5522,24.2079 C54.5522,23.4136 55.047,22.7626 56.0366,22.2547 C57.0131,21.7209 58.172,21.454 59.5131,21.454"/>
<path class="" d="M58.8491,26.9621 C58.3803,26.9621 58.0418,27.1248 57.8335,27.4504 C57.5991,27.7629 57.4819,28.186 57.4819,28.7199 C57.4819,29.3319 57.6447,29.8592 57.9702,30.3019 C58.2957,30.7316 58.6538,31.0311 59.0444,31.2004 C59.396,31.3696 59.7671,31.4543 60.1577,31.4543 C60.6134,31.4543 60.9585,31.2915 61.1928,30.966 C61.4142,30.6405 61.5249,30.2173 61.5249,29.6965 C61.5249,29.0845 61.3621,28.5571 61.0366,28.1144 C60.7111,27.6978 60.3595,27.3983 59.9819,27.216 C59.6043,27.0467 59.2267,26.9621 58.8491,26.9621 M59.5131,26.4543 C60.9194,26.4543 62.0913,26.7277 63.0288,27.2746 C63.9793,27.8215 64.4546,28.466 64.4546,29.2082 C64.4546,30.0025 63.9663,30.6535 62.9897,31.1613 C62.0131,31.6952 60.8543,31.9621 59.5131,31.9621 C58.1329,31.9621 56.9611,31.6887 55.9975,31.1418 C55.034,30.5949 54.5522,29.9504 54.5522,29.2082 C54.5522,28.4139 55.047,27.7629 56.0366,27.2551 C57.0131,26.7212 58.172,26.4543 59.5131,26.4543"/>
<path class="" d="M11.3943,19.0907 C11.3943,19.0907 11.4334,19.0907 11.5115,19.0907 C11.5636,19.0777 11.6092,19.0711 11.6482,19.0711 C13.1066,19.0711 14.3045,19.5855 15.242,20.6141 C16.1795,21.6297 16.6482,22.8146 16.6482,24.1688 C16.6482,25.8485 15.9516,27.2157 14.5584,28.2704 C14.1938,28.5568 13.7186,28.7912 13.1326,28.9735 C13.1977,29.8198 13.2303,30.5034 13.2303,31.0243 C13.2303,31.1284 13.2173,31.506 13.1912,32.1571 C13.1391,33.368 12.7225,34.4162 11.9412,35.3016 C11.186,36.174 10.2485,36.6102 9.12871,36.6102 C8.07403,36.6102 7.17559,36.2391 6.4334,35.4969 C5.69121,34.7417 5.32012,33.8303 5.32012,32.7626 C5.32012,32.2027 5.53496,31.7274 5.96465,31.3368 C6.40736,30.9461 6.92168,30.7508 7.50762,30.7508 C8.02845,30.7508 8.46465,30.9527 8.81621,31.3563 C9.1808,31.7339 9.36309,32.2027 9.36309,32.7626 C9.36309,33.2704 9.1808,33.7066 8.81621,34.0711 C8.45163,34.4357 8.01543,34.618 7.50762,34.618 C7.29929,34.618 7.09746,34.579 6.90215,34.5008 C7.47507,35.3472 8.23679,35.7704 9.18731,35.7704 C10.0857,35.7704 10.8214,35.4058 11.3943,34.6766 C11.9933,33.9214 12.3188,33.0425 12.3709,32.0399 C12.3969,31.4149 12.41,31.0568 12.41,30.9657 C12.41,30.2365 12.3839,29.6376 12.3318,29.1688 C11.6808,29.273 11.1014,29.3251 10.5936,29.3251 C8.78366,29.3251 7.24069,28.6089 5.96465,27.1766 C4.71465,25.7313 4.08965,24.0126 4.08965,22.0204 C4.08965,21.6037 4.12871,21.1805 4.20684,20.7508 C4.28496,20.3993 4.38262,20.0152 4.49981,19.5985 C4.56491,19.3641 4.74069,18.9865 5.02715,18.4657 C5.13132,18.3094 5.24851,18.1141 5.37871,17.8797 C5.50892,17.6454 5.60007,17.4891 5.65215,17.411 C5.78236,17.1506 6.03627,16.799 6.41387,16.3563 C6.51804,16.2391 6.62546,16.1089 6.73614,15.9657 C6.84681,15.8225 6.94121,15.7053 7.01934,15.6141 C7.09746,15.523 7.15606,15.4514 7.19512,15.3993 C7.23418,15.3472 7.52715,15.0021 8.07403,14.3641 C8.20423,14.2339 8.33119,14.0939 8.45489,13.9442 C8.57858,13.7945 8.67949,13.6773 8.75762,13.5926 C8.83574,13.508 8.89434,13.4461 8.9334,13.4071 C8.46465,11.8576 8.17168,10.6206 8.05449,9.69615 C7.96335,8.95396 7.91778,7.93834 7.91778,6.64927 C7.91778,5.51646 8.17819,4.45526 8.69903,3.46568 C9.20684,2.43703 9.91647,1.59719 10.8279,0.946149 C10.893,0.907086 10.9581,0.887555 11.0232,0.887555 C11.1144,0.887555 11.1795,0.907086 11.2186,0.946149 C11.9217,1.7925 12.5272,2.89276 13.035,4.24693 C13.5558,5.6011 13.8162,6.83157 13.8162,7.93834 C13.8162,9.18834 13.5167,10.3602 12.9178,11.454 C12.2407,12.6128 11.3683,13.8107 10.3006,15.0477 C10.574,15.9071 10.9386,17.2547 11.3943,19.0907 M13.0545,28.1727 C13.7316,27.9253 14.2589,27.5021 14.6365,26.9032 C15.0532,26.3303 15.2615,25.6857 15.2615,24.9696 C15.2615,24.0451 14.949,23.2248 14.324,22.5086 C13.686,21.7665 12.8722,21.3498 11.8826,21.2586 C12.4425,24.006 12.8331,26.3107 13.0545,28.1727 M5.4959,23.661 C5.4959,24.9501 6.01673,26.0829 7.0584,27.0594 C8.12611,28.01 9.32403,28.4852 10.6522,28.4852 C11.199,28.4852 11.7329,28.4461 12.2537,28.368 C12.0454,26.3889 11.6352,24.0191 11.0232,21.2586 C10.2811,21.3368 9.68861,21.5972 9.2459,22.0399 C8.81621,22.4956 8.60137,23.01 8.60137,23.5829 C8.60137,24.5725 9.12871,25.3732 10.1834,25.9852 C10.2745,26.0764 10.3201,26.174 10.3201,26.2782 C10.3201,26.3823 10.2745,26.48 10.1834,26.5711 C10.1053,26.6623 10.0076,26.7079 9.89043,26.7079 C9.87741,26.7079 9.81882,26.6948 9.71465,26.6688 C8.97246,26.2652 8.39955,25.7443 7.9959,25.1063 C7.6183,24.4292 7.42949,23.7456 7.42949,23.0555 C7.42949,22.1571 7.70944,21.3433 8.26934,20.6141 C8.85528,19.885 9.61699,19.4162 10.5545,19.2079 C10.1899,17.7495 9.89043,16.6102 9.65606,15.7899 C9.44772,16.0243 9.19707,16.3075 8.9041,16.6395 C8.61114,16.9715 8.43861,17.1701 8.38653,17.2352 C7.91778,17.8472 7.5597,18.3225 7.31231,18.661 C6.8696,19.273 6.54408,19.8003 6.33574,20.243 C6.11439,20.7378 5.91908,21.2782 5.74981,21.8641 C5.58054,22.424 5.4959,23.023 5.4959,23.661 M12.0193,3.79771 C11.0428,4.27948 10.2745,4.96959 9.71465,5.86802 C9.14173,6.7925 8.85528,7.7886 8.85528,8.8563 C8.85528,9.7938 9.08965,11.0568 9.5584,12.6454 C10.4959,11.5126 11.199,10.4644 11.6678,9.50084 C12.1626,8.48521 12.41,7.42401 12.41,6.31724 C12.41,5.48391 12.2798,4.64407 12.0193,3.79771"/>
<path class="" d="M33.4561,12.9372 C33.4561,13.1846 33.3324,13.3083 33.085,13.3083 C32.8376,13.3083 32.7139,13.1846 32.7139,12.9372 L32.7139,10.0466 L31.0537,10.6716 L31.0537,13.8357 C31.0537,14.0831 30.93,14.2068 30.6826,14.2068 C30.4352,14.2068 30.3115,14.0831 30.3115,13.8357 L30.3115,10.9255 L29.6865,11.1599 C29.6735,11.1729 29.6214,11.1794 29.5303,11.1794 C29.4261,11.1794 29.335,11.1404 29.2569,11.0622 C29.1787,10.9841 29.1397,10.893 29.1397,10.7888 L29.1397,9.57786 C29.1397,9.38255 29.2243,9.25885 29.3936,9.20676 L30.3115,8.89426 L30.3115,5.69114 L29.6865,5.90598 C29.6735,5.919 29.6214,5.92551 29.5303,5.92551 C29.4261,5.92551 29.335,5.88645 29.2569,5.80833 C29.1787,5.7302 29.1397,5.63906 29.1397,5.53489 L29.1397,4.32395 C29.1397,4.14166 29.2243,4.02447 29.3936,3.97239 L30.3115,3.62083 L30.3115,0.476296 C30.3115,0.2289 30.4352,0.105202 30.6826,0.105202 C30.93,0.105202 31.0537,0.2289 31.0537,0.476296 L31.0537,3.36692 L32.7139,2.74192 L32.7139,-0.422141 C32.7139,-0.669537 32.8376,-0.793235 33.085,-0.793235 C33.3324,-0.793235 33.4561,-0.669537 33.4561,-0.422141 L33.4561,2.48801 L34.1006,2.25364 C34.1136,2.24062 34.1592,2.23411 34.2373,2.23411 C34.3285,2.23411 34.4261,2.27317 34.5303,2.3513 C34.6084,2.42942 34.6475,2.52057 34.6475,2.62473 L34.6475,3.83567 C34.6475,4.01796 34.5563,4.14166 34.374,4.20676 L33.4561,4.51926 L33.4561,7.72239 L34.1006,7.50755 C34.1136,7.49453 34.1592,7.48801 34.2373,7.48801 C34.3285,7.48801 34.4261,7.52708 34.5303,7.6052 C34.6084,7.68333 34.6475,7.77447 34.6475,7.87864 L34.6475,9.08958 C34.6475,9.25885 34.5563,9.37604 34.374,9.44114 L33.4561,9.7927 L33.4561,12.9372 M32.7139,4.81223 L31.0537,5.39817 L31.0537,8.6013 L32.7139,8.01536 L32.7139,4.81223 "/>
<path class="" d="M28.4558,22.9379 C28.4558,23.1853 28.3321,23.309 28.0847,23.309 C27.8373,23.309 27.7136,23.1853 27.7136,22.9379 L27.7136,20.0472 L26.0534,20.6722 L26.0534,23.8363 C26.0534,24.0837 25.9297,24.2074 25.6823,24.2074 C25.4349,24.2074 25.3112,24.0837 25.3112,23.8363 L25.3112,20.9261 L24.6862,21.1605 C24.6732,21.1735 24.6211,21.1801 24.53,21.1801 C24.4258,21.1801 24.3347,21.141 24.2565,21.0629 C24.1784,20.9847 24.1394,20.8936 24.1394,20.7894 L24.1394,19.5785 C24.1394,19.3832 24.224,19.2595 24.3933,19.2074 L25.3112,18.8949 L25.3112,15.6918 L24.6862,15.9066 C24.6732,15.9196 24.6211,15.9261 24.53,15.9261 C24.4258,15.9261 24.3347,15.8871 24.2565,15.809 C24.1784,15.7308 24.1394,15.6397 24.1394,15.5355 L24.1394,14.3246 C24.1394,14.1423 24.224,14.0251 24.3933,13.973 L25.3112,13.6215 L25.3112,10.4769 C25.3112,10.2295 25.4349,10.1058 25.6823,10.1058 C25.9297,10.1058 26.0534,10.2295 26.0534,10.4769 L26.0534,13.3676 L27.7136,12.7426 L27.7136,9.57849 C27.7136,9.33109 27.8373,9.20739 28.0847,9.20739 C28.3321,9.20739 28.4558,9.33109 28.4558,9.57849 L28.4558,12.4886 L29.1003,12.2543 C29.1133,12.2412 29.1589,12.2347 29.237,12.2347 C29.3282,12.2347 29.4258,12.2738 29.53,12.3519 C29.6081,12.4301 29.6472,12.5212 29.6472,12.6254 L29.6472,13.8363 C29.6472,14.0186 29.556,14.1423 29.3737,14.2074 L28.4558,14.5199 L28.4558,17.723 L29.1003,17.5082 C29.1133,17.4952 29.1589,17.4886 29.237,17.4886 C29.3282,17.4886 29.4258,17.5277 29.53,17.6058 C29.6081,17.684 29.6472,17.7751 29.6472,17.8793 L29.6472,19.0902 C29.6472,19.2595 29.556,19.3767 29.3737,19.4418 L28.4558,19.7933 L28.4558,22.9379 M27.7136,14.8129 L26.0534,15.3988 L26.0534,18.6019 L27.7136,18.016 L27.7136,14.8129 "/>
<path class="" d="M23.4554,15.4374 C23.4554,15.6848 23.3317,15.8085 23.0844,15.8085 C22.837,15.8085 22.7133,15.6848 22.7133,15.4374 L22.7133,12.5468 L21.0531,13.1718 L21.0531,16.3358 C21.0531,16.5832 20.9294,16.7069 20.682,16.7069 C20.4346,16.7069 20.3109,16.5832 20.3109,16.3358 L20.3109,13.4257 L19.6859,13.66 C19.6729,13.6731 19.6208,13.6796 19.5297,13.6796 C19.4255,13.6796 19.3344,13.6405 19.2562,13.5624 C19.1781,13.4843 19.139,13.3931 19.139,13.289 L19.139,12.078 C19.139,11.8827 19.2237,11.759 19.3929,11.7069 L20.3109,11.3944 L20.3109,8.1913 L19.6859,8.40614 C19.6729,8.41916 19.6208,8.42567 19.5297,8.42567 C19.4255,8.42567 19.3344,8.38661 19.2562,8.30848 C19.1781,8.23036 19.139,8.13921 19.139,8.03505 L19.139,6.82411 C19.139,6.64182 19.2237,6.52463 19.3929,6.47255 L20.3109,6.12098 L20.3109,2.97645 C20.3109,2.72906 20.4346,2.60536 20.682,2.60536 C20.9294,2.60536 21.0531,2.72906 21.0531,2.97645 L21.0531,5.86708 L22.7133,5.24208 L22.7133,2.07802 C22.7133,1.83062 22.837,1.70692 23.0844,1.70692 C23.3317,1.70692 23.4554,1.83062 23.4554,2.07802 L23.4554,4.98817 L24.1,4.7538 C24.113,4.74078 24.1586,4.73427 24.2367,4.73427 C24.3278,4.73427 24.4255,4.77333 24.5297,4.85145 C24.6078,4.92958 24.6469,5.02072 24.6469,5.12489 L24.6469,6.33583 C24.6469,6.51812 24.5557,6.64182 24.3734,6.70692 L23.4554,7.01942 L23.4554,10.2225 L24.1,10.0077 C24.113,9.99468 24.1586,9.98817 24.2367,9.98817 C24.3278,9.98817 24.4255,10.0272 24.5297,10.1054 C24.6078,10.1835 24.6469,10.2746 24.6469,10.3788 L24.6469,11.5897 C24.6469,11.759 24.5557,11.8762 24.3734,11.9413 L23.4554,12.2929 L23.4554,15.4374 M22.7133,7.31239 L21.0531,7.89833 L21.0531,11.1015 L22.7133,10.5155 L22.7133,7.31239 "/>
<path class="" d="M44.3355,18.6607 C43.9969,18.6607 43.6584,18.5305 43.3199,18.2701 C42.9943,18.0227 42.8316,17.6581 42.8316,17.1763 C42.8316,16.7727 42.9683,16.4146 43.2417,16.1021 C43.5022,15.7896 43.8472,15.6333 44.2769,15.6333 C44.4201,15.6333 44.5113,15.6398 44.5503,15.6529 C43.9514,14.8846 43.1506,14.4875 42.148,14.4615 C41.3928,14.4615 40.8199,14.6763 40.4292,15.106 C40.299,15.2753 40.1818,15.5487 40.0777,15.9263 C39.9735,16.3039 39.9214,16.6424 39.9214,16.9419 C39.8954,17.1503 39.8824,17.5669 39.8824,18.1919 L39.8824,20.2232 C39.8824,20.8482 39.8954,21.2714 39.9214,21.4927 C39.9735,22.3391 40.1428,22.9445 40.4292,23.3091 C40.8329,23.7518 41.4058,23.9732 42.148,23.9732 C42.9292,23.9732 43.5933,23.6867 44.1402,23.1138 C44.7001,22.5539 45.0907,21.8313 45.312,20.9458 C45.3511,20.8156 45.4292,20.7505 45.5464,20.7505 C45.7157,20.7505 45.8003,20.8286 45.8003,20.9849 C45.8003,21.076 45.7613,21.2518 45.6831,21.5122 C45.5009,22.0982 45.1428,22.7167 44.6089,23.3677 C43.9709,24.0969 43.1506,24.4615 42.148,24.4615 C41.562,24.4615 40.9631,24.3768 40.3511,24.2076 C39.7522,23.9992 39.2248,23.7128 38.7691,23.3482 C38.2613,22.9445 37.8641,22.3977 37.5777,21.7076 C37.2912,20.9523 37.148,20.119 37.148,19.2076 C37.148,17.619 37.5777,16.356 38.437,15.4185 C39.2704,14.4549 40.5074,13.9732 42.148,13.9732 C43.2157,13.9732 44.062,14.3378 44.687,15.0669 C45.3381,15.7961 45.6636,16.5188 45.6636,17.2349 C45.6636,17.6516 45.5334,17.9901 45.273,18.2505 C45.0386,18.524 44.7261,18.6607 44.3355,18.6607"/>
</svg>
