<?xml version="1.0" encoding="UTF-8" standalone="no"?>
<svg width="156px" height="39px" viewBox="0 0 156 39"
 xmlns="http://www.w3.org/2000/svg" xmlns:xlink="http://www.w3.org/1999/xlink" version="1.2" baseProfile="tiny">
<title>bb-c-f7</title>
<desc>Generated by MuseScore 2.0.3</desc>
<polyline class="" fill="none" stroke="#000000" stroke-width="0.40" stroke-linejoin="bevel" points="0.850387,9.20692 153.921,9.20692"/>
<polyline class="" fill="none" stroke="#000000" stroke-width="0.40" stroke-linejoin="bevel" points="0.850387,14.2072 153.921,14.2072"/>
<polyline class="" fill="none" stroke="#000000" stroke-width="0.40" stroke-linejoin="bevel" points="0.850387,19.2076 153.921,19.2076"/>
<polyline class="" fill="none" stroke="#000000" stroke-width="0.40" stroke-linejoin="bevel" points="0.850387,24.2079 153.921,24.2079"/>
<polyline class="" fill="none" stroke="#000000" stroke-width="0.40" stroke-linejoin="bevel" points="0.850387,29.2082 153.921,29.2082"/>
<polyline class="" fill="none" stroke="#000000" stroke-width="0.80" stroke-linejoin="bevel" points="153.521,9.20692 153.521,29.2082"/>
<path class="" d="M52.8925,14.4613 C52.4237,14.4613 52.0852,14.6241 51.8768,14.9496 C51.6425,15.2621 51.5253,15.6853 51.5253,16.2191 C51.5253,16.8311 51.688,17.3584 52.0136,17.8011 C52.3391,18.2308 52.6971,18.5303 53.0878,18.6996 C53.4393,18.8689 53.8104,18.9535 54.2011,18.9535 C54.6568,18.9535 55.0018,18.7907 55.2362,18.4652 C55.4576,18.1397 55.5682,17.7165 55.5682,17.1957 C55.5682,16.5837 55.4055,16.0564 55.08,15.6136 C54.7544,15.197 54.4029,14.8975 54.0253,14.7152 C53.6477,14.5459 53.2701,14.4613 52.8925,14.4613 M53.5565,13.9535 C54.9628,13.9535 56.1346,14.2269 57.0721,14.7738 C58.0227,15.3207 58.4979,15.9652 58.4979,16.7074 C58.4979,17.5017 58.0096,18.1527 57.0331,18.6605 C56.0565,19.1944 54.8977,19.4613 53.5565,19.4613 C52.1763,19.4613 51.0044,19.1879 50.0409,18.641 C49.0774,18.0941 48.5956,17.4496 48.5956,16.7074 C48.5956,15.9131 49.0904,15.2621 50.08,14.7543 C51.0565,14.2204 52.2154,13.9535 53.5565,13.9535"/>
<path class="" d="M52.8925,19.4616 C52.4237,19.4616 52.0852,19.6244 51.8768,19.9499 C51.6425,20.2624 51.5253,20.6856 51.5253,21.2194 C51.5253,21.8314 51.688,22.3588 52.0136,22.8015 C52.3391,23.2311 52.6971,23.5306 53.0878,23.6999 C53.4393,23.8692 53.8104,23.9538 54.2011,23.9538 C54.6568,23.9538 55.0018,23.791 55.2362,23.4655 C55.4576,23.14 55.5682,22.7168 55.5682,22.196 C55.5682,21.584 55.4055,21.0567 55.08,20.614 C54.7544,20.1973 54.4029,19.8978 54.0253,19.7155 C53.6477,19.5463 53.2701,19.4616 52.8925,19.4616 M53.5565,18.9538 C54.9628,18.9538 56.1346,19.2272 57.0721,19.7741 C58.0227,20.321 58.4979,20.9655 58.4979,21.7077 C58.4979,22.502 58.0096,23.153 57.0331,23.6608 C56.0565,24.1947 54.8977,24.4616 53.5565,24.4616 C52.1763,24.4616 51.0044,24.1882 50.0409,23.6413 C49.0774,23.0944 48.5956,22.4499 48.5956,21.7077 C48.5956,20.9134 49.0904,20.2624 50.08,19.7546 C51.0565,19.2207 52.2154,18.9538 53.5565,18.9538"/>
<path class="" d="M52.8925,26.9621 C52.4237,26.9621 52.0852,27.1248 51.8768,27.4504 C51.6425,27.7629 51.5253,28.186 51.5253,28.7199 C51.5253,29.3319 51.688,29.8592 52.0136,30.3019 C52.3391,30.7316 52.6971,31.0311 53.0878,31.2004 C53.4393,31.3696 53.8104,31.4543 54.2011,31.4543 C54.6568,31.4543 55.0018,31.2915 55.2362,30.966 C55.4576,30.6405 55.5682,30.2173 55.5682,29.6965 C55.5682,29.0845 55.4055,28.5571 55.08,28.1144 C54.7544,27.6978 54.4029,27.3983 54.0253,27.216 C53.6477,27.0467 53.2701,26.9621 52.8925,26.9621 M53.5565,26.4543 C54.9628,26.4543 56.1346,26.7277 57.0721,27.2746 C58.0227,27.8215 58.4979,28.466 58.4979,29.2082 C58.4979,30.0025 58.0096,30.6535 57.0331,31.1613 C56.0565,31.6952 54.8977,31.9621 53.5565,31.9621 C52.1763,31.9621 51.0044,31.6887 50.0409,31.1418 C49.0774,30.5949 48.5956,29.9504 48.5956,29.2082 C48.5956,28.4139 49.0904,27.7629 50.08,27.2551 C51.0565,26.7212 52.2154,26.4543 53.5565,26.4543"/>
<path class="" d="M11.3943,19.0907 C11.3943,19.0907 11.4334,19.0907 11.5115,19.0907 C11.5636,19.0777 11.6092,19.0711 11.6482,19.0711 C13.1066,19.0711 14.3045,19.5855 15.242,20.6141 C16.1795,21.6297 16.6482,22.8146 16.6482,24.1688 C16.6482,25.8485 15.9516,27.2157 14.5584,28.2704 C14.1938,28.5568 13.7186,28.7912 13.1326,28.9735 C13.1977,29.8198 13.2303,30.5034 13.2303,31.0243 C13.2303,31.1284 13.2173,31.506 13.1912,32.1571 C13.1391,33.368 12.7225,34.4162 11.9412,35.3016 C11.186,36.174 10.2485,36.6102 9.12871,36.6102 C8.07403,36.6102 7.17559,36.2391 6.4334,35.4969 C5.69121,34.7417 5.32012,33.8303 5.32012,32.7626 C5.32012,32.2027 5.53496,31.7274 5.96465,31.3368 C6.40736,30.9461 6.92168,30.7508 7.50762,30.7508 C8.02845,30.7508 8.46465,30.9527 8.81621,31.3563 C9.1808,31.7339 9.36309,32.2027 9.36309,32.7626 C9.36309,33.2704 9.1808,33.7066 8.81621,34.0711 C8.45163,34.4357 8.01543,34.618 7.50762,34.618 C7.29929,34.618 7.09746,34.579 6.90215,34.5008 C7.47507,35.3472 8.23679,35.7704 9.18731,35.7704 C10.0857,35.7704 10.8214,35.4058 11.3943,34.6766 C11.9933,33.9214 12.3188,33.0425 12.3709,32.0399 C12.3969,31.4149 12.41,31.0568 12.41,30.9657 C12.41,30.2365 12.3839,29.6376 12.3318,29.1688 C11.6808,29.273 11.1014,29.3251 10.5936,29.3251 C8.78366,29.3251 7.24069,28.6089 5.96465,27.1766 C4.71465,25.7313 4.08965,24.0126 4.08965,22.0204 C4.08965,21.6037 4.12871,21.1805 4.20684,20.7508 C4.28496,20.3993 4.38262,20.0152 4.49981,19.5985 C4.56491,19.3641 4.74069,18.9865 5.02715,18.4657 C5.13132,18.3094 5.24851,18.1141 5.37871,17.8797 C5.50892,17.6454 5.60007,17.4891 5.65215,17.411 C5.78236,17.1506 6.03627,16.799 6.41387,16.3563 C6.51804,16.2391 6.62546,16.1089 6.73614,15.9657 C6.84681,15.8225 6.94121,15.7053 7.01934,15.6141 C7.09746,15.523 7.15606,15.4514 7.19512,15.3993 C7.23418,15.3472 7.52715,15.0021 8.07403,14.3641 C8.20423,14.2339 8.33119,14.0939 8.45489,13.9442 C8.57858,13.7945 8.67949,13.6773 8.75762,13.5926 C8.83574,13.508 8.89434,13.4461 8.9334,13.4071 C8.46465,11.8576 8.17168,10.6206 8.05449,9.69615 C7.96335,8.95396 7.91778,7.93834 7.91778,6.64927 C7.91778,5.51646 8.17819,4.45526 8.69903,3.46568 C9.20684,2.43703 9.91647,1.59719 10.8279,0.946149 C10.893,0.907086 10.9581,0.887555 11.0232,0.887555 C11.1144,0.887555 11.1795,0.907086 11.2186,0.946149 C11.9217,1.7925 12.5272,2.89276 13.035,4.24693 C13.5558,5.6011 13.8162,6.83157 13.8162,7.93834 C13.8162,9.18834 13.5167,10.3602 12.9178,11.454 C12.2407,12.6128 11.3683,13.8107 10.3006,15.0477 C10.574,15.9071 10.9386,17.2547 11.3943,19.0907 M13.0545,28.1727 C13.7316,27.9253 14.2589,27.5021 14.6365,26.9032 C15.0532,26.3303 15.2615,25.6857 15.2615,24.9696 C15.2615,24.0451 14.949,23.2248 14.324,22.5086 C13.686,21.7665 12.8722,21.3498 11.8826,21.2586 C12.4425,24.006 12.8331,26.3107 13.0545,28.1727 M5.4959,23.661 C5.4959,24.9501 6.01673,26.0829 7.0584,27.0594 C8.12611,28.01 9.32403,28.4852 10.6522,28.4852 C11.199,28.4852 11.7329,28.4461 12.2537,28.368 C12.0454,26.3889 11.6352,24.0191 11.0232,21.2586 C10.2811,21.3368 9.68861,21.5972 9.2459,22.0399 C8.81621,22.4956 8.60137,23.01 8.60137,23.5829 C8.60137,24.5725 9.12871,25.3732 10.1834,25.9852 C10.2745,26.0764 10.3201,26.174 10.3201,26.2782 C10.3201,26.3823 10.2745,26.48 10.1834,26.5711 C10.1053,26.6623 10.0076,26.7079 9.89043,26.7079 C9.87741,26.7079 9.81882,26.6948 9.71465,26.6688 C8.97246,26.2652 8.39955,25.7443 7.9959,25.1063 C7.6183,24.4292 7.42949,23.7456 7.42949,23.0555 C7.42949,22.1571 7.70944,21.3433 8.26934,20.6141 C8.85528,19.885 9.61699,19.4162 10.5545,19.2079 C10.1899,17.7495 9.89043,16.6102 9.65606,15.7899 C9.44772,16.0243 9.19707,16.3075 8.9041,16.6395 C8.61114,16.9715 8.43861,17.1701 8.38653,17.2352 C7.91778,17.8472 7.5597,18.3225 7.31231,18.661 C6.8696,19.273 6.54408,19.8003 6.33574,20.243 C6.11439,20.7378 5.91908,21.2782 5.74981,21.8641 C5.58054,22.424 5.4959,23.023 5.4959,23.661 M12.0193,3.79771 C11.0428,4.27948 10.2745,4.96959 9.71465,5.86802 C9.14173,6.7925 8.85528,7.7886 8.85528,8.8563 C8.85528,9.7938 9.08965,11.0568 9.5584,12.6454 C10.4959,11.5126 11.199,10.4644 11.6678,9.50084 C12.1626,8.48521 12.41,7.42401 12.41,6.31724 C12.41,5.48391 12.2798,4.64407 12.0193,3.79771"/>
<path class="" d="M25.1745,10.8868 L25.1745,12.4297 C25.1745,12.9766 25.2006,13.4128 25.2526,13.7383 C25.6823,13.3737 25.9883,13.1003 26.1706,12.918 C26.3789,12.7097 26.5873,12.4232 26.7956,12.0586 C27.0039,11.6941 27.1081,11.3295 27.1081,10.9649 C27.1081,10.6003 27.03,10.2878 26.8737,10.0274 C26.7175,9.76698 26.5092,9.63677 26.2487,9.63677 C25.9362,9.63677 25.6758,9.75395 25.4675,9.98833 C25.2722,10.2487 25.1745,10.5482 25.1745,10.8868 M24.3542,14.461 L24.1003,2.56645 C24.2826,2.46229 24.4649,2.4102 24.6472,2.4102 C24.8295,2.4102 25.0118,2.46229 25.194,2.56645 L25.0378,9.46099 C25.5717,9.00526 26.1836,8.77739 26.8737,8.77739 C27.3815,8.77739 27.8047,8.98573 28.1433,9.40239 C28.4818,9.81906 28.6511,10.2943 28.6511,10.8282 C28.6511,11.1667 28.5404,11.5248 28.319,11.9024 C28.1107,12.254 27.8894,12.5274 27.655,12.7227 C27.5248,12.8269 27.1927,13.0873 26.6589,13.504 C26.5026,13.6211 26.3171,13.7579 26.1023,13.9141 C25.8874,14.0704 25.7539,14.168 25.7019,14.2071 C25.6107,14.2592 25.5261,14.3633 25.448,14.5196 C25.3568,14.6498 25.2526,14.7605 25.1355,14.8516 C25.0443,14.9297 24.9336,14.9688 24.8034,14.9688 C24.6732,14.9688 24.569,14.9232 24.4909,14.8321 C24.3998,14.7409 24.3542,14.6172 24.3542,14.461"/>
<path class="" d="M20.1742,18.3872 L20.1742,19.9302 C20.1742,20.4771 20.2002,20.9133 20.2523,21.2388 C20.682,20.8742 20.988,20.6008 21.1703,20.4185 C21.3786,20.2102 21.587,19.9237 21.7953,19.5591 C22.0036,19.1945 22.1078,18.8299 22.1078,18.4654 C22.1078,18.1008 22.0297,17.7883 21.8734,17.5279 C21.7172,17.2674 21.5088,17.1372 21.2484,17.1372 C20.9359,17.1372 20.6755,17.2544 20.4672,17.4888 C20.2719,17.7492 20.1742,18.0487 20.1742,18.3872 M19.3539,21.9615 L19.1,10.0669 C19.2823,9.96276 19.4646,9.91068 19.6469,9.91068 C19.8292,9.91068 20.0114,9.96276 20.1937,10.0669 L20.0375,16.9615 C20.5713,16.5057 21.1833,16.2779 21.8734,16.2779 C22.3812,16.2779 22.8044,16.4862 23.143,16.9029 C23.4815,17.3195 23.6508,17.7948 23.6508,18.3286 C23.6508,18.6672 23.5401,19.0253 23.3187,19.4029 C23.1104,19.7544 22.889,20.0279 22.6547,20.2232 C22.5245,20.3273 22.1924,20.5878 21.6586,21.0044 C21.5023,21.1216 21.3168,21.2583 21.1019,21.4146 C20.8871,21.5708 20.7536,21.6685 20.7015,21.7076 C20.6104,21.7596 20.5258,21.8638 20.4476,22.0201 C20.3565,22.1503 20.2523,22.2609 20.1351,22.3521 C20.044,22.4302 19.9333,22.4693 19.8031,22.4693 C19.6729,22.4693 19.5687,22.4237 19.4906,22.3326 C19.3995,22.2414 19.3539,22.1177 19.3539,21.9615"/>
<path class="" d="M38.3789,18.6607 C38.0403,18.6607 37.7018,18.5305 37.3632,18.2701 C37.0377,18.0227 36.875,17.6581 36.875,17.1763 C36.875,16.7727 37.0117,16.4146 37.2851,16.1021 C37.5455,15.7896 37.8906,15.6333 38.3203,15.6333 C38.4635,15.6333 38.5546,15.6398 38.5937,15.6529 C37.9947,14.8846 37.194,14.4875 36.1914,14.4615 C35.4362,14.4615 34.8632,14.6763 34.4726,15.106 C34.3424,15.2753 34.2252,15.5487 34.121,15.9263 C34.0169,16.3039 33.9648,16.6424 33.9648,16.9419 C33.9388,17.1503 33.9257,17.5669 33.9257,18.1919 L33.9257,20.2232 C33.9257,20.8482 33.9388,21.2714 33.9648,21.4927 C34.0169,22.3391 34.1862,22.9445 34.4726,23.3091 C34.8763,23.7518 35.4492,23.9732 36.1914,23.9732 C36.9726,23.9732 37.6367,23.6867 38.1835,23.1138 C38.7434,22.5539 39.1341,21.8313 39.3554,20.9458 C39.3945,20.8156 39.4726,20.7505 39.5898,20.7505 C39.7591,20.7505 39.8437,20.8286 39.8437,20.9849 C39.8437,21.076 39.8046,21.2518 39.7265,21.5122 C39.5442,22.0982 39.1862,22.7167 38.6523,23.3677 C38.0143,24.0969 37.194,24.4615 36.1914,24.4615 C35.6054,24.4615 35.0065,24.3768 34.3945,24.2076 C33.7955,23.9992 33.2682,23.7128 32.8125,23.3482 C32.3046,22.9445 31.9075,22.3977 31.621,21.7076 C31.3346,20.9523 31.1914,20.119 31.1914,19.2076 C31.1914,17.619 31.621,16.356 32.4804,15.4185 C33.3138,14.4549 34.5507,13.9732 36.1914,13.9732 C37.2591,13.9732 38.1054,14.3378 38.7304,15.0669 C39.3815,15.7961 39.707,16.5188 39.707,17.2349 C39.707,17.6516 39.5768,17.9901 39.3164,18.2505 C39.082,18.524 38.7695,18.6607 38.3789,18.6607"/>
</svg>
