<?xml version="1.0" encoding="UTF-8" standalone="no"?>
<svg width="156px" height="42px" viewBox="0 0 156 42"
 xmlns="http://www.w3.org/2000/svg" xmlns:xlink="http://www.w3.org/1999/xlink" version="1.2" baseProfile="tiny">
<title>gb-c-db7</title>
<desc>Generated by MuseScore 2.0.3</desc>
<polyline class="" fill="none" stroke="#000000" stroke-width="0.40" stroke-linejoin="bevel" points="0.850387,9.20692 153.921,9.20692"/>
<polyline class="" fill="none" stroke="#000000" stroke-width="0.40" stroke-linejoin="bevel" points="0.850387,14.2072 153.921,14.2072"/>
<polyline class="" fill="none" stroke="#000000" stroke-width="0.40" stroke-linejoin="bevel" points="0.850387,19.2076 153.921,19.2076"/>
<polyline class="" fill="none" stroke="#000000" stroke-width="0.40" stroke-linejoin="bevel" points="0.850387,24.2079 153.921,24.2079"/>
<polyline class="" fill="none" stroke="#000000" stroke-width="0.40" stroke-linejoin="bevel" points="0.850387,29.2082 153.921,29.2082"/>
<polyline class="" fill="none" stroke="#000000" stroke-width="0.80" stroke-linejoin="bevel" points="153.521,9.20692 153.521,29.2082"/>
<polyline class="" fill="none" stroke="#000000" stroke-width="0.80" stroke-linecap="square" stroke-linejoin="bevel" points="67.0967,34.2085 80.0007,34.2085"/>
<path class="" d="M72.8937,19.4616 C72.425,19.4616 72.0864,19.6244 71.8781,19.9499 C71.6437,20.2624 71.5265,20.6856 71.5265,21.2194 C71.5265,21.8314 71.6893,22.3588 72.0148,22.8015 C72.3403,23.2311 72.6984,23.5306 73.089,23.6999 C73.4406,23.8692 73.8117,23.9538 74.2023,23.9538 C74.658,23.9538 75.0031,23.791 75.2375,23.4655 C75.4588,23.14 75.5695,22.7168 75.5695,22.196 C75.5695,21.584 75.4067,21.0567 75.0812,20.614 C74.7557,20.1973 74.4041,19.8978 74.0265,19.7155 C73.6489,19.5463 73.2713,19.4616 72.8937,19.4616 M73.5578,18.9538 C74.964,18.9538 76.1359,19.2272 77.0734,19.7741 C78.0239,20.321 78.4992,20.9655 78.4992,21.7077 C78.4992,22.502 78.0109,23.153 77.0343,23.6608 C76.0578,24.1947 74.8989,24.4616 73.5578,24.4616 C72.1776,24.4616 71.0057,24.1882 70.0422,23.6413 C69.0786,23.0944 68.5968,22.4499 68.5968,21.7077 C68.5968,20.9134 69.0916,20.2624 70.0812,19.7546 C71.0578,19.2207 72.2166,18.9538 73.5578,18.9538"/>
<path class="" d="M72.8937,24.4619 C72.425,24.4619 72.0864,24.6247 71.8781,24.9502 C71.6437,25.2627 71.5265,25.6859 71.5265,26.2197 C71.5265,26.8317 71.6893,27.3591 72.0148,27.8018 C72.3403,28.2315 72.6984,28.5309 73.089,28.7002 C73.4406,28.8695 73.8117,28.9541 74.2023,28.9541 C74.658,28.9541 75.0031,28.7914 75.2375,28.4658 C75.4588,28.1403 75.5695,27.7171 75.5695,27.1963 C75.5695,26.5843 75.4067,26.057 75.0812,25.6143 C74.7557,25.1976 74.4041,24.8981 74.0265,24.7158 C73.6489,24.5466 73.2713,24.4619 72.8937,24.4619 M73.5578,23.9541 C74.964,23.9541 76.1359,24.2276 77.0734,24.7744 C78.0239,25.3213 78.4992,25.9658 78.4992,26.708 C78.4992,27.5023 78.0109,28.1533 77.0343,28.6611 C76.0578,29.195 74.8989,29.4619 73.5578,29.4619 C72.1776,29.4619 71.0057,29.1885 70.0422,28.6416 C69.0786,28.0947 68.5968,27.4502 68.5968,26.708 C68.5968,25.9138 69.0916,25.2627 70.0812,24.7549 C71.0578,24.221 72.2166,23.9541 73.5578,23.9541"/>
<path class="" d="M72.8937,34.4626 C72.425,34.4626 72.0864,34.6253 71.8781,34.9508 C71.6437,35.2633 71.5265,35.6865 71.5265,36.2204 C71.5265,36.8324 71.6893,37.3597 72.0148,37.8024 C72.3403,38.2321 72.6984,38.5316 73.089,38.7008 C73.4406,38.8701 73.8117,38.9547 74.2023,38.9547 C74.658,38.9547 75.0031,38.792 75.2375,38.4665 C75.4588,38.1409 75.5695,37.7178 75.5695,37.1969 C75.5695,36.585 75.4067,36.0576 75.0812,35.6149 C74.7557,35.1982 74.4041,34.8988 74.0265,34.7165 C73.6489,34.5472 73.2713,34.4626 72.8937,34.4626 M73.5578,33.9547 C74.964,33.9547 76.1359,34.2282 77.0734,34.7751 C78.0239,35.3219 78.4992,35.9665 78.4992,36.7087 C78.4992,37.5029 78.0109,38.154 77.0343,38.6618 C76.0578,39.1956 74.8989,39.4626 73.5578,39.4626 C72.1776,39.4626 71.0057,39.1891 70.0422,38.6422 C69.0786,38.0954 68.5968,37.4508 68.5968,36.7087 C68.5968,35.9144 69.0916,35.2633 70.0812,34.7555 C71.0578,34.2217 72.2166,33.9547 73.5578,33.9547"/>
<path class="" d="M11.3943,19.0907 C11.3943,19.0907 11.4334,19.0907 11.5115,19.0907 C11.5636,19.0777 11.6092,19.0711 11.6482,19.0711 C13.1066,19.0711 14.3045,19.5855 15.242,20.6141 C16.1795,21.6297 16.6482,22.8146 16.6482,24.1688 C16.6482,25.8485 15.9516,27.2157 14.5584,28.2704 C14.1938,28.5568 13.7186,28.7912 13.1326,28.9735 C13.1977,29.8198 13.2303,30.5034 13.2303,31.0243 C13.2303,31.1284 13.2173,31.506 13.1912,32.1571 C13.1391,33.368 12.7225,34.4162 11.9412,35.3016 C11.186,36.174 10.2485,36.6102 9.12871,36.6102 C8.07403,36.6102 7.17559,36.2391 6.4334,35.4969 C5.69121,34.7417 5.32012,33.8303 5.32012,32.7626 C5.32012,32.2027 5.53496,31.7274 5.96465,31.3368 C6.40736,30.9461 6.92168,30.7508 7.50762,30.7508 C8.02845,30.7508 8.46465,30.9527 8.81621,31.3563 C9.1808,31.7339 9.36309,32.2027 9.36309,32.7626 C9.36309,33.2704 9.1808,33.7066 8.81621,34.0711 C8.45163,34.4357 8.01543,34.618 7.50762,34.618 C7.29929,34.618 7.09746,34.579 6.90215,34.5008 C7.47507,35.3472 8.23679,35.7704 9.18731,35.7704 C10.0857,35.7704 10.8214,35.4058 11.3943,34.6766 C11.9933,33.9214 12.3188,33.0425 12.3709,32.0399 C12.3969,31.4149 12.41,31.0568 12.41,30.9657 C12.41,30.2365 12.3839,29.6376 12.3318,29.1688 C11.6808,29.273 11.1014,29.3251 10.5936,29.3251 C8.78366,29.3251 7.24069,28.6089 5.96465,27.1766 C4.71465,25.7313 4.08965,24.0126 4.08965,22.0204 C4.08965,21.6037 4.12871,21.1805 4.20684,20.7508 C4.28496,20.3993 4.38262,20.0152 4.49981,19.5985 C4.56491,19.3641 4.74069,18.9865 5.02715,18.4657 C5.13132,18.3094 5.24851,18.1141 5.37871,17.8797 C5.50892,17.6454 5.60007,17.4891 5.65215,17.411 C5.78236,17.1506 6.03627,16.799 6.41387,16.3563 C6.51804,16.2391 6.62546,16.1089 6.73614,15.9657 C6.84681,15.8225 6.94121,15.7053 7.01934,15.6141 C7.09746,15.523 7.15606,15.4514 7.19512,15.3993 C7.23418,15.3472 7.52715,15.0021 8.07403,14.3641 C8.20423,14.2339 8.33119,14.0939 8.45489,13.9442 C8.57858,13.7945 8.67949,13.6773 8.75762,13.5926 C8.83574,13.508 8.89434,13.4461 8.9334,13.4071 C8.46465,11.8576 8.17168,10.6206 8.05449,9.69615 C7.96335,8.95396 7.91778,7.93834 7.91778,6.64927 C7.91778,5.51646 8.17819,4.45526 8.69903,3.46568 C9.20684,2.43703 9.91647,1.59719 10.8279,0.946149 C10.893,0.907086 10.9581,0.887555 11.0232,0.887555 C11.1144,0.887555 11.1795,0.907086 11.2186,0.946149 C11.9217,1.7925 12.5272,2.89276 13.035,4.24693 C13.5558,5.6011 13.8162,6.83157 13.8162,7.93834 C13.8162,9.18834 13.5167,10.3602 12.9178,11.454 C12.2407,12.6128 11.3683,13.8107 10.3006,15.0477 C10.574,15.9071 10.9386,17.2547 11.3943,19.0907 M13.0545,28.1727 C13.7316,27.9253 14.2589,27.5021 14.6365,26.9032 C15.0532,26.3303 15.2615,25.6857 15.2615,24.9696 C15.2615,24.0451 14.949,23.2248 14.324,22.5086 C13.686,21.7665 12.8722,21.3498 11.8826,21.2586 C12.4425,24.006 12.8331,26.3107 13.0545,28.1727 M5.4959,23.661 C5.4959,24.9501 6.01673,26.0829 7.0584,27.0594 C8.12611,28.01 9.32403,28.4852 10.6522,28.4852 C11.199,28.4852 11.7329,28.4461 12.2537,28.368 C12.0454,26.3889 11.6352,24.0191 11.0232,21.2586 C10.2811,21.3368 9.68861,21.5972 9.2459,22.0399 C8.81621,22.4956 8.60137,23.01 8.60137,23.5829 C8.60137,24.5725 9.12871,25.3732 10.1834,25.9852 C10.2745,26.0764 10.3201,26.174 10.3201,26.2782 C10.3201,26.3823 10.2745,26.48 10.1834,26.5711 C10.1053,26.6623 10.0076,26.7079 9.89043,26.7079 C9.87741,26.7079 9.81882,26.6948 9.71465,26.6688 C8.97246,26.2652 8.39955,25.7443 7.9959,25.1063 C7.6183,24.4292 7.42949,23.7456 7.42949,23.0555 C7.42949,22.1571 7.70944,21.3433 8.26934,20.6141 C8.85528,19.885 9.61699,19.4162 10.5545,19.2079 C10.1899,17.7495 9.89043,16.6102 9.65606,15.7899 C9.44772,16.0243 9.19707,16.3075 8.9041,16.6395 C8.61114,16.9715 8.43861,17.1701 8.38653,17.2352 C7.91778,17.8472 7.5597,18.3225 7.31231,18.661 C6.8696,19.273 6.54408,19.8003 6.33574,20.243 C6.11439,20.7378 5.91908,21.2782 5.74981,21.8641 C5.58054,22.424 5.4959,23.023 5.4959,23.661 M12.0193,3.79771 C11.0428,4.27948 10.2745,4.96959 9.71465,5.86802 C9.14173,6.7925 8.85528,7.7886 8.85528,8.8563 C8.85528,9.7938 9.08965,11.0568 9.5584,12.6454 C10.4959,11.5126 11.199,10.4644 11.6678,9.50084 C12.1626,8.48521 12.41,7.42401 12.41,6.31724 C12.41,5.48391 12.2798,4.64407 12.0193,3.79771"/>
<path class="" d="M45.1758,15.8871 L45.1758,17.4301 C45.1758,17.9769 45.2018,18.4131 45.2539,18.7386 C45.6836,18.3741 45.9896,18.1006 46.1719,17.9183 C46.3802,17.71 46.5885,17.4235 46.7969,17.059 C47.0052,16.6944 47.1094,16.3298 47.1094,15.9652 C47.1094,15.6006 47.0312,15.2881 46.875,15.0277 C46.7187,14.7673 46.5104,14.6371 46.25,14.6371 C45.9375,14.6371 45.6771,14.7543 45.4687,14.9886 C45.2734,15.2491 45.1758,15.5485 45.1758,15.8871 M44.3555,19.4613 L44.1016,7.56677 C44.2839,7.4626 44.4661,7.41052 44.6484,7.41052 C44.8307,7.41052 45.013,7.4626 45.1953,7.56677 L45.0391,14.4613 C45.5729,14.0056 46.1849,13.7777 46.875,13.7777 C47.3828,13.7777 47.806,13.986 48.1445,14.4027 C48.4831,14.8194 48.6523,15.2946 48.6523,15.8285 C48.6523,16.167 48.5417,16.5251 48.3203,16.9027 C48.112,17.2543 47.8906,17.5277 47.6562,17.723 C47.526,17.8272 47.194,18.0876 46.6602,18.5043 C46.5039,18.6215 46.3184,18.7582 46.1035,18.9144 C45.8887,19.0707 45.7552,19.1683 45.7031,19.2074 C45.612,19.2595 45.5273,19.3636 45.4492,19.5199 C45.3581,19.6501 45.2539,19.7608 45.1367,19.8519 C45.0456,19.9301 44.9349,19.9691 44.8047,19.9691 C44.6745,19.9691 44.5703,19.9235 44.4922,19.8324 C44.401,19.7412 44.3555,19.6176 44.3555,19.4613"/>
<path class="" d="M40.1755,23.3876 L40.1755,24.9305 C40.1755,25.4774 40.2015,25.9136 40.2536,26.2391 C40.6833,25.8745 40.9893,25.6011 41.1716,25.4188 C41.3799,25.2105 41.5882,24.924 41.7966,24.5594 C42.0049,24.1948 42.1091,23.8303 42.1091,23.4657 C42.1091,23.1011 42.0309,22.7886 41.8747,22.5282 C41.7184,22.2678 41.5101,22.1376 41.2497,22.1376 C40.9372,22.1376 40.6768,22.2547 40.4684,22.4891 C40.2731,22.7495 40.1755,23.049 40.1755,23.3876 M39.3551,26.9618 L39.1012,15.0672 C39.2835,14.9631 39.4658,14.911 39.6481,14.911 C39.8304,14.911 40.0127,14.9631 40.195,15.0672 L40.0387,21.9618 C40.5726,21.506 41.1846,21.2782 41.8747,21.2782 C42.3825,21.2782 42.8057,21.4865 43.1442,21.9032 C43.4828,22.3198 43.652,22.7951 43.652,23.329 C43.652,23.6675 43.5413,24.0256 43.32,24.4032 C43.1117,24.7547 42.8903,25.0282 42.6559,25.2235 C42.5257,25.3277 42.1937,25.5881 41.6598,26.0047 C41.5036,26.1219 41.318,26.2586 41.1032,26.4149 C40.8884,26.5711 40.7549,26.6688 40.7028,26.7079 C40.6117,26.76 40.527,26.8641 40.4489,27.0204 C40.3578,27.1506 40.2536,27.2613 40.1364,27.3524 C40.0453,27.4305 39.9346,27.4696 39.8044,27.4696 C39.6742,27.4696 39.57,27.424 39.4919,27.3329 C39.4007,27.2417 39.3551,27.118 39.3551,26.9618"/>
<path class="" d="M35.1751,13.3869 L35.1751,14.9299 C35.1751,15.4768 35.2012,15.913 35.2533,16.2385 C35.683,15.8739 35.9889,15.6005 36.1712,15.4182 C36.3796,15.2098 36.5879,14.9234 36.7962,14.5588 C37.0046,14.1942 37.1087,13.8296 37.1087,13.465 C37.1087,13.1005 37.0306,12.788 36.8744,12.5275 C36.7181,12.2671 36.5098,12.1369 36.2494,12.1369 C35.9369,12.1369 35.6764,12.2541 35.4681,12.4885 C35.2728,12.7489 35.1751,13.0484 35.1751,13.3869 M34.3548,16.9611 L34.1009,5.06661 C34.2832,4.96245 34.4655,4.91036 34.6478,4.91036 C34.8301,4.91036 35.0124,4.96245 35.1947,5.06661 L35.0384,11.9611 C35.5723,11.5054 36.1843,11.2775 36.8744,11.2775 C37.3822,11.2775 37.8054,11.4859 38.1439,11.9025 C38.4824,12.3192 38.6517,12.7945 38.6517,13.3283 C38.6517,13.6669 38.541,14.0249 38.3197,14.4025 C38.1113,14.7541 37.89,15.0275 37.6556,15.2229 C37.5254,15.327 37.1934,15.5874 36.6595,16.0041 C36.5033,16.1213 36.3177,16.258 36.1029,16.4143 C35.888,16.5705 35.7546,16.6682 35.7025,16.7072 C35.6113,16.7593 35.5267,16.8635 35.4486,17.0197 C35.3574,17.1499 35.2533,17.2606 35.1361,17.3518 C35.0449,17.4299 34.9343,17.469 34.8041,17.469 C34.6738,17.469 34.5697,17.4234 34.4916,17.3322 C34.4004,17.2411 34.3548,17.1174 34.3548,16.9611"/>
<path class="" d="M30.1748,20.8874 L30.1748,22.4304 C30.1748,22.9772 30.2009,23.4134 30.253,23.739 C30.6826,23.3744 30.9886,23.1009 31.1709,22.9186 C31.3793,22.7103 31.5876,22.4239 31.7959,22.0593 C32.0043,21.6947 32.1084,21.3301 32.1084,20.9655 C32.1084,20.6009 32.0303,20.2884 31.8741,20.028 C31.7178,19.7676 31.5095,19.6374 31.2491,19.6374 C30.9366,19.6374 30.6761,19.7546 30.4678,19.989 C30.2725,20.2494 30.1748,20.5489 30.1748,20.8874 M29.3545,24.4616 L29.1006,12.5671 C29.2829,12.4629 29.4652,12.4108 29.6475,12.4108 C29.8298,12.4108 30.0121,12.4629 30.1944,12.5671 L30.0381,19.4616 C30.572,19.0059 31.1839,18.778 31.8741,18.778 C32.3819,18.778 32.805,18.9864 33.1436,19.403 C33.4821,19.8197 33.6514,20.2949 33.6514,20.8288 C33.6514,21.1673 33.5407,21.5254 33.3194,21.903 C33.111,22.2546 32.8897,22.528 32.6553,22.7233 C32.5251,22.8275 32.1931,23.0879 31.6592,23.5046 C31.503,23.6218 31.3174,23.7585 31.1026,23.9147 C30.8877,24.071 30.7543,24.1686 30.7022,24.2077 C30.611,24.2598 30.5264,24.364 30.4483,24.5202 C30.3571,24.6504 30.253,24.7611 30.1358,24.8522 C30.0446,24.9304 29.9339,24.9694 29.8037,24.9694 C29.6735,24.9694 29.5694,24.9239 29.4912,24.8327 C29.4001,24.7416 29.3545,24.6179 29.3545,24.4616"/>
<path class="" d="M25.1745,10.8868 L25.1745,12.4297 C25.1745,12.9766 25.2006,13.4128 25.2526,13.7383 C25.6823,13.3737 25.9883,13.1003 26.1706,12.918 C26.3789,12.7097 26.5873,12.4232 26.7956,12.0586 C27.0039,11.6941 27.1081,11.3295 27.1081,10.9649 C27.1081,10.6003 27.03,10.2878 26.8737,10.0274 C26.7175,9.76698 26.5092,9.63677 26.2487,9.63677 C25.9362,9.63677 25.6758,9.75395 25.4675,9.98833 C25.2722,10.2487 25.1745,10.5482 25.1745,10.8868 M24.3542,14.461 L24.1003,2.56645 C24.2826,2.46229 24.4649,2.4102 24.6472,2.4102 C24.8295,2.4102 25.0118,2.46229 25.194,2.56645 L25.0378,9.46099 C25.5717,9.00526 26.1836,8.77739 26.8737,8.77739 C27.3815,8.77739 27.8047,8.98573 28.1433,9.40239 C28.4818,9.81906 28.6511,10.2943 28.6511,10.8282 C28.6511,11.1667 28.5404,11.5248 28.319,11.9024 C28.1107,12.254 27.8894,12.5274 27.655,12.7227 C27.5248,12.8269 27.1927,13.0873 26.6589,13.504 C26.5026,13.6211 26.3171,13.7579 26.1023,13.9141 C25.8874,14.0704 25.7539,14.168 25.7019,14.2071 C25.6107,14.2592 25.5261,14.3633 25.448,14.5196 C25.3568,14.6498 25.2526,14.7605 25.1355,14.8516 C25.0443,14.9297 24.9336,14.9688 24.8034,14.9688 C24.6732,14.9688 24.569,14.9232 24.4909,14.8321 C24.3998,14.7409 24.3542,14.6172 24.3542,14.461"/>
<path class="" d="M20.1742,18.3872 L20.1742,19.9302 C20.1742,20.4771 20.2002,20.9133 20.2523,21.2388 C20.682,20.8742 20.988,20.6008 21.1703,20.4185 C21.3786,20.2102 21.587,19.9237 21.7953,19.5591 C22.0036,19.1945 22.1078,18.8299 22.1078,18.4654 C22.1078,18.1008 22.0297,17.7883 21.8734,17.5279 C21.7172,17.2674 21.5088,17.1372 21.2484,17.1372 C20.9359,17.1372 20.6755,17.2544 20.4672,17.4888 C20.2719,17.7492 20.1742,18.0487 20.1742,18.3872 M19.3539,21.9615 L19.1,10.0669 C19.2823,9.96276 19.4646,9.91068 19.6469,9.91068 C19.8292,9.91068 20.0114,9.96276 20.1937,10.0669 L20.0375,16.9615 C20.5713,16.5057 21.1833,16.2779 21.8734,16.2779 C22.3812,16.2779 22.8044,16.4862 23.143,16.9029 C23.4815,17.3195 23.6508,17.7948 23.6508,18.3286 C23.6508,18.6672 23.5401,19.0253 23.3187,19.4029 C23.1104,19.7544 22.889,20.0279 22.6547,20.2232 C22.5245,20.3273 22.1924,20.5878 21.6586,21.0044 C21.5023,21.1216 21.3168,21.2583 21.1019,21.4146 C20.8871,21.5708 20.7536,21.6685 20.7015,21.7076 C20.6104,21.7596 20.5258,21.8638 20.4476,22.0201 C20.3565,22.1503 20.2523,22.2609 20.1351,22.3521 C20.044,22.4302 19.9333,22.4693 19.8031,22.4693 C19.6729,22.4693 19.5687,22.4237 19.4906,22.3326 C19.3995,22.2414 19.3539,22.1177 19.3539,21.9615"/>
<path class="" d="M58.3801,18.6607 C58.0416,18.6607 57.703,18.5305 57.3645,18.2701 C57.039,18.0227 56.8762,17.6581 56.8762,17.1763 C56.8762,16.7727 57.0129,16.4146 57.2864,16.1021 C57.5468,15.7896 57.8918,15.6333 58.3215,15.6333 C58.4648,15.6333 58.5559,15.6398 58.595,15.6529 C57.996,14.8846 57.1952,14.4875 56.1926,14.4615 C55.4374,14.4615 54.8645,14.6763 54.4739,15.106 C54.3437,15.2753 54.2265,15.5487 54.1223,15.9263 C54.0181,16.3039 53.9661,16.6424 53.9661,16.9419 C53.94,17.1503 53.927,17.5669 53.927,18.1919 L53.927,20.2232 C53.927,20.8482 53.94,21.2714 53.9661,21.4927 C54.0181,22.3391 54.1874,22.9445 54.4739,23.3091 C54.8775,23.7518 55.4504,23.9732 56.1926,23.9732 C56.9739,23.9732 57.6379,23.6867 58.1848,23.1138 C58.7447,22.5539 59.1353,21.8313 59.3567,20.9458 C59.3957,20.8156 59.4739,20.7505 59.5911,20.7505 C59.7603,20.7505 59.845,20.8286 59.845,20.9849 C59.845,21.076 59.8059,21.2518 59.7278,21.5122 C59.5455,22.0982 59.1874,22.7167 58.6536,23.3677 C58.0155,24.0969 57.1952,24.4615 56.1926,24.4615 C55.6067,24.4615 55.0077,24.3768 54.3957,24.2076 C53.7968,23.9992 53.2694,23.7128 52.8137,23.3482 C52.3059,22.9445 51.9088,22.3977 51.6223,21.7076 C51.3358,20.9523 51.1926,20.119 51.1926,19.2076 C51.1926,17.619 51.6223,16.356 52.4817,15.4185 C53.315,14.4549 54.552,13.9732 56.1926,13.9732 C57.2603,13.9732 58.1067,14.3378 58.7317,15.0669 C59.3827,15.7961 59.7082,16.5188 59.7082,17.2349 C59.7082,17.6516 59.578,17.9901 59.3176,18.2505 C59.0832,18.524 58.7707,18.6607 58.3801,18.6607"/>
</svg>
